<ttFont>
          <CharString index="0">
            -33 -27 -27 -33 -33 27 -27 33 33 27 27 33 hvcurveto
            33 -27 27 -33 vhcurveto
            return
          </CharString>
          <CharString index="1">
            0 -63 20 -152 12 -114 3 -29 5 -10 10 0 10 0 5 17 3 22 15 114 21 130 0 87 rrcurveto
            37 -17 37 -34 vhcurveto
            -37 -16 -37 -39 hvcurveto
            return
          </CharString>
          <CharString index="2">
            0 -1 4 -59 0 -36 0 -18 0 -18 -1 -21 0 -9 2 -14 5 0 5 0 9 13 5 12 16 36 31 87 0 52 0 17 -4 15 -10 0 rrcurveto
            -16 0 -11 -8 -16 -13 -8 -7 -11 -14 0 -14 rrcurveto
            return
          </CharString>
          <CharString index="3">
            114 6 -43 -174 0 -3 rlineto
            -6 4 -6 6 vhcurveto
            13 0 14 2 3 13 rrcurveto
            43 176 58 3 rlineto
            22 1 9 37 0 10 rrcurveto
            7 -6 5 -7 vhcurveto
            -61 -3 34 138 56 3 rlineto
            22 1 9 38 0 10 rrcurveto
            7 -6 4 -7 vhcurveto
            -59 -3 42 172 rlineto
            0 2 1 1 0 2 0 6 -3 6 -5 0 -14 0 -16 -3 -3 -14 rrcurveto
            -43 -174 -113 -6 41 169 rlineto
            0 2 1 1 0 2 0 6 -3 6 -5 0 -14 0 -16 -3 -3 -14 rrcurveto
            return
          </CharString>
          <CharString index="4">
            -42 -171 -69 -3 rlineto
            -21 -1 -3 -37 0 -10 rrcurveto
            -7 7 -5 7 vhcurveto
            64 3 -34 -138 -67 -3 rlineto
            -21 -1 -3 -37 0 -10 rrcurveto
            -7 7 -5 7 vhcurveto
            63 3 -44 -177 0 -3 rlineto
            -6 4 -6 6 vhcurveto
            13 0 14 2 3 13 rrcurveto
            return
          </CharString>
          <CharString index="5">
            34 138 113 6 -33 -138 rlineto
            return
          </CharString>
          <CharString index="6">
            1 4 0 2 1 0 0 0 1 0 1 -1 25 -17 59 -60 0 -50 0 -94 -35 -33 -75 -5 -4 0 -4 0 0 7 rrcurveto
            return
          </CharString>
          <CharString index="7">
            -10 7 -4 -2 0 7 0 2 1 2 0 3 rrcurveto
            28 227 rlineto
            2 2 3 2 vhcurveto
            1 hlineto
            return
          </CharString>
          <CharString index="8">
            32 -13 34 -30 16 -60 4 -15 17 -10 5 0 5 0 5 16 0 9 0 35 -8 38 -6 34 -2 10 -5 10 -11 2 -15 3 -24 8 -40 3 rrcurveto
            -5 1 -1 3 0 3 rrcurveto
            4 26 0 2 rlineto
            7 -6 8 -7 vhcurveto
            -13 0 -14 -4 -2 -13 rrcurveto
            -4 -26 rlineto
            0 -3 -4 -2 -6 -1 -124 -8 -54 -96 0 -58 0 -80 62 -55 69 -48 12 -9 0 -5 0 -3 rrcurveto
            -33 -269 rlineto
            -2 -2 -1 -2 vhcurveto
            -1 0 -2 1 -1 0 -72 36 -31 112 -9 0 -11 0 -9 -8 0 -8 2 -36 18 -79 11 -23 2 -5 -2 -4 14 -3 24 -6 23 -11 36 -6 rrcurveto
            3 3 -4 -3 hvcurveto
            -10 -79 0 -1 rlineto
            -7 8 -7 8 vhcurveto
            11 0 13 4 1 11 rrcurveto
            9 76 rlineto
            return
          </CharString>
          <CharString index="9">
            1 5 5 1 3 0 150 0 56 110 0 80 0 102 -99 58 -51 36 rrcurveto
            return
          </CharString>
          <CharString index="10">
            5 2 -3 -5 hvcurveto
            -26 -206 rlineto
            -2 -2 -2 -2 vhcurveto
            -2 0 -1 1 -2 1 -38 29 -33 36 0 41 0 52 41 53 58 5 rrcurveto
            return
          </CharString>
          <CharString index="11">
            40 0 25 -90 1 -66 rrcurveto
            -5 vlineto
            -64 -18 -86 -44 -45 -23 100 71 61 25 79 39 vhcurveto
            return
          </CharString>
          <CharString index="12">
            -91 -54 -96 -86 -92 41 -88 86 95 48 97 94 85 -42 86 -83 hvcurveto
            return
          </CharString>
          <CharString index="13">
            -1 -1 0 -1 0 -1 0 -6 9 -6 8 0 15 0 13 2 8 13 rrcurveto
            412 649 rlineto
            1 1 0 2 0 1 0 6 -7 7 -7 0 -17 0 -13 -3 -9 -14 rrcurveto
            return
          </CharString>
          <CharString index="14">
            -15 0 -50 5 -6 0 -4 0 -18 -1 0 -10 0 -3 9 -7 3 -1 17 -3 11 -17 0 -8 0 -15 -62 -84 -48 -51 rrcurveto
            -18 -19 -12 18 rlineto
            -40 58 -41 31 -49 56 rrcurveto
            -9 10 14 5 rlineto
            61 23 36 49 0 63 rrcurveto
            63 -60 40 -63 -69 -68 -40 -70 vhcurveto
            0 -59 44 -41 19 -22 rrcurveto
            15 -16 -20 -9 rlineto
            -96 -44 -72 -69 0 -106 0 -89 87 -49 88 0 93 0 45 63 63 68 rrcurveto
            6 6 13 -21 rlineto
            return
          </CharString>
          <CharString index="15">
            51 -80 28 -36 75 0 rrcurveto
            55 67 46 9 10 -1 12 -9 hvcurveto
            -6 0 -6 -2 -5 -3 -23 -15 -9 -8 -28 0 -75 0 -28 46 -42 61 rrcurveto
            -17 24 rlineto
            0 0 166 177 13 11 16 14 26 15 31 2 9 1 16 10 0 8 rrcurveto
            4 -9 5 -3 vhcurveto
            return
          </CharString>
          <CharString index="16">
            12 -13 rlineto
            57 -62 53 -49 33 -51 rrcurveto
            12 -19 -9 -9 rlineto
            return
          </CharString>
          <CharString index="17">
            -49 -52 -45 -29 -72 0 -61 0 -54 46 0 61 0 59 9 74 93 36 rrcurveto
            return
          </CharString>
          <CharString index="18">
            -15 17 rlineto
            -12 15 -45 52 0 53 rrcurveto
            35 35 23 35 42 28 -42 -36 vhcurveto
            return
          </CharString>
          <CharString index="19">
            0 2 -14 15 -2 2 -71 71 -77 213 0 170 0 170 81 148 71 71 2 2 11 15 0 2 0 9 -15 7 -7 0 -10 0 -11 -5 -6 -6 rrcurveto
            -71 -71 -105 -184 0 -170 0 -170 109 -235 71 -71 5 -5 6 -2 6 0 13 0 14 8 0 14 rrcurveto
            return
          </CharString>
          <CharString index="20">
            0 170 -104 172 -71 71 -7 7 -7 3 -10 0 -11 0 -16 -4 0 -9 0 -3 5 -6 3 -3 71 -71 87 -171 0 -170 0 -170 -89 -207 -71 -71 rrcurveto
            -3 -3 -7 -8 0 -3 0 -10 16 -8 14 0 7 0 6 2 4 4 71 71 112 247 0 170 rrcurveto
            return
          </CharString>
          <CharString index="21">
            0 -7 5 -8 7 -3 31 -18 25 -12 26 -12 rrcurveto
            -73 -58 rlineto
            -5 -5 -4 -6 0 -6 0 -10 10 -4 8 0 4 0 4 1 3 3 30 18 26 16 23 16 rrcurveto
            13 -92 rlineto
            return
          </CharString>
          <CharString index="22">
            1 -9 7 -9 9 0 rrcurveto
            1 hlineto
            11 1 5 10 0 11 -1 35 -2 30 -3 28 26 -11 29 -10 32 -14 rrcurveto
            return
          </CharString>
          <CharString index="23">
            3 -1 2 0 3 0 9 0 8 4 0 10 0 7 -5 8 -7 3 -31 18 -25 12 -26 12 rrcurveto
            73 58 rlineto
            5 5 4 6 0 6 0 10 -10 4 -8 0 -4 0 -4 -1 -3 -3 -30 -18 -26 -16 -23 -16 rrcurveto
            -13 92 rlineto
            return
          </CharString>
          <CharString index="24">
            -1 9 -7 9 -9 0 rrcurveto
            -1 hlineto
            -11 -1 -5 -10 0 -11 1 -35 2 -30 3 -28 -26 11 -29 10 -32 14 -3 1 -2 0 -3 0 rrcurveto
            -9 -8 -4 -10 hvcurveto
            return
          </CharString>
          <CharString index="25">
            191 vlineto
            7 -7 6 -7 -6 -40 -9 -22 vhcurveto
            -171 vlineto
            -6 -1 -2 -6 vhcurveto
            -189 hlineto
            -18 -6 -29 -9 -6 7 -6 7 hvcurveto
            202 hlineto
            3 1 -2 -3 hvcurveto
            -211 vlineto
            -7 6 -7 6 9 39 3 21 vhcurveto
            202 vlineto
            3 1 1 3 vhcurveto
            185 hlineto
            19 12 23 17 6 -6 4 -7 hvcurveto
            -205 hlineto
            -2 0 1 5 hvcurveto
            return
          </CharString>
          <CharString index="26">
            51 93 66 101 56 -35 41 -48 -29 -26 -19 -27 hvcurveto
            0 -22 18 -17 29 -3 22 -2 17 -26 0 -16 0 -70 -53 -30 -43 -9 -9 -2 -5 -5 0 -5 rrcurveto
            -6 6 -5 12 vhcurveto
            return
          </CharString>
          <CharString index="27">
            64 7 61 9 60 9 16 2 3 27 2 25 0 4 -4 2 -4 0 -64 -7 -64 -9 -64 -9 -10 -1 -4 -31 -2 -22 rrcurveto
            -4 1 -2 5 vhcurveto
            return
          </CharString>
          <CharString index="28">
            -30 -25 -25 -30 -30 25 -25 30 30 25 25 30 30 -25 25 -30 hvcurveto
            return
          </CharString>
          <CharString index="29">
            0 -1 -1 -1 0 -1 0 -7 9 -5 8 0 15 0 15 1 6 14 rrcurveto
            297 695 rlineto
            0 1 1 2 0 1 0 7 -7 6 -7 0 -17 0 -15 -2 -7 -15 rrcurveto
            return
          </CharString>
          <CharString index="30">
            84 46 -86 -83 -125 -60 -52 -82 -82 -47 93 85 97 59 71 82 hvcurveto
            return
          </CharString>
          <CharString index="31">
            -116 -96 -93 -116 -119 94 -100 120 118 95 99 119 117 -97 93 -118 hvcurveto
            return
          </CharString>
          <CharString index="32">
            0 -41 -46 -3 -27 -2 rrcurveto
            -8 -3 -5 -6 -7 4 -7 7 hvcurveto
            54 0 13 5 43 0 41 0 9 -5 57 0 8 0 4 6 0 6 0 6 -4 6 -8 1 -44 6 -26 1 -1 39 -1 27 0 55 0 58 rrcurveto
            0 43 0 44 1 38 1 47 32 -2 28 6 5 1 3 6 0 5 0 5 -2 5 -6 0 -58 0 -1 -3 -38 0 -39 0 -1 3 -60 0 rrcurveto
            -5 -2 -5 -6 -5 2 -6 5 hvcurveto
            27 -4 36 0 0 -47 rrcurveto
            return
          </CharString>
          <CharString index="33">
            2 13 6 10 hvcurveto
            0 10 17 59 16 45 1 2 0 2 0 2 0 3 -1 3 -3 0 -9 0 -7 -5 -3 -5 -19 -38 -36 -25 -38 0 rrcurveto
            -155 hlineto
            -6 0 -9 4 6 4 10 7 81 75 30 36 24 29 17 38 0 32 rrcurveto
            63 -40 60 -64 -118 -47 -100 -9 -6 1 -8 6 vhcurveto
            6 0 3 3 4 4 34 38 37 10 45 0 38 0 27 -31 0 -47 0 -81 -114 -94 -22 -18 -16 -13 -28 -27 -17 -17 -4 -4 -3 -4 0 -4 rrcurveto
            -4 4 -4 3 vhcurveto
            5 0 94 3 64 0 67 0 90 -4 14 0 rrcurveto
            return
          </CharString>
          <CharString index="34">
            -77 -68 -80 -21 -7 1 -5 6 hvcurveto
            5 0 8 4 3 4 27 29 24 21 45 0 39 0 25 -28 0 -38 0 -53 -22 -37 -18 -16 -29 -26 -19 -12 -22 -13 -12 -7 -19 -18 0 -9 rrcurveto
            -7 9 -2 8 vhcurveto
            4 0 27 20 31 0 rrcurveto
            return
          </CharString>
          <CharString index="35">
            74 12 -63 -32 hvcurveto
            0 -96 -39 -30 -51 -27 -17 -9 -41 -1 -9 0 rrcurveto
            -12 -15 -18 -12 -10 16 -4 11 hvcurveto
            12 0 33 9 24 12 79 39 85 62 0 121 0 44 -31 62 -92 2 -5 0 0 4 4 2 rrcurveto
            return
          </CharString>
          <CharString index="36">
            78 45 16 65 0 32 rrcurveto
            63 -43 41 -65 vhcurveto
            return
          </CharString>
          <CharString index="37">
            -150 hlineto
            -4 0 2 6 2 3 58 67 32 38 62 64 3 3 7 -1 0 -3 rrcurveto
            -169 vlineto
            -4 -7 -4 -5 vhcurveto
            return
          </CharString>
          <CharString index="38">
            -112 -125 -108 -118 -66 -78 -1 -1 -3 -6 0 -1 0 -5 8 0 5 0 105 1 42 6 82 0 rrcurveto
            1 14 -3 -6 hvcurveto
            -209 vlineto
            -10 7 -3 8 7 51 23 25 vhcurveto
            179 vlineto
            0 1 8 4 5 1 8 1 11 1 12 0 rrcurveto
            return
          </CharString>
          <CharString index="39">
            16 0 18 -1 15 0 rrcurveto
            7 14 28 16 4 -5 3 -6 hvcurveto
            -22 -1 -18 -1 -19 0 -12 0 -13 0 -15 1 -3 0 -2 3 0 3 0 117 4 66 0 117 rrcurveto
            5 3 7 -6 vhcurveto
            -1 hlineto
            -7 -1 -17 -26 -15 -17 rrcurveto
            return
          </CharString>
          <CharString index="40">
            100 123 77 129 hvcurveto
            0 52 -35 55 -27 26 -28 27 -66 43 -58 32 -14 8 -6 8 0 8 0 2 0 2 1 2 5 20 4 10 9 0 31 1 40 2 51 10 rrcurveto
            27 5 24 46 0 25 rrcurveto
            7 -4 7 -7 vhcurveto
            -1 hlineto
            -58 -8 -42 -9 -46 -18 -10 -4 -17 -10 -9 -19 -8 -17 -23 -54 0 -54 0 -17 10 -18 40 -20 66 -33 71 -51 0 -83 0 -106 -69 -41 -75 -13 rrcurveto
            -12 -2 -21 -5 0 -10 rrcurveto
            -9 19 -3 15 vhcurveto
            return
          </CharString>
          <CharString index="41">
            140 67 99 105 72 -56 51 -69 hvcurveto
            -37 0 -46 -22 -15 -11 -11 -8 -6 -5 -10 -11 -7 -8 2 -9 12 6 23 12 22 3 35 0 53 0 41 -57 0 -61 0 -49 -21 -33 -22 -17 rrcurveto
            -16 -13 -21 -8 -29 0 -43 0 -43 36 -17 21 -18 22 -16 39 0 50 0 120 55 97 34 49 51 73 61 46 90 39 4 2 22 7 0 12 rrcurveto
            3 -5 1 -4 vhcurveto
            -5 hlineto
            -122 -32 -100 -74 -49 -56 -35 -41 -80 -94 0 -149 rrcurveto
            -120 59 -87 132 vhcurveto
            return
          </CharString>
          <CharString index="42">
            -255 -439 rlineto
            -9 -16 -12 -21 0 -4 0 -15 13 -11 15 0 4 0 9 16 6 11 rrcurveto
            280 489 rlineto
            10 17 28 37 0 16 0 5 -3 9 -4 0 -19 -4 -98 -2 -89 0 -40 0 -38 0 -29 1 -25 1 -35 3 -3 0 -3 0 -7 -1 0 -10 rrcurveto
            0 -25 -5 -30 -7 -29 -1 -5 -3 -10 0 -7 0 -5 1 -3 4 0 9 0 12 16 5 6 16 21 24 2 20 0 rrcurveto
            13 hlineto
            32 0 135 -2 39 -1 15 -1 -3 -4 -2 -5 rrcurveto
            return
          </CharString>
          <CharString index="43">
            -4 -3 -4 0 -4 3 -65 53 -46 21 0 72 rrcurveto
            46 47 33 48 47 35 -46 -47 vhcurveto
            0 -56 -11 -41 -43 -35 rrcurveto
            return
          </CharString>
          <CharString index="44">
            -10 7 -1 1 16 12 22 16 10 7 18 16 22 19 26 27 0 45 rrcurveto
            75 -73 49 -74 -82 -88 -46 -76 vhcurveto
            0 -79 51 -46 57 -47 8 -6 4 -2 -9 -5 rrcurveto
            return
          </CharString>
          <CharString index="45">
            -48 -26 -74 -42 0 -82 rrcurveto
            -85 76 -60 85 92 89 73 97 vhcurveto
            0 75 -47 37 -70 46 rrcurveto
            return
          </CharString>
          <CharString index="46">
            5 4 3 2 3 0 5 0 3 -3 7 -5 54 -37 56 -46 0 -58 rrcurveto
            -53 -41 -41 -56 -63 -42 60 63 vhcurveto
            0 60 26 22 40 32 rrcurveto
            return
          </CharString>
          <CharString index="47">
            -121 -77 -108 -91 -72 60 -54 69 hvcurveto
            37 0 40 22 15 11 11 8 15 14 7 13 2 4 -4 9 -5 -2 -25 -12 -14 -14 -41 0 rrcurveto
            -53 -45 64 61 49 31 62 65 73 55 -68 -83 hvcurveto
            0 -113 -40 -66 -36 -48 -42 -56 -116 -94 -57 -18 -7 -2 -7 -4 0 -7 rrcurveto
            -4 4 -1 5 vhcurveto
            5 hlineto
            69 10 121 75 55 54 54 53 72 90 0 114 rrcurveto
            118 -78 86 -97 vhcurveto
            return
          </CharString>
          <CharString index="48">
            -3 1 -1 3 3 1 rrcurveto
            373 174 rlineto
            20 9 11 30 0 12 0 6 -4 4 -6 0 -1 0 -1 -1 -1 0 rrcurveto
            -437 -200 rlineto
            -20 -9 -13 -28 0 -9 0 -6 24 -13 17 -8 rrcurveto
            429 -200 rlineto
            1 0 1 -1 1 0 6 0 5 8 0 5 0 9 -5 30 -19 9 rrcurveto
            return
          </CharString>
          <CharString index="49">
            -18 -6 -29 -9 -6 7 -6 7 hvcurveto
            445 hlineto
            19 0 6 19 6 17 0 1 1 1 0 1 rrcurveto
            6 -8 5 -6 vhcurveto
            return
          </CharString>
          <CharString index="50">
            3 -1 1 -3 -3 -1 rrcurveto
            -373 -174 rlineto
            -20 -9 -11 -30 0 -12 0 -5 4 -5 6 0 1 0 1 1 1 0 rrcurveto
            437 200 rlineto
            20 9 13 28 0 9 0 6 -24 13 -17 8 rrcurveto
            -429 200 rlineto
            -1 0 -1 1 -1 0 -6 0 -5 -8 0 -5 0 -9 5 -30 19 -9 rrcurveto
            return
          </CharString>
          <CharString index="51">
            -17 -23 -17 -19 -27 21 -29 21 hvcurveto
            19 0 9 4 19 0 68 -1 33 -48 0 -66 0 -29 -33 -28 -28 -14 rrcurveto
            return
          </CharString>
          <CharString index="52">
            -63 -32 -38 -24 0 -34 rrcurveto
            return
          </CharString>
          <CharString index="53">
            0 -45 10 -21 6 -21 4 -16 11 -13 7 0 rrcurveto
            return
          </CharString>
          <CharString index="54">
            10 5 13 10 hvcurveto
            1 32 3 29 28 18 32 21 10 6 44 24 20 11 22 24 0 49 0 51 -37 86 -56 56 -33 33 -42 17 -33 0 rrcurveto
            return
          </CharString>
          <CharString index="55">
            107 100 71 117 149 -136 123 -149 -191 -173 -112 -214 -184 154 -128 178 108 142 90 24 9 -5 4 -9 hvcurveto
            -5 0 -7 -5 -6 -5 -50 -42 -92 -35 -65 0 rrcurveto
            -159 -137 123 159 169 139 107 158 139 119 -108 -139 -83 -64 -53 -70 -14 -4 14 15 hvcurveto
            0 9 2 9 1 9 rrcurveto
            21 132 rlineto
            3 16 10 40 9 24 3 4 -17 4 -4 0 -10 0 -5 -19 -10 0 -4 0 -4 1 -15 5 -12 4 -33 4 -20 0 rrcurveto
            -110 -101 -78 -121 -70 52 -39 66 hvcurveto
            63 0 43 37 10 0 10 0 3 -37 41 0 rrcurveto
            return
          </CharString>
          <CharString index="56">
            43 29 -21 -37 hvcurveto
            0 -4 0 -4 -1 -4 rrcurveto
            -19 -103 rlineto
            -6 -31 -9 -10 -12 -8 -20 -14 -16 -8 -24 0 rrcurveto
            -38 -45 22 72 98 61 52 57 hvcurveto
            return
          </CharString>
          <CharString index="57">
            17 12 2 8 hvcurveto
            0 9 -10 10 -23 4 -40 7 -33 13 -28 80 -33 95 -81 236 -64 203 -3 9 -2 5 -5 0 -5 0 -2 -16 -14 -9 -12 -8 -12 -3 -12 -4 rrcurveto
            -2 -1 3 -15 -15 -42 -67 -185 -45 -114 -75 -171 -22 -50 -30 -17 -34 -10 -22 -7 -11 -7 0 -9 0 -8 12 -5 17 0 33 0 43 6 44 0 rrcurveto
            37 0 36 -2 18 0 17 0 12 3 0 8 0 9 -10 5 -23 6 -32 8 -26 20 0 29 0 13 31 100 9 26 5 14 6 4 6 0 rrcurveto
            191 hlineto
            18 0 6 -1 3 -10 15 -50 23 -78 0 -29 0 -22 -17 -16 -44 -7 -18 -3 -15 -7 0 -9 0 -8 12 -4 17 0 24 0 42 1 39 0 rrcurveto
            45 0 66 -6 28 0 rrcurveto
            return
          </CharString>
          <CharString index="58">
            4 11 2 6 2 0 3 0 2 -6 4 -12 rrcurveto
            79 -239 rlineto
            1 -4 1 -4 0 -2 rrcurveto
            -5 -4 0 -10 vhcurveto
            -155 hlineto
            -13 -8 0 7 hvcurveto
            0 2 1 3 1 3 rrcurveto
            return
          </CharString>
          <CharString index="59">
            -16 -30 2 35 hvcurveto
            174 vlineto
            30 11 15 55 113 23 -75 -57 vhcurveto
            0 -58 -31 -29 -14 -8 rrcurveto
            -40 -24 -45 -5 -26 0 rrcurveto
            return
          </CharString>
          <CharString index="60">
            40 0 37 -4 18 0 66 0 52 13 42 21 41 21 63 33 0 110 0 116 -82 30 -60 19 -6 2 1 6 5 2 33 13 13 10 21 20 rrcurveto
            return
          </CharString>
          <CharString index="61">
            15 15 19 36 0 45 0 109 -76 40 -146 0 -58 0 -15 -5 -38 0 -41 0 -9 1 -54 0 -17 0 -12 -3 0 -8 0 -9 10 -9 23 -2 rrcurveto
            49 -4 18 -21 0 -48 rrcurveto
            -450 vlineto
            0 -48 -28 -18 -50 -9 -23 -4 -10 -5 0 -9 0 -8 12 -3 17 0 58 0 20 5 52 0 rrcurveto
            return
          </CharString>
          <CharString index="62">
            -51 -28 15 56 hvcurveto
            199 vlineto
            13 14 23 43 vhcurveto
            50 0 36 -15 18 -10 27 -15 47 -37 0 -77 rrcurveto
            -86 -78 -66 -78 vhcurveto
            return
          </CharString>
          <CharString index="63">
            -26 -51 -48 -70 -112 0 rrcurveto
            -156 -98 168 163 147 101 138 147 hvcurveto
            92 0 45 -41 10 -10 12 -11 18 -22 5 -40 4 -23 11 -13 11 -1 10 -1 2 15 -1 9 -1 52 -3 26 -4 31 -1 14 -4 15 -8 1 rrcurveto
            -20 3 -38 9 -18 6 -18 6 -56 6 -32 0 rrcurveto
            -194 -170 -146 -194 -182 141 -156 182 hvcurveto
            60 0 73 9 35 11 25 8 19 5 5 8 15 23 14 56 4 25 0 2 1 3 0 3 0 9 -3 10 -4 0 -1 0 0 0 -1 -1 rrcurveto
            -5 -4 -14 -4 -6 -11 rrcurveto
            return
          </CharString>
          <CharString index="64">
            191 157 157 192 175 -108 142 -271 hvcurveto
            -27 0 -101 -8 -43 0 rrcurveto
            -7 hlineto
            -41 0 -9 2 -54 0 -17 0 -12 -3 0 -8 0 -9 10 -7 23 -4 50 -9 17 -16 0 -48 rrcurveto
            -450 vlineto
            0 -48 -17 -18 -50 -9 -23 -4 -10 -5 0 -9 0 -8 12 -3 17 0 53 0 12 5 40 0 79 0 109 -7 20 0 rrcurveto
            return
          </CharString>
          <CharString index="65">
            446 vlineto
            60 49 1 87 137 142 -111 -192 -174 -109 -123 -156 -75 -75 12 81 vhcurveto
            return
          </CharString>
          <CharString index="66">
            192 vlineto
            23 11 3 23 vhcurveto
            93 hlineto
            17 0 19 -14 10 -31 2 -7 8 -16 13 0 8 0 1 8 0 9 0 8 -2 40 0 20 0 16 3 30 0 9 0 10 -8 6 -5 0 rrcurveto
            -5 0 -11 -12 -2 -5 -10 -23 -22 -16 -29 0 rrcurveto
            -96 hlineto
            -10 -8 10 12 hvcurveto
            212 vlineto
            19 25 13 11 vhcurveto
            131 hlineto
            25 0 23 -6 19 -21 9 -10 6 -23 7 -22 2 -7 2 -3 7 0 6 0 8 3 0 12 0 27 -8 38 -7 38 -1 7 -10 2 -7 0 rrcurveto
            -10 0 -121 -3 -91 0 -70 0 -32 3 -75 0 -17 0 -12 -3 0 -8 0 -9 10 -7 23 -4 50 -9 17 -16 0 -48 rrcurveto
            -450 vlineto
            0 -48 -24 -18 -50 -9 -23 -4 -10 -5 0 -9 0 -8 12 -3 17 0 54 0 16 6 45 0 100 0 99 -6 128 0 8 0 4 8 2 9 rrcurveto
            7 26 10 59 0 18 0 8 -6 2 -7 1 -7 1 -3 -3 -4 -8 -8 -17 -16 -32 -18 -14 rrcurveto
            return
          </CharString>
          <CharString index="67">
            -13 -10 -13 -8 -50 0 rrcurveto
            -104 hlineto
            -45 -21 16 51 hvcurveto
            return
          </CharString>
          <CharString index="68">
            0 14 -1 63 -4 23 -1 7 -10 2 -7 0 rrcurveto
            return
          </CharString>
          <CharString index="69">
            -2 0 -132 -3 -91 0 rrcurveto
            return
          </CharString>
          <CharString index="70">
            -69 0 -30 3 -73 0 -17 0 -12 -3 0 -8 0 -9 10 -7 23 -4 50 -9 11 -31 0 -60 rrcurveto
            -422 vlineto
            0 -49 -17 -18 -50 -9 -23 -4 -10 -5 0 -9 0 -8 12 -3 17 0 54 0 23 7 49 0 38 0 6 -7 54 0 17 0 12 3 0 8 rrcurveto
            0 9 -10 5 -23 4 -50 9 -14 25 -2 43 -3 66 0 63 0 61 0 17 11 7 13 1 21 1 21 1 23 0 16 0 17 -1 17 0 rrcurveto
            16 0 21 -8 10 -31 2 -7 8 -16 13 0 8 0 1 8 0 9 -2 29 -1 19 0 20 0 16 1 16 2 23 1 9 -9 7 -5 0 rrcurveto
            -5 0 -11 -12 -2 -5 -10 -23 -22 -16 -29 0 -24 0 -50 -3 -42 0 -9 0 -1 11 0 11 -1 24 0 35 0 34 0 35 0 34 1 25 rrcurveto
            return
          </CharString>
          <CharString index="71">
            1 26 2 24 31 0 rrcurveto
            127 hlineto
            25 0 23 -6 19 -21 9 -10 7 -17 7 -22 2 -7 6 -5 7 0 rrcurveto
            6 3 9 12 hvcurveto
            return
          </CharString>
          <CharString index="72">
            -2 15 -156 24 -50 0 rrcurveto
            -199 -169 -154 -198 -185 162 -140 185 hvcurveto
            127 0 91 64 20 3 14 2 0 12 0 5 0 5 -9 5 -4 7 -3 6 -3 3 0 7 rrcurveto
            27 vlineto
            0 25 1 21 4 29 4 27 9 14 29 8 5 1 16 8 0 9 0 13 -16 3 -5 0 -36 0 -18 -4 -35 0 -55 0 -22 4 -49 0 rrcurveto
            -5 -15 -7 -10 -10 15 -7 5 hvcurveto
            20 0 61 -9 17 -22 4 -5 1 -11 0 -14 0 -18 -2 -23 0 -17 0 -35 -15 -27 -15 -15 -12 -12 -33 -25 -77 0 rrcurveto
            -133 -129 111 190 158 105 143 155 hvcurveto
            95 0 51 -37 13 -16 rrcurveto
            return
          </CharString>
          <CharString index="73">
            16 -19 7 -13 8 -21 4 -12 5 -15 14 0 8 0 7 10 0 10 rrcurveto
            0 26 -5 44 -6 42 rrcurveto
            return
          </CharString>
          <CharString index="74">
            452 vlineto
            0 38 3 23 50 9 23 4 10 7 0 9 0 8 -12 3 -17 0 -54 0 -1 -3 -36 0 -45 0 -17 3 -54 0 -17 0 -12 -3 0 -8 rrcurveto
            0 -9 10 -7 23 -4 50 -9 16 -25 0 -36 rrcurveto
            -190 vlineto
            -9 -2 -3 -5 vhcurveto
            -371 hlineto
            -6 -8 1 8 hvcurveto
            192 vlineto
            0 39 18 23 50 9 23 4 10 7 0 9 0 8 -12 3 -17 0 -54 0 -11 -3 -41 0 -40 0 -9 3 -54 0 -17 0 -12 -3 0 -8 rrcurveto
            0 -9 10 -7 23 -4 50 -9 3 -16 0 -46 rrcurveto
            -452 vlineto
            0 -48 -10 -18 -50 -9 -23 -4 -10 -5 0 -9 0 -8 12 -3 17 0 54 0 13 5 43 0 46 0 17 -5 54 0 17 0 12 3 0 8 rrcurveto
            0 9 -10 5 -23 4 -46 8 -33 32 0 42 rrcurveto
            185 vlineto
            8 0 3 5 vhcurveto
            382 hlineto
            6 -1 -8 -7 hvcurveto
            -190 vlineto
            0 -43 -26 -22 -42 -8 -23 -4 -10 -5 0 -9 0 -8 12 -3 17 0 54 0 11 5 42 0 41 0 9 -5 54 0 17 0 12 3 0 8 rrcurveto
            0 9 -10 5 -23 4 -50 9 -5 18 0 49 rrcurveto
            return
          </CharString>
          <CharString index="75">
            -452 vlineto
            0 -47 -28 -18 -50 -9 -23 -4 -10 -5 0 -9 0 -8 12 -3 17 0 54 0 24 5 50 0 46 0 17 -5 54 0 17 0 12 3 0 8 rrcurveto
            0 9 -10 5 -23 4 -50 9 -29 18 0 47 rrcurveto
            452 vlineto
            0 47 21 16 50 9 23 4 10 7 0 9 0 8 -12 3 -17 0 -54 0 -12 -3 -43 0 -46 0 -17 3 -54 0 -17 0 -12 -3 0 -8 rrcurveto
            0 -9 10 -7 23 -4 50 -9 17 -16 0 -47 rrcurveto
            return
          </CharString>
          <CharString index="76">
            -17 0 -15 6 -15 23 -12 18 -12 8 -26 0 rrcurveto
            -18 -18 -28 -27 -21 38 -21 65 hvcurveto
            59 0 37 27 27 39 28 40 25 26 0 210 rrcurveto
            409 vlineto
            0 46 7 16 50 9 23 4 10 7 0 9 0 8 -12 3 -17 0 -54 0 -3 -3 -37 0 -46 0 -17 3 -54 0 -17 0 -12 -3 0 -8 rrcurveto
            0 -9 11 -7 22 -4 48 -9 18 -16 0 -46 rrcurveto
            -551 vlineto
            -97 -19 -61 -47 vhcurveto
            return
          </CharString>
          <CharString index="77">
            17 12 3 8 hvcurveto
            0 9 -10 4 -23 5 -57 12 -10 11 -43 48 rrcurveto
            -242 258 rlineto
            -7 7 -3 6 5 5 70 77 50 49 72 61 46 39 56 18 50 9 23 4 10 7 0 9 rrcurveto
            7 -9 4 -13 vhcurveto
            -7 hlineto
            -32 -3 -70 -1 -53 0 rrcurveto
            -54 hlineto
            -17 -12 -3 -8 hvcurveto
            0 -9 8 -5 23 -6 12 -3 7 -9 0 -11 0 -9 -5 -11 -10 -10 rrcurveto
            -200 -204 rlineto
            -7 -8 -13 -10 -7 0 rrcurveto
            -5 0 14 5 hvcurveto
            187 vlineto
            0 39 4 23 50 9 23 4 10 7 0 9 0 8 -12 3 -17 0 -54 0 -5 -2 -38 0 -44 0 -14 2 -54 0 -17 0 -12 -3 0 -8 rrcurveto
            0 -9 10 -7 23 -4 50 -9 17 -16 0 -46 rrcurveto
            -450 vlineto
            0 -50 -17 -18 -50 -9 -23 -4 -10 -5 0 -9 0 -8 12 -3 17 0 54 0 23 7 49 0 38 0 6 -7 54 0 17 0 12 3 0 8 rrcurveto
            0 9 -10 5 -23 4 -50 9 -12 34 -2 43 -3 80 -2 49 0 63 0 7 -1 14 5 0 5 0 10 -9 8 -8 rrcurveto
            212 -234 rlineto
            8 -9 7 -8 0 -8 0 -8 -8 -7 -20 -5 -19 -4 -8 -4 0 -9 0 -8 12 -3 17 0 45 0 11 1 25 0 55 0 25 -5 59 0 rrcurveto
            return
          </CharString>
          <CharString index="78">
            0 39 39 7 50 9 23 4 10 7 0 9 0 8 -12 3 -17 0 -54 0 -23 -3 -49 0 -44 0 -14 3 -54 0 -17 0 -12 -3 0 -8 rrcurveto
            0 -9 10 -7 23 -4 50 -9 11 -5 0 -48 rrcurveto
            -464 vlineto
            0 -44 -29 -18 -52 -10 -4 -1 -18 -4 0 -12 0 -7 10 -5 18 0 0 0 85 5 50 0 100 0 109 -5 134 0 10 0 3 8 1 9 rrcurveto
            4 42 9 33 14 52 0 1 1 2 0 2 0 8 -4 10 -8 0 -9 0 -10 -22 -3 -8 -17 -36 -9 -12 -26 -23 rrcurveto
            return
          </CharString>
          <CharString index="79">
            -18 -16 -33 -10 -5 0 rrcurveto
            -146 hlineto
            -66 -11 20 41 hvcurveto
            return
          </CharString>
          <CharString index="80">
            0 32 49 13 34 10 6 2 20 10 0 11 rrcurveto
            9 -15 1 -6 vhcurveto
            -3 hlineto
            -20 0 -48 -8 -43 0 rrcurveto
            -36 hlineto
            -15 0 2 -56 -15 -32 rrcurveto
            -197 -410 rlineto
            -4 -8 -4 -4 -3 0 -4 0 -4 5 -4 10 rrcurveto
            -158 401 rlineto
            -10 27 -8 66 -18 0 -26 0 -103 8 -37 0 -6 0 -17 -1 0 -10 0 -9 8 -6 6 -2 24 -6 39 -5 20 -23 11 -13 4 -8 0 -11 rrcurveto
            0 -6 1 -7 0 -10 0 -84 -17 -172 -24 -180 -2 -13 -10 -56 -50 -9 -23 -4 -10 -5 0 -9 0 -8 12 -3 17 0 54 0 1 5 36 0 rrcurveto
            37 0 3 -5 54 0 17 0 12 3 0 8 0 9 -10 5 -23 4 -49 9 -16 43 0 26 0 136 13 92 19 141 2 15 5 -1 6 -14 rrcurveto
            75 -175 52 -124 52 -156 rrcurveto
            return
          </CharString>
          <CharString index="81">
            5 -15 4 -11 5 0 4 0 5 7 8 17 rrcurveto
            222 450 rlineto
            5 10 4 6 2 0 3 0 2 -5 0 -11 rrcurveto
            return
          </CharString>
          <CharString index="82">
            6 -135 6 -89 0 -144 0 -47 -12 -20 -39 -5 -23 -3 -10 -6 0 -9 0 -8 12 -3 17 0 54 0 10 5 41 0 46 0 17 -5 54 0 rrcurveto
            17 12 3 8 hvcurveto
            0 9 -10 5 -23 4 -50 9 -23 21 -2 41 rrcurveto
            -8 151 -14 136 0 186 rrcurveto
            return
          </CharString>
          <CharString index="83">
            -57 hlineto
            -17 -12 -3 -8 hvcurveto
            0 -9 10 -7 23 -4 22 -4 35 -25 1 -26 rrcurveto
            -87 vlineto
            0 -112 -1 -176 -1 -32 -1 -15 -4 -6 -5 0 -8 0 -12 14 -5 6 -20 24 -342 429 -19 27 -7 9 -5 8 -12 0 -72 0 -4 3 -78 2 rrcurveto
            -7 -16 -2 -12 hvcurveto
            0 -12 25 -10 6 -2 59 -19 40 -23 0 -71 0 -165 -9 -160 -9 -75 -2 -13 -18 -63 -38 -7 -23 -4 -10 -5 0 -9 0 -8 12 -3 17 0 rrcurveto
            54 0 1 5 36 0 37 0 3 -5 54 0 17 0 12 3 0 8 0 9 -10 5 -23 4 -50 9 -14 35 0 36 0 123 3 153 2 99 rrcurveto
            8 2 13 7 vhcurveto
            5 0 6 -4 10 -12 23 -28 315 -385 18 -25 rrcurveto
            return
          </CharString>
          <CharString index="84">
            32 -44 37 -19 12 0 10 0 11 4 0 21 0 55 1 481 1 24 1 33 12 12 50 9 23 4 10 7 0 9 0 8 -12 3 -17 0 rrcurveto
            -61 0 -6 -3 -48 0 rrcurveto
            return
          </CharString>
          <CharString index="85">
            160 86 -130 -190 -171 -76 -109 -150 -148 -105 154 171 140 85 135 148 hvcurveto
            return
          </CharString>
          <CharString index="86">
            -190 160 -144 177 219 117 169 180 197 -154 132 -174 -224 -121 -163 -181 vhcurveto
            return
          </CharString>
          <CharString index="87">
            -118 -41 -61 -80 vhcurveto
            -27 0 -13 5 -6 0 rrcurveto
            -7 -9 -6 -5 -8 16 -11 29 153 75 105 123 108 -108 68 -149 hvcurveto
            -28 0 -43 -6 -40 0 rrcurveto
            return
          </CharString>
          <CharString index="88">
            -41 0 -3 1 -54 0 -17 0 -12 -3 0 -8 0 -9 10 -7 23 -4 50 -9 11 -31 0 -60 rrcurveto
            -422 vlineto
            0 -49 -23 -18 -50 -9 -23 -4 -10 -5 0 -9 0 -8 12 -3 17 0 54 0 25 7 51 0 38 0 6 -7 54 0 17 0 12 3 0 8 rrcurveto
            0 9 -10 5 -23 4 -50 9 -17 30 0 48 rrcurveto
            477 vlineto
            return
          </CharString>
          <CharString index="89">
            30 26 12 38 vhcurveto
            97 70 -50 -122 hvcurveto
            return
          </CharString>
          <CharString index="90">
            -77 -58 -71 -92 -33 -20 2 33 vhcurveto
            0 80 1 56 3 73 1 30 8 24 55 0 rrcurveto
            113 22 -69 -81 hvcurveto
            return
          </CharString>
          <CharString index="91">
            55 28 63 50 0 90 0 109 -79 55 -146 0 -58 0 -19 -5 -38 0 -41 0 -3 1 -54 0 -17 0 -12 -3 0 -8 0 -9 10 -7 23 -4 rrcurveto
            50 -9 11 -31 0 -60 rrcurveto
            -422 vlineto
            return
          </CharString>
          <CharString index="92">
            0 -49 -23 -18 -50 -9 -23 -4 -10 -5 0 -9 0 -8 12 -3 17 0 54 0 25 7 51 0 38 0 6 -7 54 0 17 0 12 3 0 8 rrcurveto
            0 9 -10 5 -23 4 -50 9 -17 34 0 43 rrcurveto
            172 vlineto
            0 12 4 9 11 -1 18 -2 32 -6 29 -14 20 -10 12 -11 11 -18 69 -112 34 -36 49 -60 rrcurveto
            return
          </CharString>
          <CharString index="93">
            35 -43 46 -11 57 0 rrcurveto
            25 56 6 29 8 -5 3 -10 hvcurveto
            -47 0 -33 2 -35 31 -94 85 -47 75 -62 94 -4 6 -1 5 5 2 rrcurveto
            return
          </CharString>
          <CharString index="94">
            -58 0 -54 25 -19 61 -10 32 -11 34 -9 0 -11 0 -10 -20 0 -9 0 -36 7 -56 11 -23 2 -5 6 -6 13 -6 17 -8 44 -16 73 0 rrcurveto
            150 58 96 80 hvcurveto
            0 102 -96 76 -57 37 -51 33 -82 51 0 64 0 67 53 41 62 0 56 0 46 -33 10 -58 3 -15 13 -13 19 0 5 0 2 10 0 15 rrcurveto
            0 31 -8 50 -1 3 -2 10 -6 13 -9 0 -10 0 -45 20 -64 0 -120 0 -81 -80 0 -87 0 -80 57 -52 70 -47 82 -55 70 -65 0 -66 rrcurveto
            -70 -40 -45 -75 vhcurveto
            return
          </CharString>
          <CharString index="95">
            455 vlineto
            0 18 2 23 14 2 18 2 65 2 52 0 64 0 23 -18 5 -28 5 -26 4 -15 10 0 10 0 6 20 0 12 rrcurveto
            12 vlineto
            0 26 7 36 9 37 0 2 1 4 0 3 0 10 -3 13 -4 0 -15 0 -15 -22 -20 -14 -10 -7 -19 -7 -29 0 rrcurveto
            -381 hlineto
            -28 0 -34 6 -8 14 -6 11 -14 21 -5 0 -5 0 -9 -1 -3 -22 -6 -42 -7 -31 -18 -38 -3 -6 -2 -8 0 -6 0 -7 2 -6 5 0 rrcurveto
            15 0 20 27 6 11 14 26 36 13 32 0 rrcurveto
            47 hlineto
            34 0 21 0 19 -4 16 -3 2 -22 0 -18 rrcurveto
            -455 vlineto
            0 -48 -28 -21 -50 -9 -23 -4 -10 -5 0 -9 0 -8 12 -3 17 0 54 0 24 5 50 0 46 0 17 -5 54 0 17 0 12 3 0 8 rrcurveto
            0 9 -10 5 -23 4 -50 9 -29 21 0 48 rrcurveto
            return
          </CharString>
          <CharString index="96">
            2 40 13 28 35 7 23 5 10 6 0 9 0 8 -12 3 -17 0 -23 0 -26 -3 -32 0 -29 0 -16 1 -30 0 -17 0 -12 -3 0 -8 rrcurveto
            0 -9 19 -7 14 -4 28 -8 12 -50 1 -51 rrcurveto
            return
          </CharString>
          <CharString index="97">
            2 -77 2 -94 0 -44 rrcurveto
            -156 -62 -104 -127 -121 -99 96 121 vhcurveto
            296 vlineto
            0 40 26 27 16 5 22 7 11 4 0 9 0 8 -12 3 -17 0 -21 0 -28 -2 -31 0 -37 0 -29 3 -30 0 -17 0 -12 -3 0 -8 rrcurveto
            0 -9 10 -7 23 -6 22 -6 24 -19 0 -48 rrcurveto
            -266 vlineto
            -194 85 -101 192 vhcurveto
            143 0 107 109 5 155 rrcurveto
            3 92 0 90 7 115 rrcurveto
            return
          </CharString>
          <CharString index="98">
            -38 0 -35 1 -26 0 -17 0 -12 -3 0 -8 0 -9 19 -7 14 -4 24 -7 43 -18 0 -16 0 -4 -6 -24 -2 -4 rrcurveto
            -141 -350 rlineto
            -8 -19 -5 -9 -5 0 -5 0 -6 9 -7 19 rrcurveto
            -127 336 rlineto
            -3 9 -6 30 0 8 0 18 33 17 30 6 23 4 10 7 0 9 0 8 -12 3 -17 0 -20 0 -42 -2 -40 0 -46 0 -45 3 -31 0 rrcurveto
            -17 -12 -3 -8 hvcurveto
            0 -9 11 -6 22 -7 34 -10 22 -26 14 -37 rrcurveto
            183 -491 rlineto
            10 -28 15 -43 5 0 14 0 24 81 5 13 rrcurveto
            188 456 rlineto
            15 36 34 40 49 11 23 5 10 6 0 9 0 8 -12 3 -17 0 -26 0 -49 -3 -39 0 rrcurveto
            return
          </CharString>
          <CharString index="99">
            -17 -12 -3 -8 hvcurveto
            0 -9 11 -6 22 -7 34 -10 44 -29 17 -43 rrcurveto
            57 -142 rlineto
            5 -13 3 -8 0 -8 0 -6 -2 -7 -4 -10 rrcurveto
            -78 -193 rlineto
            -4 -11 -4 -3 -7 15 -67 151 -36 86 -61 156 0 0 -8 22 0 21 0 15 4 14 16 4 23 6 10 5 0 9 0 8 -12 3 -17 0 rrcurveto
            -20 0 -36 -2 -37 0 -34 0 -24 3 -31 0 -17 0 -12 -3 0 -8 0 -9 11 -6 22 -7 34 -10 22 -22 16 -34 rrcurveto
            216 -542 rlineto
            5 -13 6 -15 3 0 8 0 9 17 5 14 42 118 24 64 48 113 5 13 2 2 4 -9 47 -117 23 -73 53 -119 4 -9 8 -10 5 0 rrcurveto
            6 0 16 42 10 28 rrcurveto
            161 476 rlineto
            11 29 22 48 49 11 23 5 10 6 0 9 0 8 -12 3 -17 0 -25 0 -32 -3 -33 0 -26 0 -20 1 -26 0 -17 0 -12 -3 0 -8 rrcurveto
            0 -9 19 -7 14 -4 22 -6 8 -17 0 -20 0 -11 -2 -13 -4 -12 -45 -153 -44 -146 -33 -88 -4 -9 -4 -4 -3 7 rrcurveto
            -103 265 rlineto
            -1 2 0 2 0 3 0 9 3 12 4 10 16 43 26 61 11 19 17 28 8 10 43 10 23 5 10 6 0 9 0 8 -12 3 -17 0 rrcurveto
            -24 0 -12 -3 -23 0 -19 0 -4 2 -29 0 -17 0 -12 -3 0 -8 0 -17 37 -2 0 -24 0 -2 0 -2 -1 -3 -5 -17 -19 -60 -16 -36 rrcurveto
            -4 -9 -3 -4 -2 0 -3 0 -2 4 -4 9 -9 19 -32 82 -4 12 -1 3 -1 2 0 3 0 23 41 2 0 17 0 8 -12 3 -17 0 rrcurveto
            -20 0 -27 -2 -30 0 -36 0 -27 3 -31 0 rrcurveto
            return
          </CharString>
          <CharString index="100">
            -30 0 -27 1 -24 0 -17 0 -12 -3 0 -8 0 -9 19 -8 14 -3 32 -6 13 -10 0 -15 0 -13 -10 -18 -16 -20 rrcurveto
            -107 -141 rlineto
            -6 -8 -4 -4 -4 0 -4 0 -5 5 -7 10 rrcurveto
            -91 128 rlineto
            -23 32 -10 18 0 12 0 16 18 5 33 10 23 7 10 4 0 9 0 8 -12 3 -17 0 -18 0 -41 -2 -40 0 -50 0 -60 5 -33 0 rrcurveto
            -17 -12 -3 -8 hvcurveto
            0 -9 11 -6 22 -7 34 -10 32 -13 50 -70 rrcurveto
            145 -204 rlineto
            2 -2 0 -3 0 -3 0 -9 -7 -13 -11 -15 rrcurveto
            -125 -156 rlineto
            -42 -52 -67 -34 -34 -10 -22 -7 -11 -6 0 -9 0 -8 12 -3 17 0 33 0 48 6 45 0 36 0 35 -2 18 0 17 0 12 3 0 8 rrcurveto
            0 9 -10 5 -23 6 -27 6 -18 15 0 19 0 7 3 8 6 8 rrcurveto
            135 174 rlineto
            7 9 5 0 10 -14 rrcurveto
            104 -151 rlineto
            9 -12 3 -11 0 -10 0 -25 -24 -16 -20 -6 -14 -4 -19 -7 0 -9 0 -8 12 -3 17 0 24 0 38 1 41 0 47 0 68 -6 28 0 rrcurveto
            17 12 3 8 hvcurveto
            0 9 -10 5 -23 6 -38 10 -39 31 -30 44 rrcurveto
            -155 223 rlineto
            -2 4 -2 3 0 3 0 8 7 9 11 13 rrcurveto
            115 136 rlineto
            44 52 48 53 38 10 23 6 10 5 0 9 0 8 -12 3 -17 0 -27 0 -48 -6 -39 0 rrcurveto
            return
          </CharString>
          <CharString index="101">
            0 -48 -28 -27 -50 -9 -23 -4 -10 -5 0 -9 0 -8 12 -3 17 0 54 0 24 5 50 0 46 0 17 -5 54 0 17 0 12 3 0 8 rrcurveto
            0 9 -10 5 -23 4 -50 9 -29 30 0 45 rrcurveto
            148 vlineto
            0 39 0 8 25 43 46 79 11 18 54 83 36 55 17 26 35 10 28 8 25 8 0 9 0 8 -12 3 -17 0 -23 0 -40 -3 -41 0 rrcurveto
            -29 0 -16 1 -30 0 -17 0 -12 -3 0 -8 0 -9 19 -9 14 -2 19 -3 22 -7 0 -25 0 -12 -5 -17 -13 -22 -34 -60 -19 -32 -31 -47 rrcurveto
            -18 -28 -7 -10 -8 0 -6 0 -7 12 -15 26 rrcurveto
            -92 165 rlineto
            -9 16 -4 12 0 8 0 15 13 5 19 5 22 5 11 6 0 9 0 8 -12 3 -17 0 -21 0 -28 -2 -31 0 -46 0 -41 3 -30 0 rrcurveto
            -17 -12 -3 -8 hvcurveto
            0 -9 11 -6 22 -7 34 -10 40 -64 15 -24 rrcurveto
            117 -192 rlineto
            5 -9 20 -38 0 -27 rrcurveto
            return
          </CharString>
          <CharString index="102">
            89 0 99 -3 114 0 10 0 4 9 4 8 11 24 26 103 0 11 0 9 -3 4 -6 0 -10 0 -9 -13 -3 -8 -28 -66 -48 -31 -48 -4 rrcurveto
            -47 -3 -49 -2 -45 0 -44 0 -40 2 -29 3 -7 1 -4 8 0 8 0 4 1 5 2 3 124 192 76 102 138 186 rrcurveto
            61 81 rlineto
            4 5 -9 13 -6 0 -74 -2 -74 -1 -83 0 -45 0 -48 0 -52 1 -29 0 -36 2 -8 6 -10 8 -10 6 -5 0 -5 0 -9 -2 -1 -15 rrcurveto
            -4 -42 -16 -48 -7 -21 -3 -8 -4 -11 0 -8 0 -6 3 -5 6 0 15 0 8 20 5 12 18 49 42 18 32 2 25 2 38 0 39 0 rrcurveto
            53 0 57 -1 36 -1 15 -1 4 -3 0 -4 0 -3 -2 -2 -2 -3 -127 -193 -79 -105 -136 -186 -23 -31 -35 -52 0 -10 rrcurveto
            0 1 -14 6 vhcurveto
            77 hlineto
            38 0 41 1 40 0 rrcurveto
            return
          </CharString>
          <CharString index="103">
            -32 -6 0 -34 hvcurveto
            -843 vlineto
            -24 8 -1 23 vhcurveto
            164 hlineto
            12 14 3 12 hvcurveto
            0 12 -13 4 -13 2 rrcurveto
            -112 13 rlineto
            -18 2 -17 20 0 27 rrcurveto
            729 vlineto
            19 24 24 15 vhcurveto
            108 6 rlineto
            13 1 13 4 0 10 rrcurveto
            10 -9 3 -9 vhcurveto
            return
          </CharString>
          <CharString index="104">
            -297 695 rlineto
            -7 15 -15 2 -17 0 -7 0 -7 -6 0 -7 0 -1 1 -2 0 -1 rrcurveto
            297 -695 rlineto
            6 -14 15 -1 15 0 8 0 9 5 0 7 0 1 -1 1 0 1 rrcurveto
            return
          </CharString>
          <CharString index="105">
            -165 -1 rlineto
            -9 -9 -3 -10 hvcurveto
            0 -10 13 -4 13 -1 rrcurveto
            108 -6 rlineto
            15 24 -24 -19 hvcurveto
            -729 vlineto
            0 -27 -17 -20 -18 -2 rrcurveto
            -112 -13 rlineto
            -13 -2 -13 -4 0 -12 rrcurveto
            -12 14 -3 12 vhcurveto
            164 hlineto
            23 8 1 24 hvcurveto
            843 vlineto
            34 -6 0 -32 vhcurveto
            return
          </CharString>
          <CharString index="106">
            -28 -39 -133 -195 -38 -64 -2 -3 -1 -4 0 -3 rrcurveto
            -6 4 -5 5 vhcurveto
            2 hlineto
            12 3 18 8 7 7 27 30 91 138 30 44 4 6 1 0 5 -6 30 -44 84 -129 36 -39 6 -7 19 -8 12 -3 rrcurveto
            2 hlineto
            5 4 5 6 hvcurveto
            0 3 -1 4 -2 3 -41 70 -132 191 -26 37 rrcurveto
            return
          </CharString>
          <CharString index="107">
            -18 -6 -29 -9 -6 7 -6 7 hvcurveto
            455 hlineto
            19 0 6 19 6 17 0 1 1 1 0 1 rrcurveto
            6 -8 5 -6 vhcurveto
            return
          </CharString>
          <CharString index="108">
            0 -19 58 -35 80 -111 5 -7 13 -15 9 0 9 0 4 4 0 9 0 15 -72 126 -21 34 -11 18 -17 9 -22 0 -18 0 -17 -14 0 -14 rrcurveto
            return
          </CharString>
          <CharString index="109">
            0 23 23 30 77 26 5 2 6 1 3 0 8 0 2 -6 -1 -15 rrcurveto
            -2 -49 rlineto
            -1 -25 -4 -9 -7 -6 -16 -14 -18 -13 -26 0 -19 0 -30 17 0 38 rrcurveto
            return
          </CharString>
          <CharString index="110">
            -27 -9 34 37 hvcurveto
            0 6 5 216 rlineto
            1 49 -36 40 -47 0 -53 0 -65 -43 -31 -28 -25 -22 -15 -26 0 -21 rrcurveto
            -3 2 -6 6 13 56 21 14 vhcurveto
            0 5 -1 4 0 5 0 7 1 7 3 5 8 14 29 18 24 0 rrcurveto
            36 23 -30 -34 hvcurveto
            0 -2 -2 -62 rlineto
            -1 -27 -1 -2 -26 -11 rrcurveto
            -102 -42 rlineto
            -49 -20 -24 -28 0 -42 0 -39 45 -40 41 0 82 1 28 51 13 0 8 0 9 -52 57 0 38 0 39 42 2 6 0 1 1 1 0 1 rrcurveto
            0 8 -10 7 -6 -6 -11 -10 -11 -4 -18 0 rrcurveto
            return
          </CharString>
          <CharString index="111">
            0 -53 -7 -41 0 -2 0 -6 8 -6 8 0 5 0 12 18 12 0 rrcurveto
            return
          </CharString>
          <CharString index="112">
            14 0 70 -29 62 0 rrcurveto
            151 70 114 117 108 -76 89 -104 hvcurveto
            -34 0 -62 -17 -50 -42 -9 1 0 11 0 21 rrcurveto
            205 vlineto
            0 56 3 44 0 5 0 3 -3 4 -3 0 -1 0 0 -1 -1 0 -32 -12 -30 -16 -51 -12 -4 -1 -3 -5 0 -6 0 -6 3 -6 5 -1 rrcurveto
            33 -7 14 -31 0 -35 rrcurveto
            return
          </CharString>
          <CharString index="113">
            -70 -67 45 70 hvcurveto
            121 vlineto
            0 53 7 17 14 15 22 24 49 11 28 0 rrcurveto
            95 45 -101 -77 -101 -47 -77 -76 hvcurveto
            return
          </CharString>
          <CharString index="114">
            10 28 17 17 hvcurveto
            0 4 -2 4 -3 4 -30 37 -47 11 -43 0 rrcurveto
            -123 -88 -110 -123 -103 70 -91 101 86 80 56 37 7 -6 7 -6 hvcurveto
            -3 0 -3 -2 -3 -3 -26 -34 -20 -16 -42 0 rrcurveto
            -96 -63 92 96 73 37 77 73 hvcurveto
            50 0 11 -11 33 -36 5 -5 11 -5 9 0 rrcurveto
            return
          </CharString>
          <CharString index="115">
            -6 7 -44 14 -28 0 rrcurveto
            -140 -85 -108 -116 -101 71 -103 114 hvcurveto
            66 0 45 40 20 31 rrcurveto
            -6 vlineto
            0 -17 -5 -36 0 -13 0 -3 -1 -1 4 0 6 0 14 4 4 2 rrcurveto
            return
          </CharString>
          <CharString index="116">
            29 12 36 15 52 7 5 0 9 3 0 11 0 12 -10 2 -5 -1 -10 -2 -26 -1 -10 0 rrcurveto
            -16 -5 23 42 hvcurveto
            452 vlineto
            0 90 7 34 0 12 -1 4 -2 2 -4 0 -14 0 -35 -23 -73 -17 -5 -1 -2 -6 0 -5 0 -6 3 -6 5 -1 34 -7 17 -12 0 -54 rrcurveto
            -158 vlineto
            -18 -1 -6 -3 vhcurveto
            -2 0 -4 4 -4 5 rrcurveto
            return
          </CharString>
          <CharString index="117">
            78 45 -68 -56 hvcurveto
            -135 vlineto
            return
          </CharString>
          <CharString index="118">
            -48 -39 -41 -56 -44 -104 31 151 134 81 32 39 vhcurveto
            return
          </CharString>
          <CharString index="119">
            -113 -86 -98 -113 -133 77 -84 91 hvcurveto
            92 0 54 56 10 35 2 8 -1 12 -7 0 -3 0 -5 -4 -3 -3 -26 -34 -43 -10 -25 0 rrcurveto
            -90 -61 84 90 34 9 3 16 hvcurveto
            164 hlineto
            22 0 20 4 14 7 rrcurveto
            return
          </CharString>
          <CharString index="120">
            14 7 7 15 0 33 rrcurveto
            53 -48 38 -81 vhcurveto
            return
          </CharString>
          <CharString index="121">
            39 43 -22 -40 hvcurveto
            0 -11 -3 -16 -7 -1 -21 -4 -23 -1 -29 0 rrcurveto
            -82 hlineto
            -14 -5 7 8 26 46 54 56 hvcurveto
            return
          </CharString>
          <CharString index="122">
            18 16 18 22 52 -61 8 -49 -87 -133 -73 -231 hvcurveto
            -20 -10 -9 -8 -30 -8 -2 -1 -5 -2 0 -3 0 -7 10 -10 4 -1 21 -2 18 0 13 0 rrcurveto
            -282 vlineto
            0 -27 -23 -11 -20 -6 -11 -4 -12 -4 0 -10 0 -8 12 -1 8 0 40 0 8 5 35 0 35 0 6 -5 40 0 8 0 12 1 0 8 rrcurveto
            0 10 -12 4 -11 4 -20 6 -22 11 -1 27 rrcurveto
            267 vlineto
            return
          </CharString>
          <CharString index="123">
            10 4 7 36 vhcurveto
            94 hlineto
            7 6 23 14 6 -1 5 -3 hvcurveto
            -118 hlineto
            -13 -12 4 18 hvcurveto
            53 vlineto
            135 44 55 62 vhcurveto
            77 0 14 -59 27 0 rrcurveto
            return
          </CharString>
          <CharString index="124">
            0 16 7 18 17 20 13 13 25 25 12 8 6 2 10 -2 7 0 23 -1 50 -4 25 -5 33 -7 47 -21 0 -37 rrcurveto
            -83 -70 -58 -78 vhcurveto
            -79 -48 50 66 hvcurveto
            return
          </CharString>
          <CharString index="125">
            56 39 -61 -60 -65 -38 -59 -50 -57 -37 67 62 48 30 68 57 hvcurveto
            return
          </CharString>
          <CharString index="126">
            0 15 0 20 4 11 14 2 -14 6 57 0 6 0 3 8 0 9 0 9 -3 9 -6 1 -9 1 -6 0 -6 0 -11 0 -7 -1 -14 0 rrcurveto
            -20 0 -13 2 -20 4 -42 8 -22 17 -43 0 -87 0 -91 -58 0 -100 0 -85 79 -44 8 -2 -15 -23 -25 -9 -19 -14 rrcurveto
            return
          </CharString>
          <CharString index="127">
            -14 -11 -9 -11 0 -15 0 -47 56 -21 34 -7 -15 -24 -27 -17 -28 -18 rrcurveto
            return
          </CharString>
          <CharString index="128">
            -17 -10 -32 -29 0 -47 rrcurveto
            -88 100 -26 84 101 122 103 110 vhcurveto
            0 84 -96 9 -127 12 rrcurveto
            return
          </CharString>
          <CharString index="129">
            -32 3 -64 10 0 28 0 13 23 20 21 16 18 -10 14 -2 22 0 99 0 69 92 0 97 rrcurveto
            return
          </CharString>
          <CharString index="130">
            210 vlineto
            78 -49 58 -65 vhcurveto
            -63 0 -57 -40 -31 -23 -5 6 -3 19 0 12 rrcurveto
            174 vlineto
            0 107 9 17 0 12 -2 3 -1 4 -4 0 0 0 -1 -1 -1 0 -32 -12 -33 -16 -51 -12 -4 -1 -3 -5 0 -6 0 -6 3 -6 5 -1 rrcurveto
            34 -7 11 -30 0 -36 rrcurveto
            -501 vlineto
            -1 -27 -22 -8 -20 -6 -11 -4 -12 -4 0 -10 0 -8 13 -1 7 0 40 0 6 5 35 0 35 0 1 -5 40 0 8 0 12 1 0 8 rrcurveto
            0 10 -12 4 -11 4 -20 6 -17 8 -1 27 rrcurveto
            203 vlineto
            0 41 6 14 21 17 19 15 39 7 25 0 rrcurveto
            43 50 -40 -50 hvcurveto
            -204 vlineto
            0 -27 -19 -11 -20 -6 -11 -4 -12 -4 0 -10 0 -8 12 -1 8 0 40 0 3 5 35 0 35 0 3 -5 40 0 8 0 12 1 0 8 rrcurveto
            0 10 -12 4 -11 4 -20 6 -21 11 0 27 rrcurveto
            return
          </CharString>
          <CharString index="131">
            -28 22 -22 28 29 22 22 28 29 -22 22 -29 vhcurveto
            -28 -22 -22 -29 hvcurveto
            return
          </CharString>
          <CharString index="132">
            -8 0 -45 -41 -67 -16 -4 -1 -3 -6 0 -5 0 -6 3 -6 5 -1 34 -7 13 -30 0 -36 rrcurveto
            -217 vlineto
            0 -27 -23 -5 -20 -6 -11 -4 -12 -4 0 -10 0 -8 12 -1 8 0 39 0 7 5 35 0 35 0 8 -5 38 0 9 0 11 1 0 8 rrcurveto
            0 10 -12 4 -11 4 -20 6 -23 5 0 27 rrcurveto
            232 vlineto
            0 45 5 49 4 41 0 3 -3 2 -4 0 rrcurveto
            return
          </CharString>
          <CharString index="133">
            0 45 3 68 4 41 0 3 -3 2 -4 0 -8 0 -45 -41 -67 -16 -4 -1 -3 -6 0 -5 0 -6 3 -6 5 -1 34 -7 12 -30 0 -36 rrcurveto
            -210 vlineto
            0 -69 0 -136 -29 -61 -19 -40 -23 -17 -24 -6 -2 -1 -9 -8 0 -8 0 -7 14 -3 7 0 40 0 63 67 25 68 29 80 1 101 0 62 rrcurveto
            return
          </CharString>
          <CharString index="134">
            -10 18 1 5 vhcurveto
            63 0 67 -5 52 0 7 0 13 1 0 8 0 10 -12 4 -11 4 -20 6 -40 21 -22 21 -21 19 -74 78 -52 63 -4 4 2 9 5 4 rrcurveto
            48 42 67 56 13 8 18 11 27 15 25 5 9 2 11 11 0 8 0 4 -5 3 -3 0 rrcurveto
            return
          </CharString>
          <CharString index="135">
            -27 -3 -33 -9 -36 0 rrcurveto
            -49 hlineto
            -4 -18 -2 -12 hvcurveto
            0 -3 9 -4 3 -1 14 -3 12 -7 0 -7 0 -1 0 -1 -1 -1 -11 -16 -49 -50 -54 -47 -15 -13 -11 -6 -9 -2 -4 -1 -2 1 0 7 rrcurveto
            331 vlineto
            0 85 9 35 0 14 0 4 -3 5 -3 0 -1 0 0 -1 -1 0 -32 -12 -35 -16 -51 -12 -4 -1 -3 -5 0 -6 0 -6 3 -6 5 -1 rrcurveto
            33 -7 13 -19 0 -47 rrcurveto
            -501 vlineto
            0 -27 -23 -8 -20 -6 -11 -4 -12 -4 0 -10 0 -10 18 1 5 0 39 0 4 5 35 0 35 0 -4 -5 39 0 5 0 18 -1 0 10 rrcurveto
            0 10 -12 4 -11 4 -20 6 -15 8 0 27 -1 23 0 24 0 23 0 23 0 22 1 19 0 8 7 1 3 -3 rrcurveto
            126 -145 rlineto
            4 -5 3 -5 0 -4 rrcurveto
            0 -20 -44 4 0 -21 rrcurveto
            return
          </CharString>
          <CharString index="136">
            500 vlineto
            0 90 7 34 0 12 0 3 -3 4 -3 0 -1 0 0 -1 -1 0 -32 -12 -33 -16 -51 -12 -4 -1 -3 -5 0 -6 0 -6 3 -6 5 -1 rrcurveto
            33 -7 13 -27 0 -39 rrcurveto
            -504 vlineto
            0 -27 -23 -5 -20 -6 -11 -4 -12 -4 0 -10 0 -8 13 -1 7 0 39 0 7 5 35 0 35 0 7 -5 39 0 7 0 13 1 0 8 rrcurveto
            0 10 -12 4 -11 4 -20 6 -23 5 0 27 rrcurveto
            return
          </CharString>
          <CharString index="137">
            213 vlineto
            70 -35 69 -65 vhcurveto
            -63 0 -58 -29 -23 -27 -9 -10 -6 -5 -4 0 -4 0 -3 4 -3 7 -16 42 -29 18 -48 0 -79 0 -52 -42 -27 -25 -1 1 -1 5 0 6 rrcurveto
            0 19 5 36 0 9 rrcurveto
            return
          </CharString>
          <CharString index="138">
            -2 3 -2 4 -3 0 -34 -23 -25 -21 -52 -12 -4 -1 -3 -5 0 -6 0 -6 3 -6 5 -1 34 -7 5 -29 0 -36 rrcurveto
            -215 vlineto
            -1 -27 -22 -5 -20 -6 -11 -4 -12 -4 0 -10 0 -8 12 -1 8 0 40 0 6 5 35 0 35 0 6 -5 40 0 8 0 12 1 0 8 rrcurveto
            0 10 -12 4 -11 4 -20 6 -22 5 -1 27 rrcurveto
            206 vlineto
            0 41 15 22 12 9 rrcurveto
            return
          </CharString>
          <CharString index="139">
            25 20 28 7 34 0 rrcurveto
            43 37 -47 -48 hvcurveto
            -210 vlineto
            0 -27 -24 -5 -20 -6 -11 -4 -12 -4 0 -10 0 -8 13 -1 7 0 40 0 8 5 35 0 35 0 7 -5 40 0 8 0 12 1 0 8 rrcurveto
            0 10 -12 4 -11 4 -20 6 -25 5 0 27 rrcurveto
            206 vlineto
            0 40 16 23 12 9 25 20 28 7 34 0 rrcurveto
            43 37 -47 -48 hvcurveto
            -210 vlineto
            0 -27 -23 -5 -20 -6 -11 -4 -12 -4 0 -10 0 -8 13 -1 7 0 40 0 8 5 35 0 35 0 4 -5 40 0 7 0 13 1 0 8 rrcurveto
            0 10 -12 4 -11 4 rrcurveto
            -20 6 -23 5 0 27 rrcurveto
            return
          </CharString>
          <CharString index="140">
            53 37 -35 -58 hvcurveto
            -210 vlineto
            0 -27 -23 -5 -20 -6 -11 -4 -12 -4 0 -10 0 -8 13 -1 7 0 40 0 7 5 35 0 35 0 5 -5 40 0 8 0 12 1 0 8 rrcurveto
            0 10 -12 4 -11 4 -20 6 -23 5 0 27 rrcurveto
            213 vlineto
            78 -48 61 -65 vhcurveto
            -63 0 -73 -42 -29 -24 -1 1 0 3 0 4 0 17 7 38 0 10 rrcurveto
            return
          </CharString>
          <CharString index="141">
            -1 3 -3 6 -3 0 -1 0 0 0 -1 -1 -23 -17 -35 -26 -52 -12 rrcurveto
            return
          </CharString>
          <CharString index="142">
            -5 -1 -2 -6 0 -5 0 -6 3 -6 5 -1 rrcurveto
            return
          </CharString>
          <CharString index="143">
            34 -7 7 -29 0 -36 rrcurveto
            -215 vlineto
            -1 -27 -22 -5 -20 -6 -11 -4 -12 -4 0 -10 0 -8 12 -1 8 0 40 0 6 5 35 0 35 0 6 -5 40 0 8 0 12 1 0 8 rrcurveto
            0 10 -12 4 -11 4 -20 6 -23 5 0 27 rrcurveto
            206 vlineto
            79 52 18 67 vhcurveto
            return
          </CharString>
          <CharString index="144">
            85 56 -99 -95 hvcurveto
            0 -39 -4 -48 -16 -31 -20 -39 -38 -16 -45 0 -80 0 -58 95 0 99 0 48 5 51 27 34 24 31 28 9 36 0 rrcurveto
            return
          </CharString>
          <CharString index="145">
            -123 -96 -116 -111 -117 87 -84 112 150 76 110 117 108 -90 93 -116 hvcurveto
            return
          </CharString>
          <CharString index="146">
            0 -27 -23 -5 -20 -6 -11 -4 -12 -4 0 -10 0 -8 14 -1 7 0 39 0 6 5 35 0 35 0 20 -5 39 0 8 0 14 1 0 8 rrcurveto
            0 10 -12 4 -11 4 -20 6 -38 5 0 27 rrcurveto
            187 vlineto
            6 1 45 3 vhcurveto
            20 -18 52 -14 28 0 rrcurveto
            126 99 120 119 94 -61 95 -103 hvcurveto
            -63 0 -80 -47 -19 -19 -1 1 0 4 0 4 0 16 5 32 0 12 rrcurveto
            return
          </CharString>
          <CharString index="147">
            4 -3 5 -3 vhcurveto
            -1 0 0 -1 -1 0 -32 -13 -33 -15 -51 -12 -4 -1 -3 -5 0 -6 0 -6 3 -6 5 -1 33 -7 13 -51 0 -15 rrcurveto
            return
          </CharString>
          <CharString index="148">
            -44 0 -34 11 -15 14 -19 18 -4 37 -1 18 -1 21 -1 35 0 34 0 24 1 23 0 17 2 41 9 19 15 11 rrcurveto
            return
          </CharString>
          <CharString index="149">
            25 19 27 10 34 0 rrcurveto
            43 93 -22 -154 -134 -91 -42 -39 hvcurveto
            return
          </CharString>
          <CharString index="150">
            -5 0 -55 22 -68 0 rrcurveto
            -147 -100 -95 -141 -124 96 -68 104 hvcurveto
            63 0 47 19 17 15 3 3 3 2 3 0 rrcurveto
            4 2 -7 -23 hvcurveto
            -215 vlineto
            0 -27 -23 -5 -20 -6 -11 -4 -12 -4 0 -10 0 -8 13 -1 7 0 40 0 6 5 35 0 36 0 14 -5 40 0 8 0 12 1 0 8 rrcurveto
            0 10 -12 4 -11 4 -20 6 -32 5 0 27 rrcurveto
            515 vlineto
            0 25 3 50 8 34 rrcurveto
            return
          </CharString>
          <CharString index="151">
            1 7 rlineto
            5 -10 5 -6 vhcurveto
            -3 0 -3 -3 -1 -1 rrcurveto
            -7 -15 -5 -10 -14 0 rrcurveto
            return
          </CharString>
          <CharString index="152">
            66 0 52 -47 2 -60 1 -25 0 -43 0 -36 0 -47 0 -63 -20 -14 -25 -19 -27 -4 -34 0 rrcurveto
            -60 -95 48 133 hvcurveto
            115 68 62 72 vhcurveto
            return
          </CharString>
          <CharString index="153">
            67 38 17 32 vhcurveto
            20 0 23 -18 17 0 rrcurveto
            20 19 32 20 18 -20 14 -28 hvcurveto
            -24 0 -37 -15 -31 -28 -7 -6 -13 -19 -4 0 rrcurveto
            return
          </CharString>
          <CharString index="154">
            -1 0 0 2 hvcurveto
            2 32 1 36 0 7 -1 3 -2 4 -3 0 -1 0 0 -1 -1 0 rrcurveto
            return
          </CharString>
          <CharString index="155">
            -27 -16 -33 -27 -51 -12 -4 -1 -3 -5 0 -6 0 -6 3 -6 5 -1 rrcurveto
            return
          </CharString>
          <CharString index="156">
            33 -7 8 -29 0 -36 rrcurveto
            -215 vlineto
            -1 -27 -17 -5 -20 -6 -11 -4 -12 -4 0 -10 0 -8 13 -1 7 0 40 0 6 5 35 0 35 0 12 -5 40 0 7 0 13 1 0 8 rrcurveto
            0 10 -12 4 -11 4 -20 6 -33 10 -1 27 rrcurveto
            return
          </CharString>
          <CharString index="157">
            33 0 29 -30 1 -28 rrcurveto
            -9 24 -12 10 4 2 1 3 vhcurveto
            0 28 -5 35 -12 15 -10 10 -25 13 -40 0 -98 0 -36 -61 0 -57 0 -49 48 -39 48 -34 rrcurveto
            return
          </CharString>
          <CharString index="158">
            44 -31 32 -24 0 -36 0 -40 -22 -30 -48 0 -41 0 -45 38 -7 34 -1 5 -7 2 -7 0 -8 0 -9 -3 0 -6 1 -23 5 -24 7 -14 rrcurveto
            6 -13 46 -23 54 0 111 0 33 51 0 69 0 66 -65 40 -30 19 rrcurveto
            return
          </CharString>
          <CharString index="159">
            -32 20 -53 31 0 40 rrcurveto
            40 25 26 38 vhcurveto
            return
          </CharString>
          <CharString index="160">
            61 56 50 11 hvcurveto
            0 8 -4 9 -6 -4 -16 -12 -20 -7 -39 0 rrcurveto
            -31 -35 20 74 hvcurveto
            189 vlineto
            27 6 1 34 vhcurveto
            99 hlineto
            5 5 12 12 12 -5 12 -5 hvcurveto
            -114 hlineto
            -13 -11 5 9 hvcurveto
            2 44 rlineto
            9 -8 1 -6 vhcurveto
            return
          </CharString>
          <CharString index="161">
            -10 0 -41 -74 -53 -15 -2 -1 -3 -3 0 -3 rrcurveto
            -7 8 -13 4 31 7 -3 -12 vhcurveto
            -232 vlineto
            -83 42 -36 62 vhcurveto
            return
          </CharString>
          <CharString index="162">
            -36 -10 8 -3 -101 -5 rrcurveto
            -4 -19 -3 -12 -14 18 -3 5 hvcurveto
            20 -1 45 -8 0 -41 rrcurveto
            -183 vlineto
            0 -41 -30 -23 -15 -11 -25 -19 -25 -1 -34 0 rrcurveto
            -43 -41 43 48 hvcurveto
            195 vlineto
            0 30 2 16 4 31 1 10 -5 5 -10 -1 -39 -9 -10 -6 -54 -2 -5 -1 -10 -3 0 -13 0 -10 10 -4 3 -1 30 -12 13 -16 0 -29 rrcurveto
            -203 vlineto
            -78 49 -41 65 vhcurveto
            62 0 51 20 52 51 rrcurveto
            -6 vlineto
            0 -17 -5 -36 0 -13 0 -3 -1 -1 4 0 6 0 14 4 4 2 rrcurveto
            return
          </CharString>
          <CharString index="163">
            29 12 36 15 52 7 5 0 9 3 0 11 0 12 -10 2 -5 -1 -10 -2 -26 -1 -10 0 rrcurveto
            -16 -2 28 41 hvcurveto
            212 vlineto
            0 16 4 48 4 7 rrcurveto
            return
          </CharString>
          <CharString index="164">
            5 8 -8 10 -9 0 rrcurveto
            return
          </CharString>
          <CharString index="165">
            14 -4 11 -18 0 -25 0 -11 -2 -12 -5 -13 rrcurveto
            -72 -185 rlineto
            -5 -14 -2 1 -5 14 rrcurveto
            -74 199 rlineto
            -3 8 -1 10 0 9 0 19 6 18 14 4 11 4 12 4 0 10 0 8 -13 1 -7 0 -39 0 -1 -5 -35 0 -35 0 1 5 -39 0 rrcurveto
            -7 -13 -1 -8 hvcurveto
            0 -10 12 -4 11 -4 20 -6 16 -19 10 -24 rrcurveto
            122 -312 rlineto
            3 -9 12 -30 5 0 5 0 22 45 0 0 0 0 32 89 5 11 rrcurveto
            78 188 rlineto
            14 33 28 28 20 6 11 4 12 4 0 10 0 8 -13 1 -7 0 -19 0 -5 -5 -35 0 -35 0 -23 5 -15 0 -7 0 -13 -1 0 -8 rrcurveto
            0 -10 12 -4 11 -4 rrcurveto
            return
          </CharString>
          <CharString index="166">
            13 30 20 30 20 6 11 4 12 4 0 10 0 8 -12 1 -8 0 -22 0 1 -5 -37 0 -36 0 -10 5 -29 0 -7 0 -13 -1 0 -8 rrcurveto
            0 -10 12 -4 11 -4 15 -5 20 -18 0 -29 0 -9 -2 -11 -5 -11 rrcurveto
            -76 -177 rlineto
            -6 -14 -4 1 -6 14 rrcurveto
            -75 193 rlineto
            -5 12 -2 10 0 8 0 24 19 7 15 5 11 4 12 4 0 10 0 8 -13 1 -7 0 -22 0 -25 -5 -37 0 -37 0 -20 5 -18 0 rrcurveto
            -8 -12 -1 -8 hvcurveto
            0 -10 12 -5 11 -3 21 -6 29 -27 0 -37 0 -9 -2 -10 -4 -11 rrcurveto
            -66 -161 rlineto
            -6 -14 -4 -1 -5 14 rrcurveto
            -76 196 rlineto
            -3 8 -2 9 0 9 0 19 7 17 14 4 11 4 12 4 0 10 rrcurveto
            8 -15 1 -5 -7 -76 -5 0 0 -67 5 -6 -7 -13 -1 -8 vhcurveto
            0 -10 12 -4 11 -4 20 -6 22 -17 10 -26 rrcurveto
            139 -345 rlineto
            1 -4 3 -3 3 0 3 0 3 3 2 4 rrcurveto
            109 257 rlineto
            6 14 3 -3 4 -10 rrcurveto
            104 -258 rlineto
            2 -4 3 -3 3 0 4 0 3 3 2 4 rrcurveto
            return
          </CharString>
          <CharString index="167">
            -10 18 1 5 vhcurveto
            23 0 26 1 24 0 50 0 -7 -4 41 0 8 0 12 1 0 8 0 11 -12 4 -11 3 -20 6 -10 10 -16 26 rrcurveto
            -97 161 rlineto
            -3 4 0 6 2 3 rrcurveto
            65 92 rlineto
            19 27 32 14 20 6 11 4 12 4 0 10 0 8 -12 1 -8 0 -17 0 -9 -5 -37 0 -16 0 -24 3 -10 0 -5 0 -18 1 0 -10 rrcurveto
            0 -10 12 -4 11 -4 10 -3 3 -6 0 -7 0 -7 -3 -8 -5 -7 rrcurveto
            -49 -75 rlineto
            -2 -3 -1 0 -5 8 rrcurveto
            -40 62 rlineto
            -8 13 -5 12 0 7 0 20 39 -6 0 17 0 10 -18 -1 -5 0 -23 0 -4 -2 -24 0 -49 0 9 4 -39 0 -5 0 -18 1 0 -10 rrcurveto
            0 -11 12 -4 11 -3 20 -6 10 -10 16 -26 rrcurveto
            81 -126 rlineto
            5 -8 2 -4 -9 -11 rrcurveto
            -85 -106 rlineto
            -31 -37 -16 -14 -20 -6 -11 -3 -12 -4 0 -11 0 -8 12 -1 8 0 18 0 12 5 37 0 16 0 26 -2 11 0 5 0 18 -1 0 10 rrcurveto
            0 10 -12 4 -11 4 -10 3 -4 10 0 9 0 8 3 8 2 3 rrcurveto
            67 98 rlineto
            2 3 3 -1 3 -5 rrcurveto
            54 -92 rlineto
            4 -7 2 -6 0 -5 0 -28 -56 8 0 -24 rrcurveto
            return
          </CharString>
          <CharString index="168">
            -22 27 -14 24 vhcurveto
            29 0 24 14 12 27 41 96 51 126 4 9 rrcurveto
            136 324 rlineto
            13 32 26 29 20 6 11 4 12 4 0 10 0 8 -13 1 -7 0 -22 0 0 -5 -37 0 -37 0 -16 5 -18 0 -7 0 -13 -3 0 -8 rrcurveto
            0 -10 18 -9 11 -5 12 -5 8 -8 0 -25 0 -10 -4 -18 -4 -9 rrcurveto
            -67 -178 rlineto
            -5 -14 -4 -1 -6 14 rrcurveto
            -79 196 rlineto
            -3 7 -5 13 0 8 0 19 6 9 14 4 11 3 18 9 0 10 0 8 -12 3 -8 0 -40 0 -1 -5 -35 0 -35 0 2 5 -40 0 rrcurveto
            -7 -13 -1 -8 hvcurveto
            0 -10 12 -4 11 -4 20 -6 15 -19 10 -24 rrcurveto
            116 -293 rlineto
            3 -8 1 -10 0 -11 0 -9 -1 -8 -2 -6 -29 -77 -41 -85 -21 -36 -5 -8 -6 -3 -8 0 -11 0 -14 6 -15 0 rrcurveto
            -20 -7 -14 -16 hvcurveto
            return
          </CharString>
          <CharString index="169">
            -117 hlineto
            -6 0 -11 7 5 8 rrcurveto
            193 293 rlineto
            14 20 10 13 14 17 3 4 -5 8 -5 0 -61 -2 -56 -1 -69 0 -9 0 -14 -1 -15 0 -18 0 -19 1 -6 5 rrcurveto
            return
          </CharString>
          <CharString index="170">
            -6 5 -6 4 -3 0 -4 0 -11 -8 0 -10 0 -25 -9 -46 -8 -19 -4 -8 1 -14 9 0 10 0 12 19 5 6 rrcurveto
            return
          </CharString>
          <CharString index="171">
            20 26 14 27 18 0 rrcurveto
            117 hlineto
            15 0 -3 -6 -3 -4 -73 -116 -46 -72 -67 -96 -14 -19 -23 -34 0 -5 0 -5 9 -12 5 0 17 0 35 5 28 0 109 0 73 -5 29 0 rrcurveto
            6 0 7 9 1 5 5 16 23 80 0 8 0 4 1 19 -9 0 -12 0 -7 -19 -3 -5 rrcurveto
            -30 -43 -26 -34 -30 0 rrcurveto
            return
          </CharString>
          <CharString index="172">
            -3 1 -3 1 4 2 42 17 66 48 0 66 rrcurveto
            return
          </CharString>
          <CharString index="173">
            0 58 -13 47 0 68 rrcurveto
            73 65 28 64 11 15 1 11 9 -9 6 -9 -94 -108 -39 -94 vhcurveto
            return
          </CharString>
          <CharString index="174">
            0 -70 13 -46 0 -62 0 -58 -41 -38 -54 -20 -5 -2 -6 2 0 -6 0 -6 6 -1 5 -2 54 -20 41 -38 0 -58 rrcurveto
            return
          </CharString>
          <CharString index="175">
            0 -62 -13 -46 0 -70 rrcurveto
            -94 108 -39 94 9 9 6 9 11 -15 1 -11 -64 -65 28 73 vhcurveto
            return
          </CharString>
          <CharString index="176">
            0 68 13 47 0 58 rrcurveto
            0 66 -73 57 -33 9 rrcurveto
            return
          </CharString>
          <CharString index="177">
            -951 vlineto
            -7 6 -7 6 9 39 3 21 vhcurveto
            959 vlineto
            7 -7 6 -7 -6 -40 -9 -22 vhcurveto
            return
          </CharString>
          <CharString index="178">
            0 -58 13 -47 0 -68 rrcurveto
            -73 -65 -28 -64 -11 -15 -1 -11 -9 9 -6 9 94 108 39 94 vhcurveto
            return
          </CharString>
          <CharString index="179">
            0 70 -13 46 0 62 0 58 40 38 55 20 5 2 6 1 0 6 0 6 -6 -2 -5 2 -55 20 -40 38 0 58 rrcurveto
            return
          </CharString>
          <CharString index="180">
            0 62 13 46 0 70 rrcurveto
            94 -108 39 -94 -9 -9 -6 -9 -11 15 -1 11 64 65 -28 -73 vhcurveto
            return
          </CharString>
          <CharString index="181">
            0 -68 -13 -47 0 -58 0 -66 66 -48 42 -17 rrcurveto
            3 -2 -3 -1 -2 -1 rrcurveto
            return
          </CharString>
          <CharString index="182">
            -5 0 -53 -49 -45 0 rrcurveto
            return
          </CharString>
          <CharString index="183">
            -66 0 -50 48 -46 0 rrcurveto
            -45 -80 -92 -10 -7 7 -11 8 hvcurveto
            5 0 43 47 45 0 rrcurveto
            return
          </CharString>
          <CharString index="184">
            54 0 65 -48 48 0 rrcurveto
            49 76 88 14 hvcurveto
            6 -5 14 -5 vhcurveto
            return
          </CharString>
          <CharString index="185">
            33 27 27 33 33 -27 27 -33 -33 -27 -27 -33 hvcurveto
            -33 27 -27 33 vhcurveto
            return
          </CharString>
          <CharString index="186">
            0 87 -15 116 -12 116 -2 22 -10 30 -10 0 -15 0 -11 -29 -2 -29 rrcurveto
            return
          </CharString>
          <CharString index="187">
            -10 -118 -13 -130 0 -63 rrcurveto
            -39 16 -35 36 vhcurveto
            return
          </CharString>
          <CharString index="188">
            -6 -53 rlineto
            -1 -9 8 -6 9 0 9 0 9 6 1 9 rrcurveto
            5 51 rlineto
            72 2 49 27 37 62 1 1 0 2 0 1 0 6 -6 6 -7 0 -4 0 -3 -2 -2 -3 -25 -38 -48 -5 -42 0 -5 0 -5 0 -5 1 rrcurveto
            34 333 rlineto
            27 -7 16 -18 14 -25 3 -6 9 -4 9 0 4 0 5 2 4 2 11 8 13 10 0 12 0 4 -1 4 -3 4 -27 33 -41 13 -39 2 rrcurveto
            5 49 rlineto
            1 8 -6 9 -8 0 -11 0 -10 -6 -1 -11 rrcurveto
            -5 -50 rlineto
            -119 -11 -84 -100 0 -113 0 -99 74 -86 85 -15 rrcurveto
            return
          </CharString>
          <CharString index="189">
            -58 22 -40 60 0 87 rrcurveto
            75 51 87 80 vhcurveto
            2 hlineto
            return
          </CharString>
          <CharString index="190">
            0 -5 -75 -5 rlineto
            -13 -1 -11 -16 0 -9 rrcurveto
            -6 7 -6 7 vhcurveto
            84 6 rlineto
            -3 -81 -12 -84 -17 -31 -3 -6 -2 -5 -6 -1 -51 -10 -45 -44 0 -20 0 -17 13 -14 17 0 14 0 14 5 8 15 14 26 24 23 6 0 rrcurveto
            10 0 32 -13 22 -16 rrcurveto
            return
          </CharString>
          <CharString index="191">
            55 -38 38 -24 67 0 81 0 72 64 0 77 0 28 -18 22 -29 3 -9 1 0 -12 0 -9 1 -20 12 -12 0 -19 0 -30 -27 -25 -30 0 rrcurveto
            -97 0 -21 61 -120 0 -7 0 0 7 3 2 25 21 46 94 10 88 rrcurveto
            117 8 rlineto
            15 16 19 7 5 -6 7 -7 hvcurveto
            -133 -9 rlineto
            1 162 42 96 65 0 rrcurveto
            return
          </CharString>
          <CharString index="192">
            34 0 34 -40 1 -33 0 -8 -1 -8 0 -6 rrcurveto
            -9 2 -5 10 13 29 29 27 46 -23 36 -78 vhcurveto
            -147 -70 -153 -135 hvcurveto
            return
          </CharString>
          <CharString index="193">
            47 -47 rlineto
            -25 -32 -14 -41 0 -44 0 -44 14 -41 25 -33 rrcurveto
            -47 -47 rlineto
            -2 -2 -1 -3 0 -3 0 -13 17 -17 13 0 3 0 3 1 2 2 rrcurveto
            47 46 rlineto
            32 -26 41 -15 45 0 45 0 41 15 32 26 rrcurveto
            46 -46 rlineto
            2 -2 3 -1 3 0 13 0 18 18 0 13 0 3 -1 2 -2 2 rrcurveto
            -47 47 rlineto
            25 33 14 41 0 44 0 44 -14 41 -25 33 rrcurveto
            45 45 rlineto
            3 3 1 3 0 4 0 14 -18 16 -12 0 -3 0 -3 -1 -2 -2 rrcurveto
            -46 -46 rlineto
            -32 26 -41 15 -45 0 -45 0 -41 -16 -33 -25 rrcurveto
            -45 45 rlineto
            -2 2 -3 1 -3 0 -13 0 -18 -18 0 -13 0 -3 1 -2 2 -2 rrcurveto
            return
          </CharString>
          <CharString index="194">
            79 63 -66 -79 -79 -63 -66 -79 -79 -63 66 79 79 63 66 79 hvcurveto
            return
          </CharString>
          <CharString index="195">
            124 -192 rlineto
            3 -4 2 -4 4 -7 rrcurveto
            -106 hlineto
            -13 -11 -14 -9 -6 7 -6 7 hvcurveto
            124 hlineto
            1 -7 1 -8 0 -9 rrcurveto
            -24 -116 vlineto
            -13 -11 -14 -9 -6 7 -6 7 hvcurveto
            126 0 -1 -89 rlineto
            0 -48 -28 -27 -50 -9 -23 -4 -10 -5 0 -9 0 -8 12 -3 17 0 54 0 24 5 50 0 46 0 17 -5 54 0 17 0 12 3 0 8 rrcurveto
            0 9 -10 5 -23 4 -50 9 -28 30 0 45 rrcurveto
            89 108 vlineto
            15 16 14 10 8 -6 3 -7 hvcurveto
            -126 48 109 hlineto
            15 16 14 10 6 -6 5 -7 hvcurveto
            -122 hlineto
            3 8 7 11 8 12 0 0 58 98 54 82 21 31 44 58 35 7 23 5 10 6 0 9 0 8 -12 3 -17 0 -23 0 -36 -3 -37 0 rrcurveto
            -29 0 -16 1 -30 0 -17 0 -12 -3 0 -8 0 -9 19 -7 14 -4 19 -5 11 -22 0 -25 0 -11 -2 -12 -5 -11 -27 -57 -56 -82 0 0 rrcurveto
            -15 -25 -8 -14 -8 0 -7 0 -8 13 -15 26 rrcurveto
            -93 165 rlineto
            -7 11 -2 9 0 8 0 20 17 9 11 4 22 7 11 4 0 9 0 8 -12 3 -17 0 -21 0 -28 -2 -31 0 -46 0 -41 3 -30 0 rrcurveto
            -17 -12 -3 -8 hvcurveto
            0 -9 11 -6 22 -7 31 -9 38 -59 20 -30 rrcurveto
            return
          </CharString>
          <CharString index="196">
            9 39 11 10 hvcurveto
            395 vlineto
            7 -7 6 -7 -6 -40 -9 -22 vhcurveto
            -375 vlineto
            -10 6 -13 6 vhcurveto
            return
          </CharString>
          <CharString index="197">
            -6 -40 -13 -10 hvcurveto
            -432 vlineto
            -7 6 -7 6 9 39 3 21 vhcurveto
            423 vlineto
            10 -7 12 -7 vhcurveto
            return
          </CharString>
          <CharString index="198">
            60 -62 30 -50 0 -69 0 -27 -4 -19 -7 -27 -1 -4 -7 -1 -2 5 -16 46 -65 64 -42 43 -60 62 -30 50 0 69 0 27 4 19 7 27 rrcurveto
            1 4 7 1 2 -5 16 -46 65 -64 42 -43 rrcurveto
            return
          </CharString>
          <CharString index="199">
            -71 0 -53 -69 -15 -58 -38 -46 -28 -49 0 -89 0 -59 32 -58 62 -63 52 -54 62 -57 0 -50 0 -52 -18 -30 -34 0 -23 0 -29 9 -17 15 rrcurveto
            -5 4 -10 7 -7 -5 -23 -17 -5 -26 0 -9 0 -18 27 -14 35 0 18 0 21 2 15 9 40 24 45 43 34 59 34 60 16 37 0 73 rrcurveto
            0 88 -21 63 -84 75 -59 53 -45 58 0 37 0 32 21 31 40 0 18 0 24 -16 20 -18 4 -4 5 -2 4 0 21 0 17 43 0 4 rrcurveto
            0 8 -6 5 -6 5 -11 10 -34 9 -25 0 rrcurveto
            return
          </CharString>
          <CharString index="200">
            -25 -25 -25 -25 -25 25 -25 25 25 25 25 25 25 -25 25 -25 hvcurveto
            return
          </CharString>
          <CharString index="201">
            145 118 -118 -145 -147 -117 -122 -147 -146 -116 123 146 145 118 118 145 hvcurveto
            return
          </CharString>
          <CharString index="202">
            -167 -136 -136 -167 -167 135 -136 167 167 137 136 167 167 -136 136 -167 hvcurveto
            return
          </CharString>
          <CharString index="203">
            -16 -32 -33 -9 -37 0 rrcurveto
            -78 -40 74 73 73 45 60 68 hvcurveto
            46 0 29 -23 10 -28 3 -8 3 -7 6 0 5 -1 5 8 0 4 1 8 0 8 0 7 0 13 0 30 -8 3 -9 3 -21 4 -8 3 rrcurveto
            -9 2 -28 4 -16 0 rrcurveto
            -99 -93 -67 -99 -89 76 -85 95 hvcurveto
            43 0 44 4 18 18 7 8 13 30 0 13 0 9 -1 4 -4 0 -4 0 -8 -5 -5 -10 rrcurveto
            return
          </CharString>
          <CharString index="204">
            -13 -11 -14 -9 -6 7 -6 7 hvcurveto
            198 hlineto
            15 0 9 8 7 13 0 1 1 1 0 1 rrcurveto
            6 -8 5 -6 vhcurveto
            return
          </CharString>
          <CharString index="205">
            0 14 15 20 50 14 11 3 4 -2 0 -12 rrcurveto
            -29 vlineto
            0 -15 -4 -5 -4 -3 -10 -8 -16 -11 -14 0 -13 0 -19 11 0 23 rrcurveto
            return
          </CharString>
          <CharString index="206">
            24 25 30 4 9 -6 7 -3 hvcurveto
            -2 0 -5 -10 -18 0 rrcurveto
            -19 0 22 17 hvcurveto
            124 vlineto
            28 -30 25 -31 vhcurveto
            -34 0 -46 -25 -20 -17 -16 -13 -10 -22 0 -8 rrcurveto
            -3 1 -2 4 3 42 11 8 vhcurveto
            0 3 -2 15 3 6 5 8 23 6 16 0 rrcurveto
            24 13 -16 -20 hvcurveto
            -23 vlineto
            0 -16 -1 -2 -17 -6 rrcurveto
            -79 -28 rlineto
            -32 -12 -6 -16 0 -25 0 -23 32 -36 27 0 53 0 18 31 9 0 5 0 13 -31 37 0 rrcurveto
            return
          </CharString>
          <CharString index="207">
            13 -13 9 -5 8 0 5 0 4 6 0 6 0 24 -83 92 -72 56 -8 6 0 2 8 6 75 58 82 87 0 29 0 6 -2 3 -4 0 rrcurveto
            -11 0 -12 -12 -6 -6 -69 -66 -55 -37 -102 -61 -2 -1 -1 -3 0 -3 0 -9 8 -15 10 -5 59 -27 77 -49 69 -69 rrcurveto
            return
          </CharString>
          <CharString index="208">
            412 hlineto
            10 4 -8 -10 hvcurveto
            -247 vlineto
            -7 6 -7 6 9 39 3 21 vhcurveto
            301 vlineto
            7 -6 7 -7 vhcurveto
            -463 hlineto
            -21 -3 -39 -9 -6 7 -6 7 hvcurveto
            return
          </CharString>
          <CharString index="209">
            48 39 -39 -48 -48 -39 -39 -48 -48 -39 39 48 hvcurveto
            48 39 39 48 vhcurveto
            return
          </CharString>
          <CharString index="210">
            -59 -48 -48 -59 -59 48 -48 59 59 48 48 59 59 -48 48 -59 hvcurveto
            return
          </CharString>
          <CharString index="211">
            -9 -11 -7 -10 -5 -2 0 6 vhcurveto
            23 vlineto
            5 2 4 9 vhcurveto
            9 8 -11 -11 hvcurveto
            return
          </CharString>
          <CharString index="212">
            56 hlineto
            2 0 0 9 -2 1 -10 2 -5 3 0 6 rrcurveto
            22 vlineto
            2 4 1 2 vhcurveto
            return
          </CharString>
          <CharString index="213">
            2 0 7 -2 1 -4 6 -18 12 -25 25 0 4 0 8 0 0 3 0 2 -9 8 -2 2 -11 8 -16 32 0 6 0 1 1 0 0 0 rrcurveto
            return
          </CharString>
          <CharString index="214">
            4 1 15 7 0 17 0 18 -16 13 -26 0 -20 0 -7 -1 -21 -5 -4 -1 2 -12 2 0 6 -2 6 -6 0 -5 rrcurveto
            -62 vlineto
            0 -4 -11 -6 -5 -2 rrcurveto
            -1 0 -2 -3 -2 0 -2 1 hvcurveto
            return
          </CharString>
          <CharString index="215">
            18 13 30 9 6 -7 5 -6 hvcurveto
            -223 hlineto
            -18 -6 -29 -9 -6 7 -6 7 hvcurveto
            return
          </CharString>
          <CharString index="216">
            -63 -57 -53 -64 -64 57 -62 63 63 57 62 64 64 -57 53 -63 hvcurveto
            return
          </CharString>
          <CharString index="217">
            41 33 33 40 40 33 -33 -41 -40 -33 -34 -40 -40 -33 34 40 vhcurveto
            return
          </CharString>
          <CharString index="218">
            445 hlineto
            19 0 6 19 6 17 0 1 1 1 0 1 rrcurveto
            6 -8 5 -6 vhcurveto
            -453 hlineto
            -18 -6 -29 -9 -6 7 -6 7 hvcurveto
            return
          </CharString>
          <CharString index="219">
            191 vlineto
            7 -7 6 -7 -6 -30 -12 -19 vhcurveto
            -171 vlineto
            -6 -1 -2 -6 vhcurveto
            -189 hlineto
            -18 -6 -29 -9 -6 7 -6 7 hvcurveto
            202 hlineto
            3 1 -2 -3 hvcurveto
            -211 vlineto
            -7 6 -7 6 9 29 6 18 vhcurveto
            202 vlineto
            3 1 1 3 vhcurveto
            185 hlineto
            19 0 6 19 6 17 0 1 1 1 0 1 rrcurveto
            6 -8 5 -6 vhcurveto
            -203 hlineto
            -3 -1 -1 7 hvcurveto
            return
          </CharString>
          <CharString index="220">
            -22 0 -17 0 -11 -18 -21 -34 -67 -121 0 -15 0 -9 4 -4 9 0 9 0 13 15 5 7 80 111 53 30 0 19 0 14 -17 5 -18 0 rrcurveto
            return
          </CharString>
          <CharString index="221">
            0 40 31 129 0 42 rrcurveto
            48 -10 27 -29 -39 -13 -44 -42 vhcurveto
            return
          </CharString>
          <CharString index="222">
            8 2 2 3 vhcurveto
            9 0 19 -19 20 0 rrcurveto
            18 17 21 22 27 -27 17 -27 -38 -32 -28 -38 -47 41 -34 47 72 41 77 44 hvcurveto
            755 vlineto
            9 8 9 10 vhcurveto
            return
          </CharString>
          <CharString index="223">
            5 0 61 -7 6 0 rrcurveto
            8 10 13 9 9 -5 12 -10 hvcurveto
            return
          </CharString>
          <CharString index="224">
            -48 2 -14 0 -49 0 rrcurveto
            -180 -188 -99 -180 -162 172 -85 162 hvcurveto
            return
          </CharString>
          <CharString index="225">
            11 2 -15 -10 hvcurveto
            -274 vlineto
            -47 -32 -35 -46 vhcurveto
            -27 -21 19 25 hvcurveto
            return
          </CharString>
          <CharString index="226">
            7 0 6 6 13 0 rrcurveto
            35 24 -21 -36 -26 -13 -19 -26 hvcurveto
            -33 0 -13 11 -7 0 rrcurveto
            -4 -9 -5 -14 -19 3 -22 27 36 89 55 80 hvcurveto
            0 33 -29 29 -32 14 -4 1 -7 5 0 6 0 2 2 4 2 2 rrcurveto
            39 51 -31 0 -88 -112 rlineto
            -3 -4 -2 -3 0 -3 0 -9 11 -6 7 0 rrcurveto
            return
          </CharString>
          <CharString index="227">
            -13 -11 -14 -9 -6 7 -6 7 hvcurveto
            214 hlineto
            15 0 9 8 7 13 0 1 1 1 0 1 rrcurveto
            6 -8 5 -6 vhcurveto
            return
          </CharString>
          <CharString index="228">
            45 29 -50 -52 -48 -19 -42 -44 -44 -30 48 55 46 18 43 45 hvcurveto
            return
          </CharString>
          <CharString index="229">
            -74 -61 -62 -74 -72 56 -48 67 90 46 66 70 65 -59 55 -65 hvcurveto
            return
          </CharString>
          <CharString index="230">
            69 69 77 49 59 27 10 5 8 15 0 9 0 3 -1 3 -2 1 -102 61 -55 37 -69 66 -6 6 -12 12 -11 0 -4 0 -2 -3 0 -6 rrcurveto
            0 -29 82 -87 75 -58 8 -6 0 -2 -8 -6 -72 -56 -83 -92 0 -24 0 -6 4 -6 5 0 8 0 9 5 13 13 rrcurveto
            return
          </CharString>
          <CharString index="231">
            -91 hlineto
            -2 0 1 3 1 2 29 37 26 33 38 42 2 2 4 -1 0 -2 rrcurveto
            -111 vlineto
            -3 -5 -2 -3 vhcurveto
            return
          </CharString>
          <CharString index="232">
            -12 -6 -40 -34 -51 -5 -5 -1 -5 -6 0 -7 0 -5 3 -5 8 -3 17 -6 37 -14 0 -27 rrcurveto
            -153 vlineto
            0 -41 -27 -3 -27 -2 rrcurveto
            -8 -3 -5 -6 -7 4 -7 7 hvcurveto
            54 0 -4 5 32 0 32 0 -7 -5 57 0 8 0 4 6 0 6 0 6 -4 6 -8 1 -44 6 -5 1 -1 39 0 24 -1 25 0 30 rrcurveto
            0 31 1 36 0 44 0 32 2 24 2 14 1 8 -4 6 -6 0 -2 0 -2 -1 -3 -1 rrcurveto
            return
          </CharString>
          <CharString index="233">
            17 23 17 19 27 -21 29 -21 hvcurveto
            -19 0 -9 -4 -19 0 -68 1 -33 48 0 66 0 29 33 28 28 14 rrcurveto
            return
          </CharString>
          <CharString index="234">
            0 45 -10 21 -6 21 -4 16 -11 13 -7 0 rrcurveto
            return
          </CharString>
          <CharString index="235">
            -10 -5 -13 -10 hvcurveto
            -1 -32 -1 -13 -28 -18 -32 -21 -14 -8 -44 -24 -20 -11 -24 -35 0 -49 0 -51 41 -89 56 -56 33 -33 42 -17 33 0 rrcurveto
            return
          </CharString>
          <CharString index="236">
            4 2 3 3 hvcurveto
            0 4 -2 6 -3 5 -24 40 -26 40 -27 39 -7 10 -9 3 -11 0 -14 0 -44 -9 0 -14 0 -7 4 -4 9 -8 40 -34 50 -38 40 -30 rrcurveto
            9 -7 6 -2 3 0 rrcurveto
            return
          </CharString>
          <CharString index="237">
            3 0 6 2 9 7 40 30 50 38 40 34 9 8 4 4 0 7 0 14 -44 9 -14 0 -11 0 -9 -3 -7 -10 -27 -39 -26 -40 -24 -40 rrcurveto
            -3 -5 -2 -6 0 -4 0 -3 2 -3 4 0 rrcurveto
            return
          </CharString>
          <CharString index="238">
            13 0 82 40 26 15 9 5 2 0 9 -5 26 -15 82 -41 13 0 9 0 5 5 0 6 0 4 -1 4 -5 4 rrcurveto
            -98 88 rlineto
            -19 17 -7 5 -15 0 -15 0 -7 -5 -19 -17 rrcurveto
            -98 -88 rlineto
            -5 -4 -2 -4 0 -4 0 -6 6 -4 9 0 rrcurveto
            return
          </CharString>
          <CharString index="239">
            37 46 55 30 10 -7 7 -10 hvcurveto
            -12 0 -13 -39 -35 0 rrcurveto
            return
          </CharString>
          <CharString index="240">
            -25 0 -66 11 -25 0 rrcurveto
            -37 -50 -56 -33 -10 11 -7 8 hvcurveto
            10 0 13 41 34 0 rrcurveto
            25 0 71 -9 25 0 rrcurveto
            return
          </CharString>
          <CharString index="241">
            -28 -22 -22 -28 -28 22 -22 28 28 22 22 28 28 -22 22 -28 hvcurveto
            return
          </CharString>
          <CharString index="242">
            -49 -44 -36 -49 -50 40 -29 45 50 43 37 50 48 -37 29 -48 hvcurveto
            return
          </CharString>
          <CharString index="243">
            29 18 30 30 31 23 -28 -31 -28 -17 -32 -29 -32 -24 28 32 vhcurveto
            return
          </CharString>
          <CharString index="244">
            238 vlineto
            18 24 8 11 vhcurveto
            131 hlineto
            25 0 23 -6 19 -21 9 -10 7 -17 7 -22 2 -7 2 -3 7 0 6 0 8 3 0 6 -1 35 -4 30 -7 38 -1 7 -10 2 -7 0 rrcurveto
            -8 hlineto
            return
          </CharString>
          <CharString index="245">
            -43 0 -146 -5 -112 0 rrcurveto
            return
          </CharString>
          <CharString index="246">
            -68 0 -65 3 -42 0 -6 0 -4 -6 0 -6 0 -5 3 -5 7 -3 rrcurveto
            88 -15 rlineto
            13 -1 9 -8 -5 -8 rrcurveto
            -273 -468 rlineto
            -28 -48 -42 -40 -34 -10 -22 -7 -11 -6 0 -9 0 -8 12 -3 17 0 rrcurveto
            return
          </CharString>
          <CharString index="247">
            33 0 48 6 45 0 36 0 35 -2 18 0 17 0 12 3 0 8 0 9 -10 5 -23 6 -29 7 -36 13 0 32 0 9 3 10 6 11 rrcurveto
            32 62 24 44 26 44 7 13 8 10 15 0 rrcurveto
            141 hlineto
            20 2 -8 -10 hvcurveto
            -171 vlineto
            0 -46 -24 -17 -49 -9 -23 -4 -10 -5 0 -9 rrcurveto
            return
          </CharString>
          <CharString index="248">
            54 0 16 6 45 0 rrcurveto
            20 hlineto
            return
          </CharString>
          <CharString index="249">
            94 0 92 -6 118 0 10 0 2 9 2 8 8 31 9 34 0 38 0 6 -6 4 -7 1 -7 1 -3 -3 -4 -8 -8 -17 -16 -32 -18 -14 rrcurveto
            return
          </CharString>
          <CharString index="250">
            -13 -10 -58 -8 -5 0 rrcurveto
            -104 hlineto
            -45 -20 38 38 hvcurveto
            153 vlineto
            16 11 7 12 vhcurveto
            39 0 22 0 42 -2 16 -1 21 -7 10 -31 2 -7 8 -16 13 0 8 0 1 8 0 9 -2 29 -1 21 0 23 0 18 1 18 2 23 rrcurveto
            1 9 -9 7 -5 0 -5 0 -11 -12 -2 -5 -5 -12 -3 -4 -9 -8 -12 -11 -13 -1 -19 -1 -24 -1 -30 -1 -42 0 rrcurveto
            -10 -7 11 11 hvcurveto
            return
          </CharString>
          <CharString index="251">
            6 11 4 6 3 0 rrcurveto
            3 0 -6 -12 hvcurveto
            -237 vlineto
            -15 -1 0 -15 vhcurveto
            -124 hlineto
            -11 -5 1 4 hvcurveto
            0 2 1 3 3 5 rrcurveto
            return
          </CharString>
          <CharString index="252">
            -6 9 -11 17 vhcurveto
            9 0 5 3 12 0 rrcurveto
            35 12 -30 -24 -29 -25 -10 -17 hvcurveto
            -49 0 -6 13 -8 0 rrcurveto
            -8 -8 -11 -23 -15 10 -17 35 45 84 48 68 hvcurveto
            0 47 -38 30 -28 12 -5 2 -10 7 5 7 rrcurveto
            41 62 -31 0 -80 -108 rlineto
            -3 -4 -3 -4 0 -7 rrcurveto
            return
          </CharString>
          <CharString index="253">
            -153 -80 -163 -153 vhcurveto
            -22 0 -19 -2 -18 0 -25 0 -23 4 -24 18 -21 16 -14 14 0 41 rrcurveto
            196 149 vlineto
            15 0 9 9 7 13 0 1 1 1 0 1 rrcurveto
            6 -8 5 -6 vhcurveto
            -167 214 hlineto
            60 48 1 87 157 107 -125 -157 vhcurveto
            return
          </CharString>
          <CharString index="254">
            191 142 156 186 195 -93 129 -271 hvcurveto
            -27 0 -101 -8 -43 0 rrcurveto
            -7 hlineto
            -41 0 -9 2 -54 0 -17 0 -12 -3 0 -8 0 -9 10 -7 23 -4 50 -9 17 -16 0 -48 rrcurveto
            -196 -59 vlineto
            -12 -12 -9 -9 -6 5 -12 9 hvcurveto
            69 -218 hlineto
            0 -48 -17 -18 -50 -9 -23 -4 -10 -5 0 -9 0 -8 12 -3 17 0 53 0 12 5 40 0 79 0 109 -7 20 0 rrcurveto
            return
          </CharString>
          <CharString index="255">
            -135 135 rlineto
            -5 5 -9 0 -5 -5 -3 -4 -13 -21 0 -16 0 -5 1 -5 4 -4 rrcurveto
            121 -121 rlineto
            4 -4 1 -2 -4 -4 rrcurveto
            -134 -134 rlineto
            -3 -3 -2 -5 0 -4 0 -15 17 -19 5 -5 4 -4 9 0 5 5 rrcurveto
            143 143 rlineto
            2 2 3 0 2 -2 rrcurveto
            149 -150 rlineto
            3 -3 3 -1 4 0 11 0 19 24 0 18 0 5 -2 4 -3 3 rrcurveto
            -143 143 rlineto
            -2 2 0 1 2 2 rrcurveto
            131 131 rlineto
            5 5 2 5 0 5 0 12 -10 15 -7 13 -2 3 -4 2 -3 0 -4 0 -3 -2 -3 -3 rrcurveto
            -144 -143 rlineto
            -2 -2 0 -2 -5 5 rrcurveto
            return
          </CharString>
          <CharString index="256">
            83 0 64 -35 41 -61 rrcurveto
            -377 -368 rlineto
            -30 54 -14 66 0 69 0 140 85 135 148 0 rrcurveto
            return
          </CharString>
          <CharString index="257">
            4 0 3 1 2 2 rrcurveto
            80 80 rlineto
            61 -52 78 -31 82 0 219 0 117 169 0 180 0 85 -29 74 -47 55 rrcurveto
            72 72 rlineto
            5 5 2 6 0 7 0 5 -2 6 -1 4 -3 9 -14 2 -7 -7 rrcurveto
            -80 -79 rlineto
            -60 54 -80 31 -84 0 -224 0 -121 -163 0 -181 0 -86 32 -76 52 -58 rrcurveto
            -75 -74 rlineto
            -6 -6 -4 -7 0 -7 0 -10 14 -10 14 0 rrcurveto
            return
          </CharString>
          <CharString index="258">
            25 -51 12 -64 0 -72 0 -171 -76 -109 -150 0 -73 0 -66 39 -45 59 rrcurveto
            return
          </CharString>
          <CharString index="259">
            55 0 82 17 46 35 44 34 35 82 0 45 0 118 -94 59 -109 0 -27 0 -26 -2 -19 -5 -1 0 -19 -5 -3 0 rrcurveto
            -6 0 9 11 hvcurveto
            17 vlineto
            0 48 28 16 50 9 23 4 10 7 0 9 0 8 -12 3 -17 0 -54 0 -19 -3 -46 0 -41 0 -9 3 -54 0 -17 0 -12 -3 0 -8 rrcurveto
            0 -9 10 -7 23 -4 50 -9 7 -25 0 -39 rrcurveto
            -450 vlineto
            0 -48 -29 -18 -50 -9 -23 -4 -10 -5 0 -9 0 -8 12 -3 17 0 54 0 25 5 50 0 46 0 17 -5 54 0 17 0 12 3 0 8 rrcurveto
            0 9 -10 5 -23 4 -50 9 -29 21 0 42 rrcurveto
            32 vlineto
            6 4 3 4 vhcurveto
            9 0 11 -3 14 0 rrcurveto
            return
          </CharString>
          <CharString index="260">
            -8 1 -17 9 0 8 0 43 -1 37 0 37 0 52 1 50 1 60 3 28 38 1 34 0 rrcurveto
            10 hlineto
            76 51 -79 -77 hvcurveto
            0 -58 -14 -51 -50 -37 -20 -15 -37 -11 -40 0 -9 0 -9 1 -9 1 rrcurveto
            return
          </CharString>
          <CharString index="261">
            8 -9 14 -13 8 0 9 0 0 4 0 9 0 15 -62 114 -19 33 -6 10 -11 8 -10 0 -25 0 -24 -7 0 -16 0 -14 87 -101 31 -33 rrcurveto
            return
          </CharString>
          <CharString index="262">
            31 33 87 101 0 14 0 16 -24 7 -25 0 -10 0 -11 -8 -6 -10 -19 -33 -62 -114 0 -15 0 -9 0 -4 9 0 8 0 14 13 8 9 rrcurveto
            return
          </CharString>
          <CharString index="263">
            3 4 1 0 3 -4 24 -30 30 -38 12 -16 7 -10 15 -12 8 0 9 0 0 4 0 9 0 15 -69 122 -20 33 -5 9 -7 9 -8 0 rrcurveto
            -8 0 -7 -9 -5 -9 -20 -33 -68 -122 0 -15 0 -9 0 -4 9 0 8 0 15 13 7 9 12 16 29 38 25 30 rrcurveto
            return
          </CharString>
          <CharString index="264">
            8 0 24 37 25 0 rrcurveto
            return
          </CharString>
          <CharString index="265">
            25 0 62 -7 25 0 rrcurveto
            25 60 73 10 10 -6 7 -10 hvcurveto
            -8 0 -14 -34 -35 0 rrcurveto
            return
          </CharString>
          <CharString index="266">
            -25 0 -57 8 -25 0 rrcurveto
            -25 -63 -74 -10 hvcurveto
            -10 4 -10 10 vhcurveto
            return
          </CharString>
          <CharString index="267">
            -44 -43 -40 -44 -44 37 -39 44 44 43 37 52 44 -37 34 -44 hvcurveto
            return
          </CharString>
          <CharString index="268">
            28 9 24 28 28 21 -30 -28 -32 -9 -24 -30 -28 -19 29 33 vhcurveto
            return
          </CharString>
          <CharString index="269">
            8 14 29 19 24 0 rrcurveto
            37 23 -31 -35 hvcurveto
            -66 vlineto
            0 -16 -3 -3 -26 -12 rrcurveto
            -104 -47 rlineto
            -49 -22 -24 -26 0 -42 0 -39 45 -40 41 0 68 1 31 35 16 12 3 3 3 1 2 0 2 0 8 -9 3 -3 rrcurveto
            return
          </CharString>
          <CharString index="270">
            31 -26 39 -14 39 0 76 0 43 33 44 64 1 1 0 2 0 1 0 6 -6 5 -7 0 -3 0 -3 -1 -3 -3 -32 -37 -39 -11 -40 0 rrcurveto
            -44 -44 17 66 hvcurveto
            56 vlineto
            0 5 5 10 6 3 34 15 137 59 13 7 14 7 10 5 0 22 0 65 -65 30 -52 0 -33 0 -50 -16 -24 -17 -7 -5 -2 0 -3 6 rrcurveto
            return
          </CharString>
          <CharString index="271">
            -8 14 -35 19 -20 0 -53 0 -65 -44 -31 -28 -25 -22 -15 -26 0 -21 rrcurveto
            -3 2 -6 6 13 56 21 14 vhcurveto
            0 5 -1 4 0 5 rrcurveto
            0 7 1 7 3 5 rrcurveto
            return
          </CharString>
          <CharString index="272">
            1 35 57 22 17 0 30 0 25 -13 15 -37 1 -3 3 -10 0 -9 0 -6 -1 -6 -6 -2 -19 -8 -59 -20 -49 -20 -5 -2 -10 2 0 10 rrcurveto
            return
          </CharString>
          <CharString index="273">
            2 52 99 33 16 0 rrcurveto
            8 0 -8 -16 hvcurveto
            -52 vlineto
            0 -25 -7 -6 -7 -6 rrcurveto
            return
          </CharString>
          <CharString index="274">
            -16 -14 -20 -13 -26 0 -19 0 -30 17 0 38 rrcurveto
            return
          </CharString>
          <CharString index="275">
            7 0 6 6 13 0 rrcurveto
            35 24 -21 -36 -26 -13 -19 -26 hvcurveto
            -33 0 -13 11 -7 0 rrcurveto
            -4 -9 -5 -14 -19 3 -22 27 36 89 55 80 hvcurveto
            0 33 -29 29 -32 14 -4 1 -7 5 0 6 0 2 2 4 2 2 rrcurveto
            25 32 rlineto
            71 13 58 45 0 32 0 7 -6 7 -6 0 -3 0 -3 -2 -3 -3 -26 -34 -20 -16 -42 0 rrcurveto
            -96 -63 92 96 73 37 77 73 hvcurveto
            50 0 11 -11 33 -36 5 -5 11 -5 9 0 10 0 28 17 0 17 0 4 -2 4 -3 4 -30 37 -47 11 -43 0 rrcurveto
            -123 -88 -110 -123 -103 70 -91 101 hvcurveto
            3 0 -71 -90 rlineto
            -3 -4 -2 -3 0 -3 0 -9 11 -6 7 0 rrcurveto
            return
          </CharString>
          <CharString index="276">
            -25 -21 -21 -25 -25 21 -21 25 25 21 21 25 25 -21 21 -25 hvcurveto
            return
          </CharString>
          <CharString index="277">
            -26 -21 -20 -26 -25 21 -21 25 25 21 21 25 25 -20 21 -25 hvcurveto
            return
          </CharString>
          <CharString index="278">
            44 0 36 -26 25 -38 rrcurveto
            -207 -199 rlineto
            -12 28 -6 32 0 33 0 48 7 49 26 33 19 24 32 16 36 0 rrcurveto
            return
          </CharString>
          <CharString index="279">
            3 0 2 1 2 2 rrcurveto
            47 46 rlineto
            35 -29 44 -19 48 0 150 0 75 110 0 117 0 45 -17 42 -27 35 rrcurveto
            40 39 rlineto
            7 6 4 11 0 9 0 8 -4 7 -10 0 -4 0 -4 -1 -3 -3 rrcurveto
            -52 -50 rlineto
            -37 33 -48 20 -50 0 -123 0 -97 -104 0 -124 0 -44 17 -43 28 -36 rrcurveto
            -40 -38 rlineto
            -6 -5 -4 -8 0 -7 0 -9 12 -11 12 0 rrcurveto
            return
          </CharString>
          <CharString index="280">
            11 -29 6 -31 0 -32 0 -39 -3 -47 -16 -31 -20 -39 -38 -17 -45 0 -41 0 -36 25 -24 38 rrcurveto
            return
          </CharString>
          <CharString index="281">
            -19 -5 -33 -9 -6 7 -6 7 hvcurveto
            255 hlineto
            16 15 22 20 6 -7 6 -6 hvcurveto
            return
          </CharString>
          <CharString index="282">
            -19 -5 -34 -9 -6 7 -6 7 hvcurveto
            195 hlineto
            21 10 21 22 6 -7 6 -6 hvcurveto
            return
          </CharString>
          <CharString index="283">
            -5 9 -7 12 -10 0 rrcurveto
            -10 0 -11 -13 -75 70 -55 80 80 70 66 64 13 0 11 -10 hvcurveto
            -10 0 -7 -12 -5 -9 -12 -22 -36 -41 -70 0 -70 0 -36 41 -12 22 rrcurveto
            return
          </CharString>
          <CharString index="284">
            -2 10 -3 11 -10 0 rrcurveto
            -10 -5 -11 -13 -50 37 -56 70 70 37 56 50 13 -5 11 -10 hvcurveto
            -10 0 -3 -11 -2 -10 -5 -25 -22 -24 -50 0 -50 0 -22 24 -5 25 rrcurveto
            return
          </CharString>
          <CharString index="285">
            -28 22 -22 28 29 22 22 28 29 -22 22 -29 -28 -22 -22 -29 vhcurveto
            return
          </CharString>
          <CharString index="286">
            -9 -6 -4 -6 hvcurveto
            0 -4 2 -4 5 -4 rrcurveto
            98 -88 rlineto
            19 -17 7 -5 15 0 15 0 7 5 19 17 rrcurveto
            98 88 rlineto
            5 4 1 4 0 4 0 6 -5 5 -9 0 -13 0 -82 -41 -26 -15 -9 -5 -2 0 -9 5 -26 15 -82 40 -13 0 rrcurveto
            return
          </CharString>
          <CharString index="287">
            -22 30 -31 40 -13 15 -8 9 -14 13 -8 0 -9 0 0 -4 0 -9 0 -13 68 -110 20 -31 5 -8 7 -10 8 0 8 0 7 10 5 8 rrcurveto
            20 31 68 110 0 13 0 9 0 4 -9 0 -8 0 -13 -13 -8 -9 -13 -15 -31 -40 -22 -30 -3 -4 -1 0 -3 4 rrcurveto
            return
          </CharString>
          <CharString index="288">
            0 -33 5 -23 0 -17 0 -6 -3 -24 0 -19 0 -13 2 -10 4 0 5 0 11 13 6 12 15 31 13 24 10 69 1 5 0 4 0 5 rrcurveto
            16 -4 14 -12 vhcurveto
            -21 -32 -22 -26 hvcurveto
            return
          </CharString>
          <CharString index="289">
            78 45 -68 -56 hvcurveto
            -135 vlineto
            -48 -39 -41 -56 -44 -104 31 151 vhcurveto
            134 81 32 39 vhcurveto
            return
          </CharString>
          <CharString index="290">
            29 12 36 15 52 7 5 0 9 3 0 11 0 12 -10 2 -5 -1 -10 -2 -26 -1 -10 0 rrcurveto
            -16 -5 23 42 hvcurveto
            425 63 vlineto
            15 0 9 9 7 13 0 1 1 1 0 1 rrcurveto
            6 -8 5 -6 vhcurveto
            -81 hlineto
            0 83 7 32 0 12 -1 4 -2 2 -4 0 -14 0 -35 -23 -73 -17 -5 -1 -2 -6 0 -5 0 -6 3 -6 5 -1 33 -7 17 -11 1 -50 rrcurveto
            -128 hlineto
            -12 -12 -9 -9 -6 5 -12 9 hvcurveto
            138 -127 hlineto
            -18 -1 -6 -3 vhcurveto
            -2 0 -4 4 -4 5 rrcurveto
            return
          </CharString>
          <CharString index="291">
            -13 -10 -13 -8 -50 0 rrcurveto
            -104 hlineto
            -45 -21 16 51 hvcurveto
            192 vlineto
            23 11 3 23 vhcurveto
            93 hlineto
            17 0 19 -14 10 -31 2 -7 8 -16 13 0 8 0 1 8 0 9 0 8 -2 40 0 20 0 16 3 30 0 9 0 10 -8 6 -5 0 rrcurveto
            -5 0 -11 -12 -2 -5 -10 -23 -22 -16 -29 0 rrcurveto
            -96 hlineto
            -10 -8 10 12 hvcurveto
            212 vlineto
            19 25 13 11 vhcurveto
            131 hlineto
            25 0 23 -6 19 -21 9 -10 6 -23 7 -22 2 -7 2 -3 7 0 6 0 8 3 0 12 0 27 -8 38 -7 38 -1 7 -10 2 -7 0 rrcurveto
            -10 0 -121 -3 -91 0 -70 0 -32 3 -75 0 -17 0 -12 -3 0 -8 0 -9 10 -7 23 -4 50 -9 17 -16 0 -48 rrcurveto
            -450 vlineto
            return
          </CharString>
          <CharString index="292">
            25 83 36 85 56 -40 41 -48 -29 -17 -19 -24 hvcurveto
            0 -22 27 -18 23 -5 18 -4 12 -7 0 -18 0 -28 -14 -37 -39 -14 -9 -3 -5 -5 0 -5 rrcurveto
            -5 5 -4 8 vhcurveto
            return
          </CharString>
          <CharString index="293">
            -19 -12 24 21 hvcurveto
            0 34 34 33 44 9 9 2 5 5 0 4 rrcurveto
            5 -6 5 -12 vhcurveto
            -2 hlineto
            -51 -2 -73 -57 0 -64 rrcurveto
            -56 35 -41 48 29 18 20 16 22 -18 20 -29 vhcurveto
            return
          </CharString>
          <CharString index="294">
            17 -10 11 -3 26 -14 12 -7 27 -10 13 0 9 0 5 5 0 6 0 4 -1 4 -5 4 -27 23 -4 2 0 0 rrcurveto
            -1 hlineto
            -1 0 -7 4 -46 37 -20 16 -3 6 -15 0 -15 0 -3 -6 -20 -16 -58 -46 4 5 -1 0 0 0 -3 -3 -28 -23 -5 -4 -2 -4 0 -4 rrcurveto
            -6 6 -4 9 vhcurveto
            13 0 27 10 12 7 26 16 11 1 17 10 9 5 2 0 9 -5 rrcurveto
            return
          </CharString>
          <CharString index="295">
            44 12 109 33 22 12 3 2 1 4 0 3 0 12 -16 38 -24 0 -7 0 -7 -3 -7 -3 -34 -14 -103 -64 -18 -19 -3 -4 -1 -3 0 -3 rrcurveto
            -5 7 -3 7 vhcurveto
            9 0 10 3 8 2 rrcurveto
            return
          </CharString>
          <CharString index="296">
            199 vlineto
            0 41 10 14 15 11 25 19 34 12 34 0 53 0 38 -35 0 -58 0 -30 3 -94 0 -98 0 -103 -3 -107 -12 -41 -10 -35 -32 -20 -25 0 rrcurveto
            -43 0 -8 49 -24 0 -12 0 -15 -32 0 -16 0 -7 17 -12 10 -4 24 -10 17 0 25 0 54 0 59 29 29 86 15 45 4 112 0 106 rrcurveto
            0 87 -3 83 0 35 -1 78 -43 41 -65 0 -63 0 -87 -47 -19 -19 rrcurveto
            return
          </CharString>
          <CharString index="297">
            -1 1 0 3 0 4 0 17 7 38 0 10 rrcurveto
            return
          </CharString>
          <CharString index="298">
            34 -7 5 -29 2 -36 1 -28 0 -27 0 -31 0 -37 0 -41 -1 -47 -2 -28 -22 -8 -20 -6 -11 -4 -12 -4 0 -10 0 -10 18 1 5 0 rrcurveto
            39 0 4 5 35 0 35 0 4 -5 39 0 5 0 18 -1 0 10 0 10 -12 4 -11 4 rrcurveto
            -20 6 -22 11 0 28 rrcurveto
            return
          </CharString>
          <CharString index="299">
            85 56 -99 -95 hvcurveto
            0 -39 -4 -48 -16 -31 -20 -39 -38 -16 -45 0 -80 0 -58 95 0 99 0 48 5 51 27 34 rrcurveto
            24 31 28 9 36 0 rrcurveto
            return
          </CharString>
          <CharString index="300">
            5 3 12 12 hvcurveto
            return
          </CharString>
          <CharString index="301">
            5 8 -8 10 -9 0 rrcurveto
            -2 hlineto
            return
          </CharString>
          <CharString index="302">
            27 7 24 17 hvcurveto
            0 13 -5 12 -11 9 -30 23 -19 2 -45 0 -87 0 -131 -73 0 -231 -19 -10 -10 -8 -30 -8 -2 -1 -4 -3 0 -3 0 -7 9 -9 4 -1 rrcurveto
            21 -2 18 0 13 0 rrcurveto
            -281 vlineto
            0 -28 -23 -11 -20 -6 -11 -4 -12 -4 0 -10 0 -8 13 -1 7 0 rrcurveto
            3 hlineto
            39 0 4 5 35 0 35 0 4 -5 39 0 rrcurveto
            3 hlineto
            7 13 1 8 hvcurveto
            0 10 -12 4 -11 4 -20 6 -23 11 0 28 rrcurveto
            406 vlineto
            135 44 55 62 vhcurveto
            79 0 10 -59 29 0 rrcurveto
            return
          </CharString>
          <CharString index="303">
            44 0 56 -8 20 0 66 0 54 10 40 24 36 21 64 33 0 110 0 116 -78 66 -121 0 -51 0 -32 -9 -24 -8 -2 -1 -1 0 -2 0 rrcurveto
            -11 -1 18 32 hvcurveto
            168 vlineto
            12 18 23 11 vhcurveto
            132 hlineto
            return
          </CharString>
          <CharString index="304">
            59 0 9 -41 4 -23 2 -11 15 -17 7 0 5 0 9 7 0 14 0 33 -7 25 -1 43 0 4 -3 10 -7 0 -6 0 -30 -5 -3 0 rrcurveto
            -248 hlineto
            return
          </CharString>
          <CharString index="305">
            -46 0 -17 3 -54 0 -17 0 -12 -3 0 -8 0 -9 10 -7 23 -4 50 -9 17 -16 0 -47 rrcurveto
            -452 vlineto
            0 -47 -28 -18 -50 -9 -23 -4 -10 -5 0 -9 rrcurveto
            -8 12 -3 17 vhcurveto
            return
          </CharString>
          <CharString index="306">
            199 vlineto
            28 25 8 30 vhcurveto
            50 0 36 -15 18 -10 27 -15 47 -37 0 -77 rrcurveto
            return
          </CharString>
          <CharString index="307">
            -70 -67 45 70 hvcurveto
            121 vlineto
            0 53 7 17 14 15 22 24 49 11 28 0 rrcurveto
            95 45 -101 -77 hvcurveto
            -101 -47 -77 -76 vhcurveto
            return
          </CharString>
          <CharString index="308">
            78 45 -68 -56 hvcurveto
            -135 vlineto
            -48 -39 -41 -56 -44 -104 31 151 134 81 32 39 vhcurveto
            return
          </CharString>
          <CharString index="309">
            -119 -68 84 98 34 21 26 34 hvcurveto
            343 hlineto
            9 3 -8 -12 hvcurveto
            0 -4 0 -4 -1 -5 -21 -136 -99 -73 -102 0 rrcurveto
            return
          </CharString>
          <CharString index="310">
            0 -104 49 -84 81 -27 18 -6 62 -6 32 0 rrcurveto
            194 164 176 180 197 -123 125 -167 hvcurveto
            -76 0 -86 -19 -36 -14 -25 -10 -19 -3 -5 -8 -15 -23 -14 -56 -4 -25 0 -2 -1 -3 0 -3 0 -9 3 -9 4 0 1 0 0 0 1 1 rrcurveto
            5 4 14 3 6 11 26 51 62 79 112 0 141 0 79 -101 17 -161 0 -5 1 -5 0 -6 rrcurveto
            -16 -3 -17 -15 vhcurveto
            -347 hlineto
            -74 -62 -58 -47 hvcurveto
            return
          </CharString>
          <CharString index="311">
            35 75 37 77 23 -20 37 -18 -22 -38 -33 -25 hvcurveto
            0 -33 42 17 0 -32 0 -14 -26 -12 -25 0 -8 0 -26 7 -7 2 -42 10 -64 56 -141 0 rrcurveto
            -219 -118 -164 -180 -190 160 -144 177 219 117 169 180 hvcurveto
            0 86 -24 53 -40 60 -3 5 2 8 14 0 rrcurveto
            return
          </CharString>
          <CharString index="312">
            0 35 -10 41 -26 34 -3 4 -4 10 5 0 rrcurveto
            return
          </CharString>
          <CharString index="313">
            40 44 53 42 34 -21 31 -20 -30 -27 -25 -18 hvcurveto
            0 -7 4 -6 5 -2 11 -4 18 -14 0 -16 0 -14 -8 -17 -18 0 -15 0 -47 16 -31 11 -19 6 -28 7 -26 0 rrcurveto
            -123 -96 -116 -111 -117 87 -84 112 150 76 110 117 hvcurveto
            return
          </CharString>
          <CharString index="314">
            0 -12 210 -229 58 -69 3 -4 1 -3 -3 -4 -55 -61 -217 -230 0 -10 0 -10 12 -5 9 0 48 0 14 5 50 1 rrcurveto
            return
          </CharString>
          <CharString index="315">
            36 1 39 0 42 0 57 0 62 0 64 -1 28 0 22 -5 30 0 10 0 2 8 2 9 5 25 18 62 18 51 0 1 1 2 0 1 rrcurveto
            5 -4 4 -5 vhcurveto
            -13 0 -9 -16 -9 -16 -28 -53 -32 -7 -48 -1 rrcurveto
            -54 hlineto
            -77 0 -103 1 -46 6 -11 1 -4 8 7 8 rrcurveto
            221 249 rlineto
            4 5 7 7 -10 10 -34 34 -150 161 -31 39 -2 3 -2 3 0 3 0 4 4 3 15 0 67 0 148 -7 60 -4 32 -2 32 -18 18 -49 rrcurveto
            5 -12 2 -20 15 0 8 0 2 7 0 9 0 7 -1 8 -1 7 -4 23 -7 46 -6 42 -2 15 -8 2 -5 0 -5 0 -10 -6 -10 -8 rrcurveto
            -8 -6 -36 -2 -29 0 -55 -1 -51 0 -49 0 -89 0 -75 1 -74 2 rrcurveto
            -6 -10 -5 -13 hvcurveto
            return
          </CharString>
          <CharString index="316">
            27 6 1 34 vhcurveto
            99 hlineto
            return
          </CharString>
          <CharString index="317">
            0 -25 46 0 0 -19 rrcurveto
            -6 -10 -24 -23 vhcurveto
            -95 hlineto
            -20 0 -15 1 -24 0 -17 0 -12 -3 0 -8 0 -9 19 -7 14 -4 28 -8 12 -50 1 -51 rrcurveto
            return
          </CharString>
          <CharString index="318">
            2 -77 2 -90 0 -44 rrcurveto
            -156 -62 -108 -127 -132 -88 126 132 vhcurveto
            255 vlineto
            0 40 26 27 16 5 22 7 11 4 0 9 0 8 -12 3 -17 0 -21 0 -28 -2 -31 0 -37 0 -29 3 -30 0 -17 0 -12 -3 0 -8 rrcurveto
            0 -9 10 -7 23 -6 22 -6 24 -19 0 -48 rrcurveto
            -225 vlineto
            -194 85 -142 192 vhcurveto
            144 0 106 113 5 155 rrcurveto
            return
          </CharString>
          <CharString index="319">
            3 92 0 86 7 115 2 40 3 15 26 7 58 15 48 31 0 58 rrcurveto
            23 -18 41 -20 vhcurveto
            -29 -31 -34 -19 hvcurveto
            return
          </CharString>
          <CharString index="320">
            0 7 -1 9 0 9 0 12 2 12 8 3 66 24 48 23 0 58 rrcurveto
            23 -9 28 -31 -29 -26 -8 -25 vhcurveto
            0 -18 7 -6 15 -10 11 -7 4 -4 0 -14 0 -12 -53 -11 -17 -5 -8 -2 -21 -10 -101 -5 rrcurveto
            -4 -19 -3 -12 -14 18 -3 5 hvcurveto
            20 -1 45 -8 0 -41 rrcurveto
            -183 vlineto
            0 -41 -30 -23 -15 -11 -25 -19 -25 -1 -34 0 rrcurveto
            -43 -41 43 48 hvcurveto
            195 vlineto
            0 30 2 16 4 31 1 10 -5 5 -10 -1 -39 -9 -10 -6 -54 -2 -5 -1 -10 -3 0 -13 0 -10 10 -4 3 -1 30 -12 13 -16 0 -29 rrcurveto
            -203 vlineto
            -78 49 -41 65 vhcurveto
            62 0 51 20 52 51 rrcurveto
            -6 vlineto
            0 -17 -5 -36 0 -13 0 -3 -1 -1 4 0 6 0 14 4 4 2 rrcurveto
            return
          </CharString>
          <CharString index="321">
            29 12 36 15 52 7 5 0 9 3 0 11 0 12 -10 2 -5 -1 -10 -2 -26 -1 -10 0 rrcurveto
            -16 -2 28 41 hvcurveto
            return
          </CharString>
          <CharString index="322">
            159 hlineto
            16 14 -1 -10 hvcurveto
            0 -10 -4 -7 -6 -7 rrcurveto
            -137 -175 rlineto
            -17 -21 0 -2 0 -11 0 -13 9 -3 14 0 11 0 -1 1 13 0 rrcurveto
            82 51 -80 -77 -86 -47 -86 -105 hvcurveto
            -55 0 -56 43 -28 70 -12 29 -8 15 -4 0 -10 0 -10 -7 0 -8 0 -36 7 -43 4 -28 3 -18 18 -13 13 -6 32 -15 35 -14 54 0 rrcurveto
            121 0 137 67 1 152 0 116 -89 61 -100 0 -6 0 2 7 3 4 rrcurveto
            181 238 rlineto
            4 5 -4 17 -6 0 -10 0 -16 -3 -20 0 rrcurveto
            -216 0 -22 0 rlineto
            -23 0 -22 1 -6 4 -10 8 -10 6 -5 0 -5 0 -9 -2 -1 -15 -4 -42 -16 -48 -7 -21 -3 -8 -4 -11 0 -8 0 -6 3 -5 6 0 rrcurveto
            15 0 8 20 5 12 18 49 42 21 33 0 rrcurveto
            return
          </CharString>
          <CharString index="323">
            -6 5 -6 4 -3 0 -4 0 -6 -1 0 -10 0 -25 -4 -53 -8 -19 -4 -8 -4 -14 9 0 10 0 12 19 5 6 20 26 31 29 20 1 rrcurveto
            return
          </CharString>
          <CharString index="324">
            -15 -9 -21 -9 -6 7 -6 7 hvcurveto
            210 hlineto
            17 14 20 10 6 -7 6 -6 hvcurveto
            return
          </CharString>
          <CharString index="325">
            0 89 7 30 0 12 0 3 -3 4 -3 0 -1 0 0 -1 -1 0 -32 -12 -33 -16 -51 -12 -4 -1 -3 -5 0 -6 0 -6 3 -6 5 -1 rrcurveto
            33 -7 13 -27 0 -38 rrcurveto
            -149 vlineto
            0 -66 48 -59 30 -19 32 -20 43 -63 0 -35 0 -67 -41 -66 -67 0 -50 0 -11 11 -33 36 -5 5 -11 5 -9 0 -10 0 -28 -17 0 -17 rrcurveto
            0 -4 2 -4 3 -4 30 -37 47 -11 43 0 113 0 101 72 0 124 0 50 -61 71 -39 28 -39 28 -18 47 0 36 rrcurveto
            return
          </CharString>
          <CharString index="326">
            -673 vlineto
            -7 6 -7 6 9 24 8 16 vhcurveto
            681 vlineto
            7 -7 6 -7 -6 -25 -14 -17 vhcurveto
            return
          </CharString>
          <CharString index="327">
            -13 -11 -14 -9 -6 7 -6 7 hvcurveto
            229 hlineto
            15 16 6 15 hvcurveto
            0 1 1 1 0 1 rrcurveto
            6 -8 5 -6 vhcurveto
            return
          </CharString>
          <CharString index="328">
            -49 53 -66 102 110 82 116 118 103 -72 91 -101 -96 -66 -66 -25 -9 5 -7 7 vhcurveto
            3 0 3 2 3 3 26 34 45 16 42 0 rrcurveto
            75 49 -66 -80 -34 -2 -3 -16 hvcurveto
            -155 hlineto
            -49 -48 -8 -70 hvcurveto
            return
          </CharString>
          <CharString index="329">
            -12 -22 -31 -47 -56 0 -48 0 -37 42 0 32 0 7 1 43 11 2 21 4 23 1 29 0 rrcurveto
            90 hlineto
            12 3 -13 -15 hvcurveto
            0 -13 -3 -15 -3 -6 rrcurveto
            return
          </CharString>
          <CharString index="330">
            54 77 62 43 hvcurveto
            0 8 -7 1 -5 -3 -9 -5 -38 -35 -35 0 rrcurveto
            -35 -31 26 35 100 112 73 0 hvcurveto
            -26 hlineto
            0 -171 -91 -101 -63 51 -50 63 hvcurveto
            return
          </CharString>
          <CharString index="331">
            56 44 61 19 6 -4 1 -4 hvcurveto
            -5 0 -19 -21 -35 0 rrcurveto
            -34 -26 25 44 109 90 61 0 hvcurveto
            -26 hlineto
            0 -138 -90 -107 -74 43 -34 58 hvcurveto
            return
          </CharString>
          <CharString index="332">
            -72 -76 -106 -97 vhcurveto
            -12 0 -16 4 -20 11 rrcurveto
            return
          </CharString>
          <CharString index="333">
            -17 9 -7 17 -18 0 -11 0 -3 -13 0 -11 0 -18 3 -15 15 -7 rrcurveto
            return
          </CharString>
          <CharString index="334">
            30 -16 45 -1 11 0 rrcurveto
            141 117 147 107 86 -63 67 -82 hvcurveto
            -2 0 -8 -2 -7 0 -8 0 -6 3 5 10 46 85 27 45 52 80 13 20 7 11 10 18 2 4 -4 8 -5 0 -53 -1 -54 -1 -62 0 rrcurveto
            -72 hlineto
            -19 0 -24 1 -5 4 rrcurveto
            return
          </CharString>
          <CharString index="335">
            7 0 8 1 7 0 31 0 32 -3 31 -1 15 -1 -3 -5 -3 -4 rrcurveto
            -124 -203 rlineto
            -12 -20 -12 -22 -3 -8 1 -1 -10 -17 14 0 14 0 39 11 31 0 rrcurveto
            74 28 -87 -74 hvcurveto
            return
          </CharString>
          <CharString index="336">
            -10 16 -7 5 -13 0 rrcurveto
            -4 hlineto
            -30 -3 -19 -7 0 -18 0 -9 8 -9 9 -8 21 -18 52 -51 14 -16 6 -7 14 -11 8 0 6 0 5 5 0 7 0 10 -46 90 -14 24 rrcurveto
            return
          </CharString>
          <CharString index="337">
            0 -8 9 -10 9 -8 21 -18 52 -51 14 -16 6 -7 14 -11 8 0 5 0 6 5 0 8 0 7 -46 92 -14 24 -10 16 -7 5 -13 0 rrcurveto
            -4 hlineto
            -22 -2 -28 -10 0 -16 rrcurveto
            return
          </CharString>
          <CharString index="338">
            7 -10 15 -12 8 0 9 0 0 4 0 9 0 15 -43 113 -17 34 -5 10 -12 8 -10 0 -25 0 -24 -7 0 -16 0 -12 71 -100 26 -36 rrcurveto
            return
          </CharString>
          <CharString index="339">
            12 22 36 41 70 0 70 0 36 -41 12 -22 5 -9 7 -12 10 0 rrcurveto
            10 0 11 13 64 -70 66 -80 -80 -70 -55 -75 -13 0 -11 10 hvcurveto
            10 0 7 12 5 9 rrcurveto
            return
          </CharString>
          <CharString index="340">
            13 22 2 42 60 0 60 0 2 -42 13 -22 5 -9 2 -12 10 0 rrcurveto
            10 5 11 13 64 -37 52 -70 -70 -37 -41 -75 -13 5 -11 10 hvcurveto
            10 0 2 12 5 9 rrcurveto
            return
          </CharString>
          <CharString index="341">
            -6 9 -11 17 vhcurveto
            9 0 5 3 12 0 rrcurveto
            35 12 -30 -24 -29 -25 -10 -17 hvcurveto
            -49 0 -6 13 -8 0 rrcurveto
            -8 -8 -11 -23 -15 10 -17 35 45 84 48 68 hvcurveto
            0 47 -38 30 -28 12 -5 2 -10 7 5 7 rrcurveto
            34 52 rlineto
            50 -1 53 -2 59 0 8 0 4 8 2 9 7 26 10 59 0 18 0 8 -6 2 -7 1 -7 1 -3 -3 -4 -8 -8 -17 -16 -32 -18 -14 rrcurveto
            return
          </CharString>
          <CharString index="342">
            0 -48 -24 -18 -50 -9 -23 -4 -10 -5 0 -9 0 -8 12 -3 17 0 54 0 16 6 45 0 rrcurveto
            return
          </CharString>
          <CharString index="343">
            44 0 44 -1 46 -1 rrcurveto
            -73 -99 rlineto
            -3 -4 -3 -4 0 -7 rrcurveto
            return
          </CharString>
          <CharString index="344">
            7 0 6 6 13 0 rrcurveto
            35 24 -21 -36 -26 -13 -19 -26 hvcurveto
            -33 0 -13 11 -7 0 rrcurveto
            -4 -9 -5 -14 -19 3 -22 27 36 89 55 80 hvcurveto
            0 33 -29 29 -32 14 -4 1 -7 5 0 6 0 2 2 4 2 2 rrcurveto
            29 39 rlineto
            54 17 33 38 7 26 2 8 -1 12 -7 0 -3 0 -5 -4 -3 -3 -26 -34 -43 -10 -25 0 rrcurveto
            -90 -61 84 90 34 9 3 16 hvcurveto
            164 hlineto
            22 0 20 4 14 7 rrcurveto
            return
          </CharString>
          <CharString index="345">
            14 7 7 15 0 33 rrcurveto
            53 -48 38 -81 -113 -86 -98 -113 -133 77 -84 91 vhcurveto
            9 0 8 0 8 1 rrcurveto
            -72 -91 rlineto
            -3 -4 -2 -3 0 -3 rrcurveto
            -9 11 -6 7 vhcurveto
            return
          </CharString>
          <CharString index="346">
            24 17 24 11 20 0 rrcurveto
            26 28 -13 -39 -28 -32 -14 -26 hvcurveto
            -27 0 -29 15 -8 51 rrcurveto
            return
          </CharString>
          <CharString index="347">
            12 -3 12 -5 vhcurveto
            -114 hlineto
            -13 -9 5 9 hvcurveto
            44 vlineto
            9 -8 1 -6 vhcurveto
            return
          </CharString>
          <CharString index="348">
            -6 9 -5 8 vhcurveto
            5 0 18 15 12 0 rrcurveto
            return
          </CharString>
          <CharString index="349">
            -3 -5 2 3 0 -1 0 -7 4 -8 11 0 19 0 17 2 9 16 rrcurveto
            442 774 rlineto
            0 1 1 2 0 1 0 7 -7 6 -7 0 -19 0 -18 0 -9 -17 rrcurveto
            return
          </CharString>
          <CharString index="350">
            -3 -5 -2 -7 0 -1 0 -7 4 -4 11 0 19 0 17 2 9 16 rrcurveto
            264 471 rlineto
            4 8 7 14 0 5 0 7 -4 6 -7 0 -22 0 -16 -7 -11 -19 rrcurveto
            return
          </CharString>
          <CharString index="351">
            35 hlineto
            16 10 12 20 6 -7 6 -5 hvcurveto
            -49 55 hlineto
            0 45 6 68 4 41 0 3 -3 2 -4 0 -8 0 -45 -41 -67 -16 -4 -1 -3 -6 0 -5 0 -6 3 -6 5 -1 34 -7 12 -30 0 -36 rrcurveto
            -59 -59 vlineto
            -15 -4 -23 -9 -6 5 -6 6 hvcurveto
            67 -107 hlineto
            0 -69 0 -136 -29 -61 -19 -40 -23 -17 -24 -6 -2 -1 -9 -8 0 -8 0 -7 14 -3 7 0 40 0 60 67 25 68 29 80 1 101 0 62 rrcurveto
            return
          </CharString>
          <CharString index="352">
            66 0 52 -47 2 -60 1 -25 0 -43 0 -36 0 -47 0 -63 -20 -14 -25 -19 -27 -4 -34 0 rrcurveto
            -60 -95 48 133 115 68 62 72 hvcurveto
            return
          </CharString>
          <CharString index="353">
            16 -26 45 -69 -72 -77 -30 -83 vhcurveto
            0 -53 35 -28 39 -6 9 -1 1 -4 -10 -2 rrcurveto
            return
          </CharString>
          <CharString index="354">
            -39 -10 -49 -39 0 -58 rrcurveto
            -44 23 -70 104 86 55 54 38 7 -6 6 -6 vhcurveto
            -3 0 -3 -2 -3 -3 -26 -34 -18 -17 -42 0 rrcurveto
            -2 hlineto
            -53 -37 31 48 48 26 37 40 hvcurveto
            return
          </CharString>
          <CharString index="355">
            15 0 15 -11 22 0 rrcurveto
            16 16 14 13 15 -8 17 -24 hvcurveto
            return
          </CharString>
          <CharString index="356">
            -13 0 -23 -14 -19 0 rrcurveto
            -27 -28 24 51 50 30 23 36 hvcurveto
            46 0 14 -18 7 -27 3 -11 5 -6 9 0 rrcurveto
            10 21 17 17 hvcurveto
            return
          </CharString>
          <CharString index="357">
            40 25 -42 -39 -60 -47 -37 -53 hvcurveto
            -37 0 -39 20 -25 56 -6 14 -7 16 -5 0 -9 0 -6 -9 0 -16 0 -21 0 -11 6 -27 9 -35 76 -19 32 0 45 0 42 1 27 17 rrcurveto
            25 14 45 26 0 76 0 58 -43 29 -39 4 -4 0 1 6 3 1 27 11 5 2 15 14 rrcurveto
            return
          </CharString>
          <CharString index="358">
            66 0 52 -47 2 -60 1 -25 0 -43 0 -36 rrcurveto
            -39 vlineto
            -2 -41 -3 -33 -15 -11 -25 -19 -27 -4 -34 0 rrcurveto
            -60 -95 48 133 115 68 62 72 hvcurveto
            return
          </CharString>
          <CharString index="359">
            2 42 6 42 24 30 24 31 28 9 36 0 73 0 52 -74 13 -81 rrcurveto
            -256 hlineto
            0 0 -1 0 -1 1 rrcurveto
            return
          </CharString>
          <CharString index="360">
            -2 vlineto
            0 -39 -4 -48 -16 -31 -20 -39 -38 -16 -45 0 -75 0 -55 83 -7 92 rrcurveto
            return
          </CharString>
          <CharString index="361">
            191 vlineto
            124 99 103 124 117 -106 84 -117 hvcurveto
            95 vlineto
            0 90 7 34 0 12 0 3 -3 4 -3 0 -1 0 0 -1 -1 0 -32 -12 -33 -16 -51 -12 -4 -1 -3 -5 0 -6 0 -6 3 -6 5 -1 rrcurveto
            33 -7 13 -19 0 -39 rrcurveto
            -107 vlineto
            -124 -98 -103 -124 -117 105 -84 117 hvcurveto
            -191 vlineto
            0 -27 -23 -5 -20 -6 -11 -4 -12 -4 0 -10 0 -8 13 -1 7 0 rrcurveto
            3 hlineto
            39 0 4 5 35 0 35 0 4 -5 39 0 rrcurveto
            3 hlineto
            7 13 1 8 hvcurveto
            0 10 -12 4 -11 4 -20 6 -23 5 0 27 rrcurveto
            return
          </CharString>
          <CharString index="362">
            365 vlineto
            93 48 -100 -93 -87 -54 -85 -87 hvcurveto
            return
          </CharString>
          <CharString index="363">
            -363 vlineto
            -92 -48 99 92 86 54 86 86 hvcurveto
            return
          </CharString>
          <CharString index="364">
            29 12 36 15 52 7 5 0 9 3 0 11 0 12 -10 2 -5 -1 -10 -2 -26 -1 -10 0 rrcurveto
            -16 -2 28 43 hvcurveto
            return
          </CharString>
          <CharString index="365">
            33 0 29 -34 2 -24 1 -9 23 -12 10 0 4 0 2 1 0 3 0 28 -5 35 -12 15 -10 10 -29 13 -40 0 -98 0 -40 -61 0 -53 rrcurveto
            0 -49 49 -43 48 -34 rrcurveto
            return
          </CharString>
          <CharString index="366">
            21 42 26 31 19 0 rrcurveto
            28 7 -17 -24 -17 -18 -15 -26 hvcurveto
            return
          </CharString>
          <CharString index="367">
            -15 8 -3 12 25 37 17 40 36 47 32 36 85 50 -58 -95 vhcurveto
            0 -70 -43 -53 -30 -19 -22 -14 -56 -57 0 -66 rrcurveto
            -173 vlineto
            0 -27 -23 -5 -20 -6 -11 -4 -12 -4 0 -10 0 -8 13 -1 7 0 39 0 7 5 35 0 35 0 7 -5 39 0 7 0 13 1 0 8 rrcurveto
            0 10 -12 4 -11 4 -20 6 -23 5 0 27 rrcurveto
            182 vlineto
            0 36 18 47 39 28 29 21 77 78 0 84 rrcurveto
            108 -75 52 -116 -123 -68 -77 -61 vhcurveto
            return
          </CharString>
          <CharString index="368">
            0 -50 61 -71 39 -28 39 -28 18 -47 0 -36 rrcurveto
            -182 vlineto
            0 -27 -23 -5 -20 -6 -11 -4 -12 -4 0 -10 0 -8 13 -1 7 0 39 0 7 5 35 0 35 0 7 -5 39 0 7 0 13 1 0 8 rrcurveto
            0 10 -12 4 -11 4 -20 6 -23 5 0 27 rrcurveto
            206 vlineto
            0 66 -48 59 -30 19 -32 20 -43 63 0 35 0 67 41 66 67 0 50 0 11 -11 33 -36 5 -5 11 -5 9 0 10 0 28 17 0 17 rrcurveto
            0 4 -2 4 -3 4 -30 37 -47 11 -43 0 -113 0 -101 -72 0 -124 rrcurveto
            return
          </CharString>
          <CharString index="369">
            -101 vlineto
            -6 -3 -2 -2 vhcurveto
            -175 hlineto
            -3 -7 1 5 hvcurveto
            103 vlineto
            0 27 18 6 20 6 11 4 12 4 0 10 0 8 -13 1 -7 0 rrcurveto
            -3 hlineto
            -39 0 2 -5 -35 0 -35 0 0 5 -39 0 rrcurveto
            -3 hlineto
            -7 -13 -1 -8 hvcurveto
            0 -10 12 -4 11 -4 20 -6 18 -6 0 -27 rrcurveto
            -274 vlineto
            0 -28 -22 -5 -20 -6 -11 -4 -12 -4 0 -10 0 -8 13 -1 7 0 rrcurveto
            3 hlineto
            39 0 4 5 35 0 35 0 4 -5 39 0 rrcurveto
            3 hlineto
            7 13 1 8 hvcurveto
            0 10 -12 4 -11 4 -20 6 -24 5 0 28 rrcurveto
            121 vlineto
            5 0 2 3 vhcurveto
            183 hlineto
            3 1 0 -5 hvcurveto
            -123 vlineto
            0 -27 -22 -6 -20 -6 -11 -4 -12 -4 0 -10 0 -8 13 -1 7 0 rrcurveto
            3 hlineto
            39 0 4 5 35 0 35 0 4 -5 39 0 rrcurveto
            3 hlineto
            7 13 1 8 hvcurveto
            0 10 -12 4 -11 4 -20 6 -24 6 0 27 rrcurveto
            274 vlineto
            0 27 21 6 20 6 11 4 12 4 0 10 0 8 -12 1 -8 0 rrcurveto
            -3 hlineto
            -39 0 0 -5 -35 0 -35 0 2 5 -39 0 rrcurveto
            -3 hlineto
            -8 -12 -1 -8 hvcurveto
            0 -10 12 -4 11 -4 20 -6 15 -6 0 -27 rrcurveto
            return
          </CharString>
          <CharString index="370">
            16 28 12 18 18 0 rrcurveto
            117 hlineto
            9 2 -2 -3 hvcurveto
            0 -2 -1 -1 -1 -2 rrcurveto
            -170 -257 rlineto
            -3 -4 -2 -2 -2 0 rrcurveto
            -3 -1 7 12 hvcurveto
            return
          </CharString>
          <CharString index="371">
            0 -5 -2 -6 -4 -8 rrcurveto
            -39 -86 rlineto
            -4 -9 -3 -4 -3 0 -4 0 -4 6 -4 9 rrcurveto
            -40 94 rlineto
            -1 2 -1 2 0 2 0 10 11 8 11 3 7 2 8 6 0 6 rrcurveto
            6 -12 4 -3 vhcurveto
            -102 hlineto
            -3 -12 -4 -6 hvcurveto
            0 -6 8 -7 7 -1 12 -4 12 -6 0 -16 0 -6 -1 -6 -4 -9 rrcurveto
            -34 -83 rlineto
            -4 -9 -3 0 -3 8 rrcurveto
            -45 104 rlineto
            -2 4 -1 4 0 4 0 6 3 7 8 2 7 2 8 6 0 6 rrcurveto
            6 -12 4 -3 vhcurveto
            -103 hlineto
            -3 -12 -4 -6 hvcurveto
            0 -6 8 -6 7 -2 13 -4 18 -6 3 -7 rrcurveto
            90 -207 rlineto
            1 -3 4 -1 4 0 3 0 4 1 1 3 rrcurveto
            64 146 rlineto
            4 9 2 -2 2 -6 rrcurveto
            61 -147 rlineto
            1 -3 4 -1 4 0 4 0 4 1 1 3 rrcurveto
            89 197 rlineto
            7 15 13 8 13 4 7 2 8 6 0 6 rrcurveto
            6 -12 4 -3 vhcurveto
            -78 hlineto
            -3 -12 -4 -6 hvcurveto
            0 -17 33 5 0 -20 rrcurveto
            return
          </CharString>
          <CharString index="372">
            -318 hlineto
            -15 -9 -18 -10 hvcurveto
            -180 vlineto
            -7 6 -7 6 9 26 7 17 vhcurveto
            141 261 -151 vlineto
            -7 6 -7 6 9 26 7 17 vhcurveto
            188 vlineto
            6 -7 4 -6 vhcurveto
            return
          </CharString>
          <CharString index="373">
            -17 18 -17 18 19 18 17 17 18 -18 17 -19 vhcurveto
            -18 -18 -17 -18 hvcurveto
            return
          </CharString>
          <CharString index="374">
            40 28 8 21 vhcurveto
            13 0 18 -11 15 0 rrcurveto
            13 14 26 12 16 -20 9 -18 hvcurveto
            -27 0 -18 -10 -21 -17 -5 -4 -11 -9 0 6 1 19 1 16 0 4 -1 2 -7 2 -3 0 rrcurveto
            -2 hlineto
            -18 -10 -21 -16 -33 -7 -8 -2 0 -18 8 -2 22 -5 8 -17 0 -22 rrcurveto
            -112 vlineto
            -1 -16 -14 -3 -13 -3 -7 -3 -8 -5 0 -6 rrcurveto
            -6 12 -4 3 vhcurveto
            114 hlineto
            3 12 4 6 hvcurveto
            0 6 -8 5 -7 3 -13 3 -22 6 0 16 rrcurveto
            return
          </CharString>
          <CharString index="375">
            29 18 20 22 16 -18 20 -29 -48 -51 -41 -56 -70 65 -53 51 13 7 5 5 hvcurveto
            0 4 -5 5 -9 2 -43 9 -27 32 0 30 rrcurveto
            22 27 28 20 vhcurveto
            return
          </CharString>
          <CharString index="376">
            -6 -6 -10 -7 -4 2 -4 6 36 21 -26 -39 -28 -17 -24 -36 -6 -8 -10 -8 -5 3 -3 7 53 42 37 52 44 -38 35 -53 hvcurveto
            return
          </CharString>
          <CharString index="377">
            6 6 10 7 4 -2 4 -6 -36 -21 26 39 28 17 24 36 6 8 10 8 5 -3 3 -7 -53 -42 -37 -52 -44 38 -35 53 hvcurveto
            return
          </CharString>
          <CharString index="378">
            -24 30 -30 38 -12 16 -7 9 -15 13 -8 0 -9 0 0 -4 0 -9 0 -15 69 -121 19 -34 5 -9 7 -9 8 0 8 0 7 9 5 9 rrcurveto
            20 34 69 121 0 15 0 9 0 4 -9 0 -8 0 -15 -13 -7 -9 -12 -16 -30 -38 -24 -30 -3 -4 -1 0 -3 4 rrcurveto
            return
          </CharString>
          <CharString index="379">
            -138 vlineto
            -9 5 -10 8 13 14 13 7 vhcurveto
            139 vlineto
            8 -5 8 -8 -9 -18 -10 -8 vhcurveto
            return
          </CharString>
          <CharString index="380">
            -2 10 -3 11 -10 0 rrcurveto
            -10 -5 -11 -13 -50 37 -56 70 70 37 56 50 13 -5 11 -10 hvcurveto
            -10 0 -3 -11 -2 -10 -5 -25 -22 -34 -50 0 -50 0 -22 34 -5 25 rrcurveto
            return
          </CharString>
          <CharString index="381">
            26 36 71 100 0 12 0 16 -24 7 -25 0 -10 0 -12 -8 -5 -10 -17 -34 -43 -113 0 -15 0 -9 0 -4 9 0 8 0 15 12 7 10 rrcurveto
            return
          </CharString>
          <CharString index="382">
            292 vlineto
            0 54 4 21 0 7 rrcurveto
            2 -7 2 -4 vhcurveto
            -2 hlineto
            -21 -7 -21 -10 -33 -7 -8 -2 0 -18 8 -2 21 -4 9 -31 0 -9 rrcurveto
            -288 vlineto
            0 -16 -15 -2 -13 -4 -7 -2 -8 -7 0 -6 rrcurveto
            -6 12 -4 3 vhcurveto
            110 hlineto
            3 12 4 6 hvcurveto
            0 6 -8 7 -7 2 -13 4 -15 2 0 16 rrcurveto
            return
          </CharString>
          <CharString index="383">
            8 0 26 -3 3 -21 1 -5 17 -7 9 0 3 0 2 1 0 2 0 17 -1 13 -8 9 -6 6 -25 21 -26 0 rrcurveto
            -3 hlineto
            -52 -38 -30 -42 hvcurveto
            0 -38 34 -25 30 -21 rrcurveto
            return
          </CharString>
          <CharString index="384">
            21 -15 19 -16 1 -20 0 -10 -8 -20 -30 0 -20 0 -25 9 -5 20 -1 7 -26 -2 0 -6 0 -14 4 -14 4 -9 rrcurveto
            return
          </CharString>
          <CharString index="385">
            4 -8 42 -13 13 0 75 0 34 32 0 42 0 33 -41 26 -16 15 -18 17 -34 22 0 16 rrcurveto
            13 7 18 26 vhcurveto
            return
          </CharString>
          <CharString index="386">
            -18 -6 -29 -9 -6 7 -6 7 hvcurveto
            355 hlineto
            19 12 16 22 6 -7 6 -6 hvcurveto
            return
          </CharString>
          <CharString index="387">
            6 0 5 3 3 6 15 31 7 11 19 0 16 0 16 -12 0 -16 0 -16 -8 -8 -14 -12 -11 -10 -15 -17 0 -12 0 -14 15 -18 13 0 rrcurveto
            10 0 13 2 -5 9 -3 6 -2 5 0 4 0 6 4 5 12 5 35 15 17 28 0 17 0 39 -39 21 -39 0 -38 0 -23 -11 -20 -12 rrcurveto
            -9 -5 -4 -9 0 -10 0 -14 6 -17 18 0 rrcurveto
            return
          </CharString>
          <CharString index="388">
            30 -2 17 -23 0 -21 0 -33 -27 -33 -43 -9 -9 -2 -5 -5 0 -4 rrcurveto
            -5 6 -5 12 vhcurveto
            2 hlineto
            51 2 65 57 0 64 rrcurveto
            56 -51 41 -48 -29 -18 -20 -16 vhcurveto
            0 -22 18 -19 29 -1 rrcurveto
            return
          </CharString>
          <CharString index="389">
            -44 -43 -40 -44 -44 37 -39 44 44 43 38 51 44 -37 34 -44 hvcurveto
            return
          </CharString>
          <CharString index="390">
            28 12 23 28 28 24 -29 -28 -28 -14 -26 -28 -28 -22 27 33 vhcurveto
            return
          </CharString>
          <CharString index="391">
            -8 0 -14 -39 -38 0 rrcurveto
            return
          </CharString>
          <CharString index="392">
            -54 0 -3 16 -46 0 rrcurveto
            -53 -34 -83 -4 -11 5 -8 8 hvcurveto
            6 0 13 33 38 0 rrcurveto
            return
          </CharString>
          <CharString index="393">
            54 0 8 -16 46 0 rrcurveto
            53 29 88 4 hvcurveto
            11 -4 9 -6 vhcurveto
            return
          </CharString>
          <CharString index="394">
            18 13 30 9 6 -7 5 -6 hvcurveto
            -363 hlineto
            -18 -6 -29 -9 -6 7 -6 7 hvcurveto
            return
          </CharString>
          <CharString index="395">
            42 11 20 31 vhcurveto
            150 hlineto
            25 0 23 -6 19 -21 9 -10 7 -17 7 -22 2 -7 5 -9 7 0 6 0 5 8 0 6 0 35 -5 35 -1 41 rrcurveto
            return
          </CharString>
          <CharString index="396">
            -2 0 -19 -3 -5 0 rrcurveto
            -290 hlineto
            return
          </CharString>
          <CharString index="397">
            -46 0 -18 3 -54 0 -17 0 -12 -3 0 -8 0 -9 10 -7 23 -4 50 -9 17 -16 0 -47 rrcurveto
            -452 vlineto
            0 -47 -28 -18 -50 -9 -23 -4 -10 -5 0 -9 0 -8 12 -3 17 0 54 0 24 5 50 0 46 0 17 -5 54 0 17 0 12 3 0 8 rrcurveto
            0 9 -10 5 -23 4 -50 9 -29 18 0 47 rrcurveto
            return
          </CharString>
          <CharString index="398">
            -190 160 -144 177 219 117 169 180 197 -154 132 -174 vhcurveto
            -8 hlineto
            -219 -5 -118 -159 0 -180 rrcurveto
            return
          </CharString>
          <CharString index="399">
            -175 528 rlineto
            -3 9 -2 5 -5 0 -5 0 -8 -12 -15 -7 -11 -5 -9 -6 -12 -4 -2 -1 1 -16 -3 -11 -3 -12 -4 -9 -3 -9 rrcurveto
            -187 -470 rlineto
            -20 -51 -32 -16 -34 -10 -22 -7 -11 -7 0 -9 0 -8 12 -5 17 0 33 0 43 6 44 0 37 0 36 -2 18 0 17 0 12 3 0 8 rrcurveto
            0 9 -10 5 -23 6 -31 8 -28 20 0 28 0 5 1 5 2 6 rrcurveto
            155 440 rlineto
            4 11 2 6 2 0 3 0 2 -6 4 -12 rrcurveto
            131 -436 rlineto
            3 -11 2 -10 0 -8 0 -22 -13 -13 -39 -10 -18 -5 -15 -6 0 -9 0 -8 12 -3 17 0 24 0 36 1 39 0 45 0 66 -6 28 0 rrcurveto
            17 12 2 8 hvcurveto
            0 9 -10 10 -23 4 -40 7 -34 13 -27 80 rrcurveto
            return
          </CharString>
          <CharString index="400">
            -150 0 -73 -198 -4 0 -4 0 -41 198 -150 0 -63 0 -62 -59 -13 -16 -13 -15 1 -7 0 0 0 -4 7 -3 3 3 25 24 46 27 49 0 rrcurveto
            81 0 41 -72 28 -76 22 -60 3 -65 0 -40 rrcurveto
            -179 vlineto
            0 -48 -28 -27 -50 -9 -23 -4 -10 -5 0 -9 0 -8 12 -3 17 0 54 0 24 5 50 0 46 0 17 -5 54 0 17 0 12 3 0 8 rrcurveto
            0 9 -10 5 -23 4 -50 9 -29 30 0 45 rrcurveto
            180 vlineto
            0 38 4 82 16 45 30 84 61 63 89 0 41 0 42 -11 31 -22 3 -2 6 4 0 4 0 4 -7 8 -4 4 -27 27 -37 34 -61 0 rrcurveto
            return
          </CharString>
          <CharString index="401">
            164 vlineto
            0 13 0 12 11 1 46 6 47 15 33 29 32 28 26 52 25 62 13 33 29 53 56 0 12 0 4 4 0 6 0 7 -6 9 -6 6 rrcurveto
            -18 17 -14 1 -27 0 -52 0 -47 -73 -29 -93 -21 -68 -34 -58 -70 -8 -10 -1 0 3 0 15 rrcurveto
            217 vlineto
            0 46 21 16 50 9 23 4 10 7 0 9 0 8 -12 3 -17 0 -54 0 -12 -3 -43 0 -46 0 -17 3 -54 0 -17 0 -12 -3 0 -8 rrcurveto
            0 -9 10 -7 23 -4 50 -9 17 -16 0 -46 rrcurveto
            -215 vlineto
            0 -15 -1 -5 -5 1 -70 7 -34 59 -21 68 -29 93 -47 73 -52 0 -27 0 -14 -1 -18 -17 -6 -6 -6 -9 0 -7 0 -6 4 -4 12 0 rrcurveto
            56 0 29 -53 13 -33 25 -62 26 -52 32 -28 33 -29 40 -14 46 -7 8 -1 6 8 0 -27 rrcurveto
            -170 vlineto
            0 -48 -28 -18 -50 -9 -23 -4 -10 -5 0 -9 0 -8 12 -3 17 0 54 0 24 5 50 0 46 0 17 -5 54 0 17 0 12 3 0 8 rrcurveto
            0 9 -10 5 -23 4 -50 9 -29 18 0 48 rrcurveto
            return
          </CharString>
          <CharString index="402">
            5 -2 -10 -7 -6 0 -19 -2 -21 0 -18 0 rrcurveto
            -21 hlineto
            -49 0 -38 6 -21 37 -9 16 -9 14 -13 0 -5 0 -4 -4 0 -5 0 -1 1 -2 0 -1 18 -51 18 -42 5 -25 2 -9 2 -8 10 0 rrcurveto
            30 0 22 5 28 0 37 0 22 1 16 0 34 0 10 -1 56 0 7 0 2 6 -1 5 -4 26 -6 23 -15 11 -87 64 -46 117 0 125 rrcurveto
            120 80 134 128 137 85 -162 -137 vhcurveto
            0 -105 -64 -103 -63 -47 -4 -3 -14 -16 -4 -10 -1 -3 -8 -21 0 -13 0 -7 2 -4 6 0 56 0 10 1 33 0 17 0 22 -1 37 0 rrcurveto
            28 0 22 -5 30 0 10 0 2 8 2 9 5 25 18 42 18 51 0 1 1 2 0 1 0 5 -4 4 -5 0 -13 0 -9 -14 -9 -16 rrcurveto
            -21 -37 -39 -6 -48 0 rrcurveto
            -25 hlineto
            -22 0 -26 0 -23 4 -5 1 9 8 4 2 102 52 73 105 0 123 rrcurveto
            166 -148 133 -161 -176 -145 -141 -178 vhcurveto
            0 -119 74 -98 103 -47 rrcurveto
            return
          </CharString>
          <CharString index="403">
            59 0 56 -55 13 -17 26 -34 32 -78 20 -52 36 -93 62 -18 57 0 25 0 29 9 13 9 4 3 4 5 0 5 0 6 -5 6 -6 0 rrcurveto
            -109 1 -26 71 -15 41 -13 37 -23 67 -32 41 -34 44 -28 16 -17 6 -7 2 -3 1 11 7 22 14 25 24 16 25 14 22 16 26 27 63 rrcurveto
            20 47 14 7 25 0 6 0 18 -14 17 0 rrcurveto
            23 10 28 17 27 -32 20 -27 hvcurveto
            -39 0 -47 -52 -28 -63 -27 -61 -19 -42 -15 -20 -21 -28 -60 -41 -70 0 rrcurveto
            -5 -1 4 15 hvcurveto
            174 vlineto
            return
          </CharString>
          <CharString index="404">
            0 39 4 23 50 9 23 4 10 7 0 9 0 8 -12 3 -17 0 -54 0 -2 -3 -36 0 -46 0 -17 3 -54 0 -17 0 -12 -3 0 -8 rrcurveto
            0 -9 10 -7 23 -4 50 -9 17 -16 0 -46 rrcurveto
            -450 vlineto
            0 -50 -17 -18 -50 -9 -23 -4 -10 -5 0 -9 0 -8 12 -3 17 0 54 0 23 7 49 0 38 0 6 -7 54 0 17 0 12 3 0 8 rrcurveto
            0 9 -10 5 -23 4 -50 9 -19 34 0 43 rrcurveto
            200 vlineto
            6 0 13 9 vhcurveto
            return
          </CharString>
          <CharString index="405">
            21 0 6 18 6 10 rrcurveto
            350 550 rlineto
            2 2 3 2 1 0 rrcurveto
            4 0 -12 -12 hvcurveto
            -471 vlineto
            0 -39 -25 -14 -42 -8 -23 -4 -10 -5 0 -9 0 -8 12 -3 17 0 54 0 11 5 42 0 45 0 17 -5 54 0 17 0 12 3 0 8 rrcurveto
            0 9 -10 5 -23 4 -50 9 -17 18 0 49 rrcurveto
            464 vlineto
            0 38 27 11 50 9 23 4 10 7 0 9 0 8 -12 3 -17 0 -54 0 -53 -1 -55 0 -14 0 -2 -13 -8 -12 rrcurveto
            -347 -544 rlineto
            -5 -8 -6 5 0 14 rrcurveto
            457 vlineto
            0 39 18 23 50 9 23 4 10 7 0 9 0 8 -12 3 -17 0 -54 0 -11 -3 -41 0 -44 0 -15 3 -54 0 -17 0 -12 -3 0 -8 rrcurveto
            0 -9 10 -7 23 -4 50 -9 13 -16 0 -46 rrcurveto
            -463 vlineto
            0 -48 -28 -7 -50 -9 -23 -4 -10 -5 0 -9 0 -8 12 -3 17 0 54 0 54 3 43 0 rrcurveto
            return
          </CharString>
          <CharString index="406">
            -12 0 -29 -106 -92 0 rrcurveto
            -41 -43 22 41 22 -14 21 -22 -26 -15 -25 -26 -70 78 -32 70 80 74 56 80 7 -2 10 -6 hvcurveto
            return
          </CharString>
          <CharString index="407">
            17 36 19 32 35 7 23 5 10 6 0 9 0 8 -12 3 -17 0 -23 0 -36 -3 -37 0 -29 0 -16 1 -30 0 -17 0 -12 -3 0 -8 rrcurveto
            0 -9 19 -7 14 -4 23 -7 28 -27 0 -27 0 -6 -1 -5 -3 -5 rrcurveto
            -127 -274 rlineto
            -9 -20 -6 -9 -5 0 -5 0 -4 10 -7 19 rrcurveto
            -93 235 rlineto
            -15 38 -5 25 0 17 0 28 14 6 10 3 22 7 11 4 0 9 0 8 -12 3 -17 0 -21 0 -28 -2 -31 0 -46 0 -41 3 -30 0 rrcurveto
            -17 -12 -3 -8 hvcurveto
            0 -9 11 -6 22 -7 34 -10 30 -31 23 -57 rrcurveto
            148 -364 rlineto
            4 -10 6 -19 0 -13 0 -4 -1 -4 -1 -2 -22 -52 -23 -23 -45 0 -24 0 -20 23 -14 0 -11 -1 -29 -6 0 -21 0 -21 5 -17 18 -12 rrcurveto
            22 -15 24 -1 24 0 50 0 49 74 88 188 rrcurveto
            return
          </CharString>
          <CharString index="408">
            0 -47 -28 -18 -50 -9 -23 -4 -10 -5 0 -9 0 -8 12 -3 17 0 rrcurveto
            return
          </CharString>
          <CharString index="409">
            25 41 66 25 58 6 9 1 1 -12 0 -8 rrcurveto
            -211 vlineto
            0 -48 -28 -18 -50 -9 -23 -4 -10 -5 0 -9 0 -8 12 -3 17 0 54 0 24 5 50 0 46 0 17 -5 54 0 17 0 12 3 0 8 rrcurveto
            0 9 -10 5 -23 4 -50 9 -29 18 0 48 rrcurveto
            211 vlineto
            0 6 0 14 9 -1 58 -6 65 -25 25 -41 26 -43 4 -61 39 -77 rrcurveto
            return
          </CharString>
          <CharString index="410">
            30 -59 62 -35 57 0 rrcurveto
            return
          </CharString>
          <CharString index="411">
            25 0 34 9 13 9 4 3 1 5 0 5 rrcurveto
            return
          </CharString>
          <CharString index="412">
            6 -2 6 -6 vhcurveto
            -109 1 -26 73 -20 39 -18 34 -9 70 -32 41 -34 44 -61 23 -17 6 -7 2 -4 2 12 6 15 8 22 8 10 9 32 28 19 48 30 61 rrcurveto
            16 32 28 30 25 0 6 0 18 -10 17 0 rrcurveto
            23 6 21 17 27 -32 20 -27 hvcurveto
            -39 0 -46 -52 -28 -63 -27 -61 -23 -50 -17 -17 -25 -25 -46 -32 -70 -7 -5 -1 -1 5 0 15 rrcurveto
            179 vlineto
            return
          </CharString>
          <CharString index="413">
            0 47 21 10 50 9 23 4 10 7 0 9 0 8 -12 3 -17 0 -54 0 -12 -3 -43 0 -46 0 -17 3 -54 0 -17 0 -12 -3 0 -8 rrcurveto
            0 -9 10 -7 23 -4 50 -9 17 -10 0 -47 rrcurveto
            -179 vlineto
            0 -15 -1 -5 -5 1 -70 7 -46 32 -25 25 -17 17 -23 50 -27 61 rrcurveto
            return
          </CharString>
          <CharString index="414">
            -28 63 -46 52 -39 0 rrcurveto
            -27 -32 -20 -27 -17 6 -21 23 hvcurveto
            17 0 18 10 6 0 25 0 28 -30 16 -32 30 -61 19 -48 32 -28 10 -9 22 -8 15 -8 12 -6 -4 -2 -7 -2 -17 -6 -61 -23 -34 -44 rrcurveto
            -32 -41 -9 -70 -18 -34 -20 -39 -26 -73 -109 -1 -6 0 -2 -6 0 -6 rrcurveto
            return
          </CharString>
          <CharString index="415">
            0 -5 1 -5 4 -3 rrcurveto
            return
          </CharString>
          <CharString index="416">
            13 -9 34 -9 25 0 57 0 62 41 28 53 rrcurveto
            41 77 2 61 26 43 rrcurveto
            return
          </CharString>
          <CharString index="417">
            82 37 -73 -77 hvcurveto
            0 -86 -47 -85 -105 -1 rrcurveto
            -1 hlineto
            -55 0 -55 43 -28 70 -12 29 -8 15 -4 0 -10 0 -10 -7 0 -8 0 -36 7 -43 4 -28 3 -18 18 -13 13 -6 32 -15 35 -14 54 0 rrcurveto
            121 0 145 56 1 152 0 116 -79 30 -60 19 -6 2 1 6 5 2 33 13 13 10 21 20 rrcurveto
            return
          </CharString>
          <CharString index="418">
            15 15 17 36 0 45 0 109 -96 47 -100 0 -61 0 -46 -36 -44 -11 -9 -2 -2 -8 -2 -10 -6 -34 -4 -23 0 -35 0 -9 5 -16 5 0 rrcurveto
            5 0 18 10 3 15 24 91 41 37 54 0 rrcurveto
            2 hlineto
            103 -1 16 -80 0 -57 0 -58 -21 -65 -57 0 rrcurveto
            return
          </CharString>
          <CharString index="419">
            -42 0 1 6 -40 0 rrcurveto
            -13 -26 -8 -17 -19 27 -2 14 hvcurveto
            39 0 17 7 18 0 rrcurveto
            return
          </CharString>
          <CharString index="420">
            -117 99 -54 93 vhcurveto
            90 0 68 43 12 15 3 4 3 -4 0 -16 rrcurveto
            -223 vlineto
            0 -44 -27 -22 -42 -8 -23 -4 -10 -5 0 -9 0 -8 12 -3 17 0 54 0 11 5 42 0 41 0 10 -5 54 0 17 0 12 3 0 8 rrcurveto
            0 9 -10 5 -23 4 -50 9 -5 18 0 49 rrcurveto
            452 vlineto
            0 38 3 23 50 9 23 4 10 7 0 9 0 8 -12 3 -17 0 -54 0 -1 -3 -36 0 -46 0 -17 3 -54 0 -17 0 -12 -3 0 -8 rrcurveto
            0 -9 10 -7 23 -4 50 -9 17 -25 0 -36 rrcurveto
            -154 vlineto
            0 -11 -2 -8 -7 -5 -17 -14 -66 -31 -60 0 rrcurveto
            -77 -59 57 72 hvcurveto
            94 vlineto
            0 38 18 23 50 9 23 4 10 7 0 9 0 8 -12 3 -17 0 -54 0 -11 -3 -41 0 -40 0 -9 3 -54 0 -17 0 -12 -3 0 -8 rrcurveto
            0 -9 10 -7 23 -4 50 -9 3 -16 0 -45 rrcurveto
            return
          </CharString>
          <CharString index="421">
            0 -47 -28 -17 -50 -9 -23 -4 -10 -5 0 -9 0 -8 12 -3 17 0 rrcurveto
            return
          </CharString>
          <CharString index="422">
            -134 -77 -23 -79 vhcurveto
            -25 0 -28 14 -11 11 -12 12 -3 22 0 17 rrcurveto
            196 vlineto
            0 11 2 8 9 6 9 6 37 8 18 0 50 0 18 -10 18 -10 26 -15 48 -45 0 -74 rrcurveto
            return
          </CharString>
          <CharString index="423">
            -449 vlineto
            0 -49 -28 -18 -50 -9 -23 -4 -10 -5 0 -9 0 -8 12 -3 17 0 58 0 20 5 52 0 40 0 37 -4 18 0 67 0 53 10 40 24 rrcurveto
            36 21 64 33 0 110 0 116 -80 68 -121 0 -51 0 -19 -4 -24 -8 -2 -1 -17 -7 -2 0 -8 1 -1 18 0 31 rrcurveto
            142 vlineto
            0 46 22 17 50 9 23 4 10 7 0 9 0 8 -12 3 -17 0 -54 0 -12 -3 -43 0 -46 0 -17 3 -54 0 -17 0 -12 -3 0 -8 rrcurveto
            0 -9 10 -7 23 -4 50 -9 18 -16 0 -48 rrcurveto
            return
          </CharString>
          <CharString index="424">
            -134 -77 -23 -79 vhcurveto
            -25 0 -24 18 -11 11 -12 12 -4 22 -1 18 -1 37 -2 53 0 49 0 21 0 21 1 18 1 12 1 7 9 6 9 6 19 5 18 0 rrcurveto
            50 0 36 -15 18 -10 26 -15 48 -45 0 -74 rrcurveto
            return
          </CharString>
          <CharString index="425">
            1 -8 -4 0 -5 -2 -23 -10 -29 -3 -34 0 rrcurveto
            return
          </CharString>
          <CharString index="426">
            -47 0 -34 38 -73 0 -51 0 -54 -69 0 -3 0 -6 5 -8 6 3 17 8 25 13 50 0 rrcurveto
            return
          </CharString>
          <CharString index="427">
            43 0 52 -26 49 0 34 0 47 26 18 10 4 2 4 -3 -1 -8 -7 -148 -65 -154 -148 0 -81 0 -42 29 -35 32 -21 19 -13 26 -8 22 rrcurveto
            -4 12 -10 13 -6 0 rrcurveto
            -1 hlineto
            -8 -1 -4 -13 0 -11 0 -26 9 -43 7 -23 8 -25 23 -12 25 -9 37 -14 72 -6 60 0 rrcurveto
            184 125 178 178 173 -132 150 -173 hvcurveto
            -32 0 -56 -4 -43 -9 rrcurveto
            return
          </CharString>
          <CharString index="428">
            -19 -4 -40 -13 -17 -1 -8 0 -2 -16 -3 -14 -6 -29 -8 -48 -1 -32 0 -9 1 -15 10 1 11 1 3 17 3 13 8 32 31 36 12 11 rrcurveto
            10 10 39 41 92 0 rrcurveto
            142 0 72 -130 9 -139 rrcurveto
            return
          </CharString>
          <CharString index="429">
            261 vlineto
            0 11 5 24 17 3 rrcurveto
            10 hlineto
            18 0 39 -1 10 0 21 0 23 -31 5 -22 6 -26 5 -12 8 0 12 0 1 23 0 18 0 21 4 46 0 18 rrcurveto
            return
          </CharString>
          <CharString index="430">
            6 -7 4 -1 vhcurveto
            -5 hlineto
            -13 0 -23 -5 -34 -1 rrcurveto
            return
          </CharString>
          <CharString index="431">
            -17 -1 -18 0 -17 0 -53 0 -47 2 -2 0 rrcurveto
            return
          </CharString>
          <CharString index="432">
            -23 0 -10 3 -25 0 -4 0 -18 -5 0 -8 0 -10 11 -6 6 -1 33 -7 13 -27 0 -39 rrcurveto
            -238 vlineto
            0 -27 -20 -5 -20 -6 -11 -4 -12 -4 0 -10 0 -8 13 -1 7 0 rrcurveto
            3 hlineto
            39 0 4 5 35 0 35 0 4 -5 39 0 rrcurveto
            3 hlineto
            7 13 1 8 hvcurveto
            0 10 -12 4 -11 4 rrcurveto
            -20 6 -26 5 0 27 rrcurveto
            return
          </CharString>
          <CharString index="433">
            0 -30 -24 -1 -20 -6 -11 -4 -12 -4 0 -10 0 -10 18 1 5 0 39 0 4 5 35 0 35 0 0 -5 39 0 5 0 18 -1 0 10 rrcurveto
            0 10 -12 4 -11 4 -20 6 -23 4 0 28 rrcurveto
            134 vlineto
            5 5 4 5 vhcurveto
            32 0 37 -15 14 -22 13 -21 9 -76 19 -28 rrcurveto
            return
          </CharString>
          <CharString index="434">
            32 -47 45 -6 25 0 48 0 19 12 0 10 0 10 -17 5 -28 5 -20 4 -29 17 -14 21 -8 12 -15 64 -10 26 -12 32 -24 15 0 5 rrcurveto
            0 5 11 3 10 18 12 21 7 39 12 16 10 13 5 4 18 0 13 0 10 -22 15 0 rrcurveto
            21 14 32 15 16 -16 29 -33 hvcurveto
            -28 0 -27 -10 -23 -44 -12 -22 -18 -65 -23 -30 -13 -16 -59 -3 -21 0 rrcurveto
            -5 -6 -3 7 hvcurveto
            97 vlineto
            return
          </CharString>
          <CharString index="435">
            0 30 15 14 20 6 11 4 12 4 0 10 0 10 -18 -1 -5 0 -39 0 6 -5 -35 0 -35 0 4 5 -39 0 -5 0 -18 1 0 -10 rrcurveto
            0 -10 12 -4 11 -4 20 -6 18 -13 0 -31 rrcurveto
            -97 vlineto
            -7 -6 3 -5 vhcurveto
            -21 0 -59 3 -13 16 -23 30 -18 65 -12 22 rrcurveto
            return
          </CharString>
          <CharString index="436">
            -23 44 -27 10 -28 0 rrcurveto
            -33 -16 -29 -16 -15 14 -32 21 hvcurveto
            15 0 10 22 13 0 18 0 5 -4 10 -13 12 -16 7 -39 12 -21 10 -18 11 -3 0 -5 0 -5 -24 -15 -12 -32 -10 -26 -15 -64 -8 -12 rrcurveto
            -14 -21 -29 -17 -20 -4 -28 -5 -17 -5 0 -10 0 -10 19 -12 48 0 25 0 45 6 32 47 19 28 9 76 13 21 14 22 37 15 32 0 rrcurveto
            5 5 -4 -5 hvcurveto
            return
          </CharString>
          <CharString index="437">
            33 14 35 19 0 60 0 75 -60 25 -71 0 -41 0 -58 -20 -24 -11 -9 -4 -4 -15 -1 -10 -4 -30 -2 -1 0 -26 0 -13 0 -10 11 0 rrcurveto
            13 0 3 28 11 18 25 41 29 23 38 0 rrcurveto
            56 17 -47 -39 -40 -27 -24 -23 hvcurveto
            -19 0 -11 6 -13 0 rrcurveto
            -24 -17 -6 -19 -16 18 -6 16 hvcurveto
            22 0 10 6 15 0 rrcurveto
            return
          </CharString>
          <CharString index="438">
            40 17 -42 -39 -60 -39 -31 -53 hvcurveto
            -37 0 -39 20 -25 56 -6 14 -7 16 -5 0 -9 0 -6 -9 0 -16 0 -21 0 -11 6 -27 9 -35 76 -19 32 0 65 0 119 21 0 107 rrcurveto
            0 58 -43 23 -39 10 rrcurveto
            -7 2 1 2 6 3 rrcurveto
            return
          </CharString>
          <CharString index="439">
            10 0 3 6 2 4 rrcurveto
            183 327 rlineto
            1 2 3 -2 0 -5 rrcurveto
            -266 vlineto
            0 -27 -22 -6 -20 -6 -11 -4 -12 -4 0 -10 0 -8 13 -1 7 0 39 0 7 5 35 0 35 0 7 -5 39 0 7 0 13 1 0 8 rrcurveto
            0 10 -12 4 -11 4 -20 6 -24 6 0 27 rrcurveto
            274 vlineto
            0 27 21 6 20 6 11 4 12 4 0 10 0 8 -12 1 -8 0 -5 0 -43 -3 -5 0 -5 0 -40 3 -5 0 -10 0 -4 -7 -2 -4 rrcurveto
            -180 -323 rlineto
            -1 -2 -4 3 0 5 rrcurveto
            262 vlineto
            0 27 18 6 20 6 11 4 12 4 0 10 0 8 -13 1 -7 0 -39 0 -1 -5 -35 0 -35 0 -3 5 -39 0 -7 0 -13 -1 0 -8 rrcurveto
            0 -10 12 -4 11 -4 20 -6 18 -6 0 -27 rrcurveto
            -274 vlineto
            0 -28 -22 -5 -20 -6 -11 -4 -12 -4 0 -10 0 -8 13 -1 7 0 5 0 46 3 5 0 5 0 37 -3 5 0 rrcurveto
            return
          </CharString>
          <CharString index="440">
            -12 0 -10 -78 -89 0 rrcurveto
            -28 -31 16 28 21 -14 21 -21 -24 -13 -24 -25 -56 62 -28 56 66 68 39 66 10 -4 10 -6 hvcurveto
            return
          </CharString>
          <CharString index="441">
            -271 vlineto
            0 -28 -23 -1 -20 -6 -11 -4 -12 -4 0 -10 0 -10 18 1 5 0 39 0 4 5 35 0 35 0 4 -5 39 0 5 0 18 -1 0 10 rrcurveto
            0 10 -12 4 -11 4 -20 6 -25 4 0 28 rrcurveto
            134 vlineto
            5 5 4 5 vhcurveto
            52 0 17 -15 14 -22 13 -21 9 -76 19 -28 rrcurveto
            return
          </CharString>
          <CharString index="442">
            0 30 17 14 20 6 11 4 12 4 0 10 0 10 -18 -1 -5 0 -39 0 2 -5 -35 0 -35 0 4 5 -39 0 -5 0 -18 1 0 -10 rrcurveto
            0 -10 12 -4 11 -4 rrcurveto
            20 -6 17 -13 0 -29 rrcurveto
            return
          </CharString>
          <CharString index="443">
            -6 5 -6 4 -3 0 -4 0 -11 -8 0 -10 0 -25 -7 -47 -5 -18 -1 -3 0 -4 0 -4 0 -6 1 -5 6 0 10 0 12 18 3 7 rrcurveto
            return
          </CharString>
          <CharString index="444">
            20 -6 15 -19 10 -24 rrcurveto
            116 -293 rlineto
            3 -8 1 -10 0 -11 0 -9 -1 -8 -2 -6 -29 -77 -26 -77 -21 -36 -3 -5 -4 -2 -3 0 -11 0 -12 19 -10 0 rrcurveto
            -19 -24 -24 -25 -22 20 -20 23 hvcurveto
            29 0 19 14 12 27 41 96 49 126 4 9 rrcurveto
            136 324 rlineto
            13 32 26 29 20 6 11 4 12 4 0 10 0 8 -13 1 -7 0 rrcurveto
            -3 hlineto
            -19 0 -2 -5 -35 0 -35 0 -18 5 -15 0 rrcurveto
            -3 hlineto
            -7 -13 -1 -8 hvcurveto
            0 -10 12 -4 11 -4 14 -4 9 -24 0 -25 0 -10 -1 -11 -4 -9 rrcurveto
            -67 -178 rlineto
            -5 -14 -4 -1 -6 14 rrcurveto
            -79 196 rlineto
            -3 7 -1 8 0 8 0 19 8 20 14 4 11 4 12 4 0 10 0 8 -12 1 -8 0 rrcurveto
            -3 hlineto
            -39 0 1 -5 -35 0 -35 0 4 5 -39 0 rrcurveto
            -3 hlineto
            -7 -13 -1 -8 hvcurveto
            0 -10 12 -4 11 -4 rrcurveto
            return
          </CharString>
          <CharString index="445">
            0 -27 -16 -5 -20 -6 -11 -4 -12 -4 0 -10 0 -10 18 1 5 0 rrcurveto
            return
          </CharString>
          <CharString index="446">
            1 -55 54 -30 56 0 39 0 47 8 27 15 5 3 3 -5 0 -11 rrcurveto
            -109 vlineto
            0 -27 -22 -6 -20 -6 -11 -4 -12 -4 0 -10 0 -8 13 -1 7 0 rrcurveto
            3 hlineto
            39 0 4 5 35 0 35 0 4 -5 39 0 rrcurveto
            3 hlineto
            7 13 1 8 hvcurveto
            0 10 -12 4 -11 4 -20 6 -24 6 0 27 rrcurveto
            274 vlineto
            0 27 21 6 20 6 11 4 12 4 0 10 0 8 -12 1 -8 0 rrcurveto
            -3 hlineto
            -39 0 0 -5 -35 0 -35 0 2 5 -39 0 rrcurveto
            -3 hlineto
            -8 -12 -1 -8 hvcurveto
            0 -10 12 -4 11 -4 20 -6 15 -6 0 -27 rrcurveto
            -103 vlineto
            0 -6 -3 -7 -11 -8 -20 -16 -32 -2 -31 0 rrcurveto
            -45 -21 32 38 hvcurveto
            72 vlineto
            0 27 16 6 20 6 11 4 12 4 0 10 0 8 -12 1 -8 0 rrcurveto
            -3 hlineto
            -39 0 5 -5 -35 0 -35 0 12 5 -39 0 rrcurveto
            -3 hlineto
            -7 -13 -1 -8 hvcurveto
            0 -10 12 -4 11 -4 20 -6 5 -6 0 -27 rrcurveto
            return
          </CharString>
          <CharString index="447">
            6 4 16 3 16 0 64 0 31 -30 0 -66 0 -30 -10 -20 -27 -21 -21 -16 -19 -2 -11 0 rrcurveto
            -7 hlineto
            -19 -28 20 28 hvcurveto
            104 vlineto
            0 5 -1 14 10 7 rrcurveto
            return
          </CharString>
          <CharString index="448">
            274 vlineto
            0 27 18 6 20 6 11 4 12 4 0 10 0 8 -17 1 -7 0 -38 0 2 -5 -35 0 -35 0 0 5 -39 0 -7 0 -16 -1 0 -8 rrcurveto
            0 -10 12 -4 11 -4 20 -6 18 -6 0 -27 rrcurveto
            -274 vlineto
            0 -28 -22 -5 -20 -6 -11 -4 -12 -4 0 -10 0 -8 17 -1 7 0 38 0 4 5 35 0 35 0 4 -5 39 0 8 0 15 1 0 8 rrcurveto
            0 10 -12 4 -11 4 -20 6 -24 5 0 28 rrcurveto
            return
          </CharString>
          <CharString index="449">
            80 -94 27 -44 vhcurveto
            -19 0 -36 -2 -12 -6 -4 -2 -6 3 0 5 rrcurveto
            101 vlineto
            0 27 18 6 20 6 11 4 12 4 0 10 0 8 -17 1 -7 0 -38 0 2 -5 -35 0 -35 0 4 5 -39 0 -8 0 -14 -1 0 -8 rrcurveto
            0 -10 12 -4 11 -4 20 -6 13 -6 0 -27 rrcurveto
            -274 vlineto
            0 -28 -22 -5 -20 -6 -11 -4 -12 -4 0 -10 0 -8 17 -1 7 0 38 0 4 5 35 0 35 0 4 -5 39 0 rrcurveto
            93 78 28 106 hvcurveto
            return
          </CharString>
          <CharString index="450">
            0 -4 -6 -5 -4 -2 -6 -4 -6 -3 -22 0 rrcurveto
            return
          </CharString>
          <CharString index="451">
            -30 0 -41 22 -25 0 rrcurveto
            -28 -45 -46 -10 -8 6 -1 6 hvcurveto
            10 0 25 18 23 0 rrcurveto
            return
          </CharString>
          <CharString index="452">
            33 0 22 -15 34 0 13 0 21 11 13 9 4 3 3 -6 0 -6 0 -100 -43 -64 -67 0 -44 0 -29 10 -38 43 -5 5 -12 21 -9 0 rrcurveto
            -9 -3 -13 -14 hvcurveto
            0 -38 6 -9 18 -11 40 -24 27 -6 43 0 rrcurveto
            120 79 113 120 103 -74 91 -101 hvcurveto
            -74 0 -44 -35 -27 -40 -5 -7 -5 -12 0 -8 0 -6 4 -4 6 0 4 0 6 2 4 5 34 36 25 20 42 0 rrcurveto
            87 44 -40 -91 hvcurveto
            return
          </CharString>
          <CharString index="453">
            6 4 16 3 16 0 64 0 31 -27 0 -66 0 -30 -6 -20 -27 -21 -16 -13 -17 -2 -12 0 -8 0 -7 1 -2 0 rrcurveto
            -19 -28 20 28 hvcurveto
            97 vlineto
            0 5 -1 14 10 7 rrcurveto
            return
          </CharString>
          <CharString index="454">
            -3 -1 -3 0 -3 0 rrcurveto
            -454 hlineto
            -4 0 -4 1 -3 1 9 131 83 121 140 0 141 0 83 -100 18 -153 rrcurveto
            return
          </CharString>
          <CharString index="455">
            -5 -161 -76 -101 -145 0 -134 0 -98 126 -18 150 rrcurveto
            448 hlineto
            12 0 9 -6 7 -8 rrcurveto
            return
          </CharString>
          <CharString index="456">
            -138 -355 rlineto
            -7 -19 -6 -9 -5 0 -5 0 -6 9 -7 19 rrcurveto
            -130 346 rlineto
            -5 12 -2 10 0 9 0 34 33 7 31 6 23 4 10 7 0 9 0 8 -12 3 -17 0 -20 0 -42 -2 -40 0 -46 0 -45 3 -31 0 rrcurveto
            -17 -12 -3 -8 hvcurveto
            0 -9 11 -6 22 -7 34 -10 28 -42 17 -46 rrcurveto
            174 -466 rlineto
            11 -28 14 -43 5 0 7 0 16 45 12 30 rrcurveto
            186 468 rlineto
            return
          </CharString>
          <CharString index="457">
            14 33 18 19 25 0 6 0 25 -24 17 0 rrcurveto
            23 11 45 17 27 -36 22 -27 hvcurveto
            -39 0 -38 -13 -40 -102 rrcurveto
            return
          </CharString>
          <CharString index="458">
            28 152 61 169 41 0 13 0 17 -12 22 0 rrcurveto
            21 10 33 15 16 -25 29 -27 hvcurveto
            -89 0 -73 -214 -18 -102 -3 -15 -4 2 -5 14 rrcurveto
            -74 199 rlineto
            -3 8 -1 10 0 9 rrcurveto
            return
          </CharString>
          <CharString index="459">
            0 19 6 18 14 4 11 4 12 4 0 10 0 8 -13 1 -7 0 rrcurveto
            -3 hlineto
            -39 0 2 -5 -35 0 -35 0 4 5 -39 0 rrcurveto
            -3 hlineto
            -7 -13 -1 -8 hvcurveto
            0 -10 12 -4 11 -4 20 -6 16 -19 10 -24 rrcurveto
            122 -312 rlineto
            3 -9 12 -30 5 0 rrcurveto
            5 0 34 23 4 23 rrcurveto
            return
          </CharString>
          <CharString index="460">
            -193 0 -68 0 rlineto
            2 42 6 42 24 30 24 31 28 9 36 0 73 0 56 -72 12 -82 rrcurveto
            return
          </CharString>
          <CharString index="461">
            0 -39 -4 -50 -16 -31 -20 -39 -38 -16 -45 0 -75 0 -55 83 -7 92 rrcurveto
            return
          </CharString>
          <CharString index="462">
            6 15 0 0 6 -15 11 -31 37 -103 7 -27 3 -10 -1 0 -10 0 rrcurveto
            -117 hlineto
            -12 0 -5 1 4 9 22 48 32 71 17 42 rrcurveto
            return
          </CharString>
          <CharString index="463">
            27 0 16 5 28 0 39 0 20 -5 40 0 9 0 0 22 -9 2 -13 3 -32 15 0 26 0 6 1 7 1 6 3 18 1 -6 12 31 rrcurveto
            4 9 1 3 7 0 rrcurveto
            142 hlineto
            14 0 3 -1 2 -6 10 -27 -1 9 5 -25 2 -7 1 -7 0 -7 0 -28 -25 -15 -20 -4 -6 -1 -4 -23 9 0 33 0 30 5 41 0 rrcurveto
            38 0 21 -5 37 0 5 0 2 4 0 5 0 6 -3 8 -4 1 -17 4 -16 12 -12 13 -18 19 -9 15 -8 23 rrcurveto
            -125 347 rlineto
            -2 6 -1 3 -4 0 -3 0 -3 -5 -8 -9 -6 -7 -30 -22 -9 -2 -1 -1 -1 -19 -3 -12 -2 -10 -3 -10 -2 -6 -48 -117 -19 -48 -49 -103 rrcurveto
            -9 -18 -6 -11 -16 -13 -19 -16 -17 -6 -21 -7 -3 -1 -2 -7 0 -6 0 -5 1 -5 4 0 rrcurveto
            return
          </CharString>
          <CharString index="464">
            -134 -117 -101 -135 -128 105 -108 122 hvcurveto
            59 0 82 16 7 13 4 7 29 57 0 23 0 6 -2 4 -5 0 -5 0 -23 -5 -2 -8 -4 -13 -8 -24 -26 -15 -25 -15 -29 -11 -27 0 rrcurveto
            -3 hlineto
            -107 4 -59 108 0 106 0 90 51 98 101 0 42 0 43 -12 14 -14 8 -8 14 -19 3 -28 2 -16 12 -5 8 -1 6 -1 7 11 0 6 rrcurveto
            -1 37 -2 18 -2 21 -2 10 -2 10 -5 1 -12 4 -34 5 -11 4 -13 4 -37 4 -22 0 rrcurveto
            return
          </CharString>
          <CharString index="465">
            -14 11 -9 9 0 28 rrcurveto
            292 vlineto
            28 31 11 57 vhcurveto
            111 -1 64 -102 0 -77 0 -87 -22 -49 -23 -25 -19 -20 -28 -28 -62 0 rrcurveto
            -19 hlineto
            -33 0 -22 1 -12 9 rrcurveto
            return
          </CharString>
          <CharString index="466">
            85 0 71 40 33 42 23 29 31 46 0 83 0 115 -87 101 -176 0 -18 0 -85 -7 -25 0 -32 0 -22 2 -28 0 -10 0 5 -23 6 -2 rrcurveto
            38 -11 11 -13 0 -49 rrcurveto
            -261 vlineto
            return
          </CharString>
          <CharString index="467">
            -2 -35 -30 -22 -30 -8 rrcurveto
            -3 -1 -6 -6 -6 1 -6 3 hvcurveto
            17 0 40 3 39 0 rrcurveto
            8 hlineto
            54 -1 71 -5 13 0 rrcurveto
            return
          </CharString>
          <CharString index="468">
            -30 0 -21 2 -28 0 -8 0 2 -20 6 -1 27 -8 3 1 13 -15 8 -8 1 -23 0 -19 rrcurveto
            -278 vlineto
            0 -17 -7 -9 -12 -11 -14 -13 -9 -2 -22 -6 rrcurveto
            -3 -1 -6 -6 -6 1 -6 3 hvcurveto
            return
          </CharString>
          <CharString index="469">
            0 73 6 34 vhcurveto
            68 0 80 -5 95 0 7 0 1 6 1 6 6 22 8 37 3 27 0 12 -20 -3 -4 -8 -5 -11 -15 -25 -12 -10 -9 -7 -36 -5 -3 0 rrcurveto
            -88 hlineto
            -30 0 -12 23 -1 28 -1 39 -1 29 0 42 rrcurveto
            19 26 1 19 vhcurveto
            10 hlineto
            16 0 16 -2 16 -2 11 -2 15 -4 6 -21 2 -4 6 -15 10 0 6 0 1 6 -1 6 -1 19 -1 18 0 18 0 15 1 15 1 16 rrcurveto
            1 6 -6 5 -4 0 -3 0 -9 -10 -2 -3 -6 -17 -15 -11 -21 0 rrcurveto
            -87 hlineto
            -6 -1 8 7 hvcurveto
            0 39 3 55 5 30 1 9 8 9 8 0 rrcurveto
            106 hlineto
            35 0 17 -25 10 -31 2 -5 1 -2 5 0 4 0 7 2 0 4 0 24 -6 42 -5 26 -1 5 -7 1 -4 0 rrcurveto
            -11 hlineto
            -37 0 -108 -3 -81 0 rrcurveto
            return
          </CharString>
          <CharString index="470">
            24 25 30 5 hvcurveto
            0 7 -8 12 -5 -6 -4 -6 -5 -2 -12 0 rrcurveto
            -19 0 22 17 hvcurveto
            124 vlineto
            28 -30 25 -31 vhcurveto
            -34 0 -46 -25 -20 -17 -16 -13 -3 -10 -6 -15 -3 -7 3 -4 4 1 15 4 30 7 0 8 0 8 -1 10 3 7 5 8 22 5 16 0 rrcurveto
            24 13 -16 -20 hvcurveto
            -23 vlineto
            0 -16 -1 -2 -17 -6 rrcurveto
            -79 -28 rlineto
            -32 -12 -6 -16 0 -25 0 -23 32 -36 27 0 53 0 18 31 9 0 5 0 13 -31 37 0 rrcurveto
            return
          </CharString>
          <CharString index="471">
            9 0 44 12 32 5 3 1 2 6 0 7 0 6 -2 6 -3 0 -8 0 -11 -7 -13 0 rrcurveto
            -12 -4 9 48 hvcurveto
            256 vlineto
            0 54 8 21 0 7 -1 2 -1 1 -3 0 -10 0 -25 -14 -47 -10 -9 -2 1 -20 9 -2 22 -4 1 -31 0 -9 rrcurveto
            -75 vlineto
            -11 0 -4 -3 vhcurveto
            -4 0 -11 8 -28 0 rrcurveto
            -98 -52 -58 -85 hvcurveto
            return
          </CharString>
          <CharString index="472">
            -61 46 -53 74 vhcurveto
            43 0 37 32 1 0 rrcurveto
            3 0 1 -35 9 0 rrcurveto
            return
          </CharString>
          <CharString index="473">
            40 27 -30 -34 hvcurveto
            -77 vlineto
            -40 -43 -21 -22 -28 -43 11 92 80 44 19 25 vhcurveto
            return
          </CharString>
          <CharString index="474">
            -8 -7 -2 -3 0 -9 0 -28 20 -14 22 -4 rrcurveto
            return
          </CharString>
          <CharString index="475">
            132 vlineto
            47 -29 26 -42 vhcurveto
            -41 0 -38 -19 -15 -16 -10 -11 -5 -1 -4 10 -10 25 -19 12 -31 0 -51 0 -34 -27 -18 -15 -1 1 0 2 0 4 0 12 3 23 0 5 rrcurveto
            -1 2 -6 3 -4 0 -1 0 0 -1 -1 0 -21 -14 -9 -13 -33 -7 -9 -2 0 -19 9 -2 22 -4 0 -18 0 -22 rrcurveto
            -113 vlineto
            -1 -16 -10 -2 -13 -4 -7 -2 -8 -7 0 -6 rrcurveto
            -6 12 -4 3 vhcurveto
            101 hlineto
            3 12 4 6 hvcurveto
            0 6 -8 7 -7 2 -13 4 -9 2 -1 16 rrcurveto
            107 vlineto
            0 25 5 13 8 5 16 12 18 4 22 0 rrcurveto
            28 19 -28 -29 hvcurveto
            -109 vlineto
            0 -16 -10 -2 -13 -4 -7 -2 -8 -7 0 -6 rrcurveto
            -6 12 -4 3 vhcurveto
            103 hlineto
            3 12 4 6 hvcurveto
            0 6 -8 7 -7 2 -13 4 -11 2 0 16 rrcurveto
            107 vlineto
            0 24 5 14 8 5 16 12 18 4 22 0 rrcurveto
            28 20 -28 -29 hvcurveto
            -109 vlineto
            0 -16 -11 -2 -13 -4 -7 -2 -8 -7 0 -6 rrcurveto
            -6 12 -4 3 vhcurveto
            104 hlineto
            3 12 4 6 hvcurveto
            0 6 -8 7 -7 2 -13 4 -11 2 0 16 rrcurveto
            return
          </CharString>
          <CharString index="476">
            45 27 -52 -52 -48 -17 -44 -44 -44 -28 50 55 46 16 45 45 hvcurveto
            return
          </CharString>
          <CharString index="477">
            -21 -8 -24 -9 -33 -7 -9 -2 0 -19 9 -2 21 -4 9 -31 0 -9 rrcurveto
            return
          </CharString>
          <CharString index="478">
            21 vlineto
            1 25 8 11 10 7 rrcurveto
            return
          </CharString>
          <CharString index="479">
            16 11 17 10 22 0 rrcurveto
            28 42 -25 -67 -60 -51 -38 -25 -68 0 44 61 hvcurveto
            return
          </CharString>
          <CharString index="480">
            -9 -21 -16 -21 -27 -10 -1 -1 -1 -2 0 -3 0 -9 4 -15 3 -1 14 -1 9 3 0 -11 rrcurveto
            -143 vlineto
            -35 35 -23 35 vhcurveto
            35 41 18 16 hvcurveto
            return
          </CharString>
          <CharString index="481">
            4 0 10 3 2 1 rrcurveto
            return
          </CharString>
          <CharString index="482">
            19 7 29 10 34 4 3 0 1 12 0 4 0 4 -2 5 -3 -1 -6 -1 -25 0 -7 -1 rrcurveto
            -1 hlineto
            -10 0 18 24 hvcurveto
            119 vlineto
            0 10 5 28 3 4 3 5 -13 9 -6 0 rrcurveto
            -1 hlineto
            -23 -6 3 -5 -66 -3 -3 0 -3 -10 0 -4 0 -4 3 -8 3 -1 5 -2 36 -3 0 -25 rrcurveto
            -94 vlineto
            0 -25 -19 -13 -10 -7 rrcurveto
            return
          </CharString>
          <CharString index="483">
            -62 48 -56 63 56 52 34 22 6 -11 9 -7 vhcurveto
            -2 0 -2 -1 -1 -1 -17 -20 -17 -7 -27 0 rrcurveto
            -50 -31 40 58 42 26 42 42 hvcurveto
            32 0 13 -8 13 -21 3 -5 13 -3 7 6 7 6 8 9 0 8 0 3 -1 2 -2 3 -20 22 -30 7 -28 0 rrcurveto
            -75 -62 -60 -75 hvcurveto
            return
          </CharString>
          <CharString index="484">
            81 26 25 40 vhcurveto
            55 0 -11 -36 20 0 12 0 20 19 0 16 0 6 -3 5 -6 4 -22 15 -14 3 -29 0 -57 0 -87 -39 0 -139 -13 -6 -2 -1 -20 -5 rrcurveto
            -5 -1 5 -25 4 -1 14 -1 9 0 8 0 rrcurveto
            -157 vlineto
            0 -16 -13 -6 -13 -4 -7 -2 -8 -7 0 -6 rrcurveto
            -6 12 -3 3 vhcurveto
            110 hlineto
            3 12 3 6 hvcurveto
            0 6 -8 7 -7 2 -13 4 -14 6 -1 16 rrcurveto
            147 vlineto
            return
          </CharString>
          <CharString index="485">
            6 2 5 24 vhcurveto
            53 hlineto
            4 4 19 11 5 0 3 -2 hvcurveto
            -69 hlineto
            -8 -8 2 11 hvcurveto
            return
          </CharString>
          <CharString index="486">
            -12 1 -12 8 -5 0 -9 0 -1 -6 -1 -6 -2 -14 -4 -29 -5 -11 -3 -5 4 -10 6 0 6 0 8 10 3 4 13 16 15 12 12 0 rrcurveto
            60 hlineto
            10 0 -2 -3 -2 -3 -47 -70 -37 -49 -44 -58 -9 -11 -1 -8 0 -3 rrcurveto
            -3 6 -7 3 vhcurveto
            189 hlineto
            4 0 4 6 1 3 3 10 15 47 0 5 0 2 1 12 -6 0 -8 0 -9 -12 -2 -3 -20 -26 -11 -20 -20 0 rrcurveto
            -70 hlineto
            -4 0 -7 4 3 5 rrcurveto
            125 176 rlineto
            9 12 1 8 9 10 2 2 -3 5 -3 0 -32 -1 -32 -1 -36 0 -17 0 -17 0 -19 1 rrcurveto
            return
          </CharString>
          <CharString index="487">
            4 -3 2 -4 -6 -2 -106 -32 -65 -86 0 -91 0 -116 95 -85 81 0 rrcurveto
            3 hlineto
            150 3 82 107 0 117 0 106 -81 64 -79 60 rrcurveto
            return
          </CharString>
          <CharString index="488">
            7 7 69 77 0 12 0 15 -27 15 -10 0 -10 0 -7 -8 -6 -10 -5 -9 -38 -91 0 -15 0 -5 0 -3 5 0 5 0 11 9 6 6 rrcurveto
            return
          </CharString>
          <CharString index="489">
            6 -6 11 -9 5 0 5 0 0 3 0 5 0 15 -40 83 -5 9 -6 10 -7 8 -10 0 -10 0 -27 -15 0 -15 0 -12 71 -69 7 -7 rrcurveto
            return
          </CharString>
          <CharString index="490">
            -22 2 -17 26 0 16 0 70 53 30 43 9 9 2 5 5 0 5 rrcurveto
            6 -6 5 -12 vhcurveto
            -2 hlineto
            -51 -2 -91 -64 0 -101 rrcurveto
            -56 35 -41 48 29 26 19 27 vhcurveto
            0 22 -18 17 -29 3 rrcurveto
            return
          </CharString>
          <CharString index="491">
            22 -2 17 -26 0 -16 0 -70 -53 -30 -43 -9 -9 -2 -5 -5 0 -5 rrcurveto
            -6 6 -5 12 vhcurveto
            2 hlineto
            51 2 91 64 0 101 rrcurveto
            56 -35 41 -48 -29 -26 -19 -27 vhcurveto
            0 -22 18 -17 29 -3 rrcurveto
            return
          </CharString>
          <CharString index="492">
            0 -65 20 -30 0 -65 0 -7 -8 -3 -7 0 rrcurveto
            return
          </CharString>
          <CharString index="493">
            -48 0 -31 20 -42 0 rrcurveto
            -19 -15 -16 -19 -19 15 -16 19 hvcurveto
            return
          </CharString>
          <CharString index="494">
            49 0 27 20 49 0 5 0 6 -13 0 -5 rrcurveto
            return
          </CharString>
          <CharString index="495">
            0 -28 -31 -22 0 -15 0 -19 25 3 0 -372 rrcurveto
            -20 1 -27 20 17 2 29 20 vhcurveto
            0 357 27 11 0 18 rrcurveto
            return
          </CharString>
          <CharString index="496">
            0 16 -31 22 0 28 0 5 5 12 9 0 rrcurveto
            return
          </CharString>
          <CharString index="497">
            42 0 33 -20 49 0 rrcurveto
            21 11 17 18 23 -13 12 -23 hvcurveto
            return
          </CharString>
          <CharString index="498">
            -49 0 -32 -20 -42 0 -6 0 -5 4 0 6 rrcurveto
            return
          </CharString>
          <CharString index="499">
            0 63 20 34 0 63 rrcurveto
            24 -18 10 -17 vhcurveto
            return
          </CharString>
          <CharString index="500">
            0 7 -27 32 0 30 rrcurveto
            53 vlineto
            0 35 27 20 0 10 rrcurveto
            return
          </CharString>
          <CharString index="501">
            0 16 -31 23 0 29 0 5 5 12 9 0 rrcurveto
            return
          </CharString>
          <CharString index="502">
            42 0 34 -20 50 0 rrcurveto
            21 4 18 17 23 -6 12 -23 hvcurveto
            return
          </CharString>
          <CharString index="503">
            -49 0 -34 -20 -42 0 -6 0 -5 4 0 6 rrcurveto
            return
          </CharString>
          <CharString index="504">
            0 50 20 26 0 50 rrcurveto
            24 -18 5 -17 -17 -18 -11 -18 vhcurveto
            return
          </CharString>
          <CharString index="505">
            0 -65 20 4 0 -65 0 -7 -8 -3 -7 0 rrcurveto
            return
          </CharString>
          <CharString index="506">
            -48 0 -31 20 -42 0 rrcurveto
            -18 -11 -17 -18 -19 11 -16 18 hvcurveto
            return
          </CharString>
          <CharString index="507">
            0 -29 -31 -23 0 -15 0 -7 27 -28 0 -30 rrcurveto
            -53 vlineto
            0 -35 -27 -24 0 -10 rrcurveto
            return
          </CharString>
          <CharString index="508">
            0 -16 31 -22 0 -29 0 -5 -5 -12 -9 0 rrcurveto
            return
          </CharString>
          <CharString index="509">
            -42 0 -31 20 -47 0 rrcurveto
            -21 -10 -17 -18 -23 12 -12 23 hvcurveto
            return
          </CharString>
          <CharString index="510">
            47 0 30 20 42 0 6 0 5 -4 0 -6 rrcurveto
            return
          </CharString>
          <CharString index="511">
            0 -50 -20 -27 0 -50 rrcurveto
            -24 18 -6 17 17 18 12 18 vhcurveto
            return
          </CharString>
          <CharString index="512">
            0 65 -20 -3 0 65 0 7 8 3 7 0 rrcurveto
            return
          </CharString>
          <CharString index="513">
            48 0 31 -20 42 0 rrcurveto
            18 11 17 18 19 -11 16 -18 hvcurveto
            return
          </CharString>
          <CharString index="514">
            -49 0 -27 -20 -49 0 -5 0 -6 13 0 5 rrcurveto
            0 28 31 23 0 15 rrcurveto
            return
          </CharString>
          <CharString index="515">
            -61 -49 -49 -61 -61 49 -49 61 61 49 49 61 61 -49 49 -61 hvcurveto
            return
          </CharString>
          <CharString index="516">
            -1 -1 0 -1 0 -1 0 -6 9 -6 8 0 15 0 13 2 8 13 rrcurveto
            438 695 rlineto
            1 1 0 2 0 1 0 6 -7 7 -7 0 -17 0 -13 -3 -9 -14 rrcurveto
            return
          </CharString>
          <CharString index="517">
            67 9 -86 -67 -66 -6 -86 -66 -71 -7 93 71 62 12 79 62 hvcurveto
            return
          </CharString>
          <CharString index="518">
            -89 -56 -88 -89 -84 43 -91 84 92 51 95 91 81 -44 85 -81 hvcurveto
            return
          </CharString>
          <CharString index="519">
            0 86 -75 8 -72 20 -8 2 -6 6 0 4 0 7 2 4 4 7 3 8 10 2 3 0 20 3 30 -2 34 4 19 1 11 34 0 4 rrcurveto
            5 -1 5 -5 vhcurveto
            -45 0 -31 -5 -40 -9 -14 -3 -6 -9 -5 -12 -6 -15 -17 -48 -1 -24 0 -6 5 -12 10 -3 36 -12 85 -8 0 -62 rrcurveto
            -72 -54 -20 -56 -15 -4 -10 -6 -4 5 -5 10 vhcurveto
            42 0 39 15 22 12 36 20 35 32 0 58 rrcurveto
            return
          </CharString>
          <CharString index="520">
            -56 -21 -28 -37 -39 -35 32 60 vhcurveto
            0 132 94 57 54 21 4 2 11 5 4 9 2 5 -6 5 -4 0 -73 -18 -50 -32 -30 -28 -22 -21 -46 -52 0 -82 rrcurveto
            -67 37 -48 81 84 44 78 58 40 -16 38 -64 vhcurveto
            -22 0 -35 -22 -12 -12 -7 -5 -3 -5 0 -8 0 -4 2 -6 6 0 5 0 5 4 5 4 11 8 13 4 15 0 rrcurveto
            33 12 -35 -33 hvcurveto
            return
          </CharString>
          <CharString index="521">
            -137 -231 rlineto
            -7 -12 -8 -16 0 -4 0 -15 7 -7 15 0 4 0 9 16 6 11 rrcurveto
            141 255 rlineto
            9 17 19 16 0 16 rrcurveto
            5 -3 8 -4 vhcurveto
            -227 hlineto
            -3 0 -4 -2 -3 -9 -2 -5 -17 -49 0 -22 0 -6 1 -4 4 0 10 0 10 17 3 7 6 17 7 6 21 0 rrcurveto
            133 hlineto
            15 0 -3 -5 -2 -4 rrcurveto
            return
          </CharString>
          <CharString index="522">
            -2 -2 -3 2 -3 1 -40 32 -22 14 0 42 rrcurveto
            27 25 20 28 29 18 -27 -29 vhcurveto
            0 -33 -4 -26 -26 -21 rrcurveto
            return
          </CharString>
          <CharString index="523">
            -7 4 0 1 10 7 13 9 6 5 11 9 13 11 23 16 0 27 rrcurveto
            47 -51 25 -46 -50 -57 -26 -45 vhcurveto
            0 -48 36 -26 34 -28 4 -4 3 0 -6 -3 rrcurveto
            return
          </CharString>
          <CharString index="524">
            -29 -16 -55 -24 0 -49 rrcurveto
            -54 55 -31 54 56 65 39 61 vhcurveto
            0 44 -39 22 -43 27 rrcurveto
            return
          </CharString>
          <CharString index="525">
            3 2 2 1 2 0 4 0 3 -2 4 -3 33 -22 29 -29 0 -34 rrcurveto
            -32 -19 -29 -34 -38 -19 40 38 vhcurveto
            0 35 6 16 24 19 rrcurveto
            return
          </CharString>
          <CharString index="526">
            455 hlineto
            18 13 26 22 6 -7 6 -6 hvcurveto
            -463 hlineto
            -21 -3 -39 -9 -6 7 -6 7 hvcurveto
            return
          </CharString>
          <CharString index="527">
            128 vlineto
            47 -39 25 -42 vhcurveto
            -41 0 -45 -26 -19 -14 -1 1 0 2 0 2 0 10 5 23 0 6 rrcurveto
            2 -8 3 -4 vhcurveto
            -1 hlineto
            -14 -11 -28 -15 -34 -7 -6 -1 1 -13 6 -1 22 -5 6 -17 0 -22 rrcurveto
            -117 vlineto
            0 -15 -15 -9 -13 -3 -7 -3 -8 -5 0 -6 rrcurveto
            -6 12 -4 3 vhcurveto
            106 hlineto
            4 11 4 6 hvcurveto
            0 6 -7 5 -8 3 -13 3 -11 10 0 14 rrcurveto
            100 vlineto
            0 25 12 13 9 6 17 12 13 2 22 0 rrcurveto
            35 26 -21 -35 hvcurveto
            -102 vlineto
            0 -17 -14 -7 -13 -3 -7 -3 -8 -5 0 -6 rrcurveto
            -6 12 -4 3 vhcurveto
            107 hlineto
            3 12 4 6 hvcurveto
            0 6 -8 5 -7 3 -13 3 -13 7 0 17 rrcurveto
            return
          </CharString>
          <CharString index="528">
            11 3 16 4 10 0 rrcurveto
            38 29 -29 -36 -58 -46 -4 -13 hvcurveto
            -30 0 -23 14 -12 8 -2 2 -5 3 -6 0 rrcurveto
            -9 -9 -20 -8 hvcurveto
            -28 37 -5 29 vhcurveto
            return
          </CharString>
          <CharString index="529">
            -44 -54 -45 -54 -42 -56 rrcurveto
            0 -1 0 -1 -3 4 -4 3 hvcurveto
            63 1 34 3 49 0 rrcurveto
            1 8 -1 -4 hvcurveto
            -92 vlineto
            -6 4 -2 5 4 39 12 15 vhcurveto
            76 vlineto
            4 11 1 12 vhcurveto
            12 0 15 -1 6 0 rrcurveto
            return
          </CharString>
          <CharString index="530">
            -79 -52 -65 -54 -44 41 -32 45 hvcurveto
            24 0 22 13 10 7 7 5 13 9 4 8 2 2 -4 19 -3 -2 -7 -3 -8 -10 -8 -3 -8 -3 -4 -2 -15 0 rrcurveto
            -35 -21 26 33 40 25 28 30 47 30 -37 -50 hvcurveto
            0 -68 -26 -31 -24 -28 -27 -34 -55 -49 -37 -11 -5 -1 -5 -8 0 -7 rrcurveto
            -4 5 -4 4 vhcurveto
            1 hlineto
            44 6 71 45 36 32 35 32 43 54 0 69 rrcurveto
            70 -53 52 -63 vhcurveto
            return
          </CharString>
          <CharString index="531">
            52 -76 rlineto
            3 -5 2 -5 -5 -7 rrcurveto
            -48 -61 rlineto
            -6 -7 -18 -21 -14 -2 -7 -1 -9 -4 0 -7 rrcurveto
            -6 4 -2 12 vhcurveto
            69 hlineto
            3 12 3 6 hvcurveto
            0 6 -8 5 -7 2 -13 4 1 6 3 4 rrcurveto
            39 53 rlineto
            1 2 5 8 2 -3 rrcurveto
            35 -52 rlineto
            3 -4 1 -3 0 -3 0 -13 -31 4 0 -16 rrcurveto
            -6 12 -3 3 vhcurveto
            100 hlineto
            3 12 3 6 hvcurveto
            0 7 -8 2 -7 2 -13 4 -8 9 -6 8 rrcurveto
            -60 90 rlineto
            -2 2 -3 7 1 2 rrcurveto
            40 60 rlineto
            11 16 22 0 13 4 7 2 8 8 0 6 rrcurveto
            6 -12 2 -3 vhcurveto
            -72 hlineto
            -3 -12 -5 -6 hvcurveto
            0 -6 8 -6 7 -2 4 -1 -2 -12 -2 -2 rrcurveto
            -25 -35 rlineto
            -6 -7 2 -8 -10 16 rrcurveto
            -16 29 rlineto
            -3 5 -3 12 5 2 7 3 6 5 0 7 0 6 -12 6 -3 0 -15 0 -2 -1 -16 0 rrcurveto
            -51 hlineto
            -3 -12 -4 -6 hvcurveto
            0 -7 8 -6 7 -2 13 -4 7 -8 3 -5 rrcurveto
            return
          </CharString>
          <CharString index="532">
            0 14 15 20 50 14 11 3 4 -2 0 -12 rrcurveto
            -1 -29 rlineto
            0 -15 -2 -4 -5 -4 -10 -8 -13 -11 -17 0 -13 0 -19 11 0 23 rrcurveto
            return
          </CharString>
          <CharString index="533">
            24 25 30 5 hvcurveto
            0 7 -8 12 -5 -6 -4 -6 -5 -2 -12 0 rrcurveto
            -19 -2 22 17 hvcurveto
            3 124 rlineto
            1 28 -32 25 -31 0 -34 0 -46 -25 -20 -17 -16 -13 -3 -10 -6 -15 -3 -7 3 -4 4 1 15 4 30 7 0 8 0 8 -1 10 3 7 rrcurveto
            5 8 22 5 16 0 rrcurveto
            24 13 -16 -20 hvcurveto
            -23 vlineto
            0 -16 -1 -2 -17 -6 rrcurveto
            -79 -28 rlineto
            -32 -12 -6 -16 0 -25 0 -23 32 -36 27 0 53 0 18 31 9 0 5 0 13 -31 37 0 rrcurveto
            return
          </CharString>
          <CharString index="534">
            -16 -11 -7 -1 -22 0 rrcurveto
            -28 -16 26 29 hvcurveto
            101 vlineto
            0 18 1 17 3 19 1 6 -9 4 -6 -1 -25 -5 -16 -5 -35 -1 -3 0 -3 -9 0 -5 0 -4 3 -8 2 -1 20 -7 11 -10 0 -17 rrcurveto
            -114 vlineto
            -47 32 -24 42 vhcurveto
            40 0 33 11 34 31 1 -4 -4 -23 0 -12 rrcurveto
            -4 1 -3 1 vhcurveto
            return
          </CharString>
          <CharString index="535">
            -145 -1 -69 -154 0 -133 0 -93 -13 -108 -20 -37 -3 -6 -2 -5 -6 -1 -51 -10 -45 -44 0 -20 0 -17 13 -14 17 0 14 0 14 5 8 15 rrcurveto
            14 26 24 23 6 0 10 0 32 -13 22 -16 rrcurveto
            return
          </CharString>
          <CharString index="536">
            55 -38 38 -24 67 0 81 0 72 64 0 77 0 28 -18 22 -29 3 -9 1 0 -12 0 -9 1 -20 12 -12 0 -19 rrcurveto
            -30 -27 -25 -30 vhcurveto
            -2 hlineto
            -95 2 -22 59 -119 0 -7 0 0 7 3 2 28 24 55 115 0 96 0 165 42 98 66 0 rrcurveto
            return
          </CharString>
          <CharString index="537">
            34 0 34 -40 1 -33 0 -8 -1 -8 0 -6 rrcurveto
            -9 2 -5 10 13 29 29 27 46 -23 36 -78 vhcurveto
            return
          </CharString>
          <CharString index="538">
            60 -119 75 -171 10 -19 rrcurveto
            149 315 rlineto
            5 11 5 2 0 -13 rrcurveto
            -246 vlineto
            return
          </CharString>
          <CharString index="539">
            0 -28 -8 -5 -25 -3 -15 -2 -7 -7 0 -5 rrcurveto
            -5 8 -3 11 vhcurveto
            151 hlineto
            11 8 3 5 hvcurveto
            0 5 -6 7 -15 2 -32 5 -17 5 0 25 rrcurveto
            284 vlineto
            0 19 24 3 22 6 4 1 13 7 0 7 rrcurveto
            7 -14 2 -2 vhcurveto
            -96 hlineto
            -10 0 -9 -19 -11 -19 rrcurveto
            -118 -236 rlineto
            -6 -11 -4 2 -5 11 rrcurveto
            -103 211 rlineto
            -7 15 -18 46 -12 0 rrcurveto
            -102 hlineto
            -4 -11 -3 -6 hvcurveto
            0 -5 5 -8 4 -1 16 -4 12 -1 13 -14 11 -12 0 -5 0 -16 rrcurveto
            -257 vlineto
            0 -8 -8 -26 -32 -5 -15 -2 -7 -7 0 -5 rrcurveto
            -5 8 -3 11 vhcurveto
            120 hlineto
            11 8 3 5 hvcurveto
            0 5 -6 7 -15 2 -32 5 -10 19 0 16 rrcurveto
            231 vlineto
            0 9 3 4 4 -8 rrcurveto
            return
          </CharString>
          <CharString index="540">
            -43 0 -41 64 -8 20 -3 8 -5 2 -3 0 -7 0 -6 -3 0 -5 0 -22 8 -45 7 -14 1 -3 5 -3 8 -4 11 -5 32 -11 47 0 rrcurveto
            98 36 66 48 hvcurveto
            0 61 -65 34 -33 22 -32 21 -60 31 0 38 0 40 33 26 40 0 rrcurveto
            return
          </CharString>
          <CharString index="541">
            22 0 42 -12 16 -55 2 -9 12 -6 3 0 3 0 4 10 0 5 0 21 -3 24 -4 20 -1 6 -4 7 -7 1 -13 2 -25 6 -42 0 rrcurveto
            -89 -38 -50 -48 hvcurveto
            0 -48 45 -33 45 -29 rrcurveto
            return
          </CharString>
          <CharString index="542">
            51 -33 39 -26 0 -40 rrcurveto
            -59 -25 -20 -53 vhcurveto
            return
          </CharString>
          <CharString index="543">
            261 vlineto
            0 11 2 14 9 1 12 1 31 1 34 0 42 0 1 -12 6 -11 3 -5 1 -13 8 -1 7 -1 3 9 0 7 -1 22 12 25 0 24 rrcurveto
            5 -5 5 -3 vhcurveto
            -5 0 -6 2 -7 -9 -6 -8 -22 -7 -19 0 rrcurveto
            -217 hlineto
            -18 0 -23 6 -5 8 -4 7 -9 5 -3 0 -3 0 -6 0 -2 -13 -4 -25 -4 -19 -12 -23 -2 -4 -2 -4 0 -4 0 -4 2 -4 3 0 rrcurveto
            10 0 13 16 4 7 9 16 23 3 21 0 rrcurveto
            33 hlineto
            10 0 4 0 10 -2 10 -2 1 -13 0 -11 rrcurveto
            -261 vlineto
            0 -29 -18 -13 -32 -5 -15 -2 -7 -7 0 -5 rrcurveto
            -5 8 -3 11 vhcurveto
            171 hlineto
            11 8 3 5 hvcurveto
            0 5 -6 7 -15 2 -32 5 -20 13 0 29 rrcurveto
            return
          </CharString>
          <CharString index="544">
            -3 1 -1 3 3 1 rrcurveto
            373 174 rlineto
            20 9 5 16 6 21 2 6 -6 9 -6 0 -1 0 -1 -1 -1 0 rrcurveto
            -437 -200 rlineto
            -20 -9 -13 -28 0 -9 0 -6 24 -13 17 -8 rrcurveto
            429 -200 rlineto
            1 0 1 -1 1 0 6 0 5 8 0 5 0 9 -5 30 -19 9 rrcurveto
            return
          </CharString>
          <CharString index="545">
            -380 -174 rlineto
            -19 -9 -5 -30 0 -9 0 -5 5 -8 6 0 1 0 1 1 1 0 rrcurveto
            429 200 rlineto
            17 8 24 13 0 6 0 9 -13 28 -20 9 rrcurveto
            -437 200 rlineto
            -1 0 -1 1 -1 0 -6 0 -6 -9 2 -6 6 -21 5 -16 20 -9 rrcurveto
            373 -174 rlineto
            3 -1 -1 -3 -3 -1 rrcurveto
            return
          </CharString>
          <CharString index="546">
            25 0 18 -40 17 0 13 0 33 15 0 17 0 19 -14 10 -7 7 -7 7 -25 6 -21 0 rrcurveto
            -87 -81 -94 -140 hvcurveto
            -70 vlineto
            -19 -10 -10 -8 -30 -8 -2 -1 -4 -2 0 -3 0 -7 9 -10 4 -1 21 -2 18 0 13 0 rrcurveto
            -281 vlineto
            0 -29 -23 -10 -20 -6 -11 -4 -12 -4 0 -10 0 -8 13 -1 7 0 rrcurveto
            3 hlineto
            39 0 4 5 35 0 35 0 4 -5 39 0 rrcurveto
            3 hlineto
            7 13 1 8 hvcurveto
            0 10 -12 4 -11 4 -20 6 -23 11 0 29 rrcurveto
            265 vlineto
            return
          </CharString>
          <CharString index="547">
            10 4 7 36 vhcurveto
            79 hlineto
            7 6 23 14 6 -1 5 -3 hvcurveto
            -103 hlineto
            -13 -12 4 16 hvcurveto
            0 17 1 113 0 20 rrcurveto
            2 87 49 8 14 0 rrcurveto
            return
          </CharString>
          <CharString index="548">
            0 3 1 2 2 2 16 16 17 -3 21 7 18 6 10 10 17 0 rrcurveto
            5 hlineto
            return
          </CharString>
          <CharString index="549">
            10 -1 -2 -13 0 -10 1 -9 2 -8 -7 -7 -8 -8 -9 2 -11 -4 rrcurveto
            return
          </CharString>
          <CharString index="550">
            -15 -5 -17 -11 -16 0 rrcurveto
            -15 -20 15 16 hvcurveto
            return
          </CharString>
          <CharString index="551">
            2 hlineto
            15 -1 8 -8 7 -13 4 -7 2 -5 0 -5 0 -24 -45 -4 -19 -5 -20 -5 -13 -8 -19 0 -3 0 -3 1 -4 0 -16 2 -15 6 -3 16 rrcurveto
            -2 20 24 21 25 0 4 0 5 -1 5 0 26 0 13 20 22 0 rrcurveto
            return
          </CharString>
          <CharString index="552">
            -7 0 -8 9 -8 0 rrcurveto
            -4 hlineto
            -7 -2 6 -11 -5 -5 -11 -12 -7 -8 -16 -4 -10 -3 -23 -5 -19 0 -17 0 -14 4 0 15 0 2 0 2 1 3 10 32 38 9 30 11 rrcurveto
            20 7 12 11 20 0 rrcurveto
            4 hlineto
            11 -1 0 -13 3 -10 3 -8 6 -8 0 -6 0 -4 -3 -5 -5 0 rrcurveto
            return
          </CharString>
          <CharString index="553">
            18 -3 20 0 0 -18 0 -16 -19 -3 -17 -6 -35 -14 -21 -7 -38 -3 -8 -1 -11 7 3 8 8 17 13 2 15 11 12 8 7 5 13 5 rrcurveto
            return
          </CharString>
          <CharString index="554">
            13 4 8 5 12 0 2 0 3 -1 2 0 rrcurveto
            return
          </CharString>
          <CharString index="555">
            0 19 -19 7 0 23 0 6 1 6 0 6 0 4 0 4 -2 5 -7 21 -13 8 -8 21 -3 10 2 7 1 11 3 15 4 29 18 0 rrcurveto
            1 hlineto
            11 -1 4 -7 9 -4 13 -5 8 -3 13 -2 28 -4 16 2 28 -2 rrcurveto
            return
          </CharString>
          <CharString index="556">
            17 -1 10 -6 14 0 3 0 3 1 3 0 9 1 7 6 0 9 0 18 -21 2 -18 0 rrcurveto
            return
          </CharString>
          <CharString index="557">
            -20 0 -18 -4 -20 0 -39 0 -13 14 -27 14 -11 6 -9 10 -10 8 -3 2 -1 5 -4 -1 -5 -1 0 -6 -5 -3 -31 -21 -19 -10 -32 -21 rrcurveto
            -13 -9 -6 -8 -15 -7 -17 -8 -10 -5 -19 -1 -6 0 2 10 -6 2 -16 6 -13 -7 -15 9 rrcurveto
            return
          </CharString>
          <CharString index="558">
            -10 6 0 9 -4 11 -3 10 -8 10 7 8 13 15 16 -2 17 9 16 8 8 6 16 6 29 10 17 2 28 10 34 12 16 16 34 6 rrcurveto
            2 0 2 1 2 0 15 0 9 -10 16 -3 7 -1 5 -3 4 4 4 4 0 6 -4 4 -17 20 -12 11 -23 15 -16 11 -10 6 -20 1 rrcurveto
            -2 hlineto
            return
          </CharString>
          <CharString index="559">
            -15 0 -8 -12 -15 0 rrcurveto
            -4 hlineto
            -21 3 -9 13 -20 8 rrcurveto
            return
          </CharString>
          <CharString index="560">
            -6 3 -4 3 -7 -2 -7 -2 0 -9 -8 -1 -22 -3 -18 0 -17 0 rrcurveto
            -21 hlineto
            return
          </CharString>
          <CharString index="561">
            -36 -2 -21 -6 -34 0 rrcurveto
            -7 hlineto
            -38 1 -23 1 -37 10 -7 2 -4 12 0 10 0 8 2 7 5 3 20 12 15 1 23 3 15 2 11 1 11 0 46 0 27 -13 40 -2 rrcurveto
            10 -1 5 7 9 0 rrcurveto
            2 hlineto
            13 0 8 -4 12 0 rrcurveto
            3 hlineto
            29 2 15 5 28 5 rrcurveto
            return
          </CharString>
          <CharString index="562">
            11 2 6 4 11 0 rrcurveto
            15 hlineto
            35 0 24 0 38 -6 16 -2 5 -11 15 -3 6 -1 5 0 6 0 rrcurveto
            return
          </CharString>
          <CharString index="563">
            12 0 10 2 12 0 8 0 8 -1 9 -4 51 -20 22 -23 45 -29 15 -10 9 -19 24 0 4 0 3 1 4 0 18 0 7 -12 0 -16 rrcurveto
            return
          </CharString>
          <CharString index="564">
            0 -58 -10 -34 0 -56 rrcurveto
            -8 vlineto
            1 -44 12 -24 1 -44 1 -11 -4 -7 -7 -8 -9 -11 -19 -1 -19 0 rrcurveto
            -7 hlineto
            -6 0 -4 5 -6 -3 -14 -6 -4 -11 -14 -7 -19 -9 -12 -2 -21 -5 -14 -4 -9 1 -15 -3 -11 -2 -6 -6 -12 0 rrcurveto
            -1 hlineto
            -13 0 -7 8 -14 2 rrcurveto
            -3 hlineto
            return
          </CharString>
          <CharString index="565">
            -7 0 -8 -3 -5 0 rrcurveto
            -5 -5 3 6 hvcurveto
            return
          </CharString>
          <CharString index="566">
            -7 0 -4 20 -6 10 -18 32 -10 36 -3 44 -2 38 -2 28 0 31 0 16 1 17 1 20 4 42 -8 31 26 33 3 3 2 1 2 0 rrcurveto
            11 0 12 -25 4 -15 18 -60 -2 -36 6 -62 2 -15 1 -11 0 -12 0 -43 -13 -28 -8 -37 -1 -3 0 -3 0 -3 0 -10 3 -8 0 -9 rrcurveto
            -5 -3 -17 -9 vhcurveto
            return
          </CharString>
          <CharString index="567">
            -10 31 -27 6 -31 11 -3 1 -3 1 -3 0 -11 0 -8 -7 -12 -5 rrcurveto
            return
          </CharString>
          <CharString index="568">
            -18 -9 -5 -18 -21 -3 rrcurveto
            -3 hlineto
            -14 0 -7 12 -14 8 -63 38 -31 29 -68 31 -19 9 -15 1 -18 0 rrcurveto
            -24 hlineto
            return
          </CharString>
          <CharString index="569">
            -58 0 -38 12 -51 0 -12 0 -13 0 -14 -2 -74 -9 -46 -8 -64 -39 -9 -6 -3 -8 0 -10 0 -11 4 -13 6 -10 11 -17 17 -1 20 -2 rrcurveto
            return
          </CharString>
          <CharString index="570">
            12 -1 10 -1 9 0 23 0 19 3 27 1 rrcurveto
            return
          </CharString>
          <CharString index="571">
            41 1 27 7 35 0 28 0 43 -2 0 -29 0 -10 -20 1 -6 -10 -9 -15 7 -14 -12 -13 -13 -15 -20 6 -11 -17 -6 -10 -3 -10 0 -10 rrcurveto
            0 -7 2 -7 3 -8 21 -44 29 -14 24 -42 6 -10 -9 -9 5 -11 5 -10 15 1 2 -11 1 -4 0 -3 0 -3 0 -15 -7 -12 0 -16 rrcurveto
            -7 vlineto
            3 -17 13 -5 6 -16 3 -7 -7 -6 4 -5 rrcurveto
            return
          </CharString>
          <CharString index="572">
            26 -8 20 -2 21 0 14 0 14 1 17 1 12 1 3 14 11 1 rrcurveto
            4 hlineto
            return
          </CharString>
          <CharString index="573">
            13 0 9 -8 13 0 rrcurveto
            5 hlineto
            16 3 3 16 15 3 rrcurveto
            return
          </CharString>
          <CharString index="574">
            5 1 5 0 4 0 16 0 13 -5 16 0 5 0 5 1 5 1 67 14 33 24 66 16 4 1 3 0 3 0 37 0 17 -52 24 0 rrcurveto
            3 0 4 1 3 2 38 23 -7 40 7 43 4 25 2 21 0 20 0 24 -2 22 -2 30 0 10 -1 9 0 9 0 23 2 20 0 20 rrcurveto
            0 34 -3 33 -14 40 rrcurveto
            return
          </CharString>
          <CharString index="575">
            -11 4 -9 -2 -8 8 -7 7 2 8 1 9 rrcurveto
            return
          </CharString>
          <CharString index="576">
            1 10 -3 13 10 1 rrcurveto
            6 hlineto
            16 0 11 -10 17 -6 21 -7 17 3 16 -16 2 -2 1 -3 0 -3 rrcurveto
            -15 -20 -15 -14 vhcurveto
            return
          </CharString>
          <CharString index="577">
            23 23 -20 -19 hvcurveto
            0 -18 -18 -6 -16 -2 -3 0 -4 -1 -3 0 -19 0 -13 8 -20 5 -19 5 -45 4 0 25 0 5 2 5 4 6 7 13 9 8 14 1 rrcurveto
            2 hlineto
            22 0 14 -20 26 0 rrcurveto
            return
          </CharString>
          <CharString index="578">
            0 6 6 8 3 8 4 10 -1 13 11 1 rrcurveto
            5 hlineto
            20 0 11 -11 20 -7 30 -11 39 -9 9 -32 1 -3 0 -3 0 -2 0 -14 -14 -4 -17 0 -19 0 -22 5 -11 3 -16 4 -7 8 -11 12 rrcurveto
            -5 5 6 11 -7 2 rrcurveto
            -3 hlineto
            -9 0 -7 -9 -8 0 -4 0 -4 5 0 4 rrcurveto
            return
          </CharString>
          <CharString index="579">
            3 0 2 1 3 0 11 0 9 -5 12 -4 13 -5 7 -5 12 -8 15 -11 13 -2 8 -17 3 -8 -11 -7 -8 1 -38 3 -21 7 -35 14 rrcurveto
            -16 6 -20 3 0 16 rrcurveto
            return
          </CharString>
          <CharString index="580">
            0 -12 17 -6 0 -10 0 -6 -5 -3 -4 0 rrcurveto
            return
          </CharString>
          <CharString index="581">
            -14 -2 -6 -8 -14 0 rrcurveto
            -1 hlineto
            -11 0 -7 6 -11 2 -15 3 -8 -1 -15 4 -21 5 -12 2 -19 9 -14 7 -4 11 -14 6 -6 3 -4 -5 -6 0 -32 0 -32 3 0 33 rrcurveto
            return
          </CharString>
          <CharString index="582">
            0 45 13 25 1 44 rrcurveto
            8 vlineto
            0 56 -10 34 0 58 0 16 7 12 18 0 4 0 4 -1 3 0 24 0 8 19 16 10 45 29 23 23 50 20 9 4 9 1 8 0 rrcurveto
            11 0 11 -2 12 0 5 0 5 0 6 1 15 3 6 11 15 2 rrcurveto
            return
          </CharString>
          <CharString index="583">
            38 6 24 0 35 0 rrcurveto
            15 hlineto
            11 0 6 -4 11 -2 28 -5 16 -5 28 -2 rrcurveto
            4 hlineto
            12 0 8 4 12 0 rrcurveto
            2 hlineto
            10 0 4 -7 10 1 41 2 26 13 46 0 12 0 10 -1 15 -2 23 -3 15 -1 20 -12 5 -3 2 -8 0 -8 0 -10 -4 -11 -7 -2 rrcurveto
            -37 -10 -23 -1 -38 -1 rrcurveto
            -6 hlineto
            return
          </CharString>
          <CharString index="584">
            -14 1 -13 0 -11 0 rrcurveto
            -20 hlineto
            -18 0 -18 0 -22 3 rrcurveto
            return
          </CharString>
          <CharString index="585">
            -7 1 -1 9 -7 2 -7 2 -4 -3 -6 -3 rrcurveto
            return
          </CharString>
          <CharString index="586">
            -15 0 -9 12 -15 0 rrcurveto
            -2 hlineto
            -19 -1 -11 -6 -16 -11 -23 -15 -11 -11 -18 -20 -4 -4 0 -6 4 -4 5 -4 5 3 6 1 16 3 9 10 15 0 2 0 2 -1 2 0 rrcurveto
            35 -6 16 -16 33 -12 28 -10 18 -2 28 -10 16 -6 8 -6 16 -8 18 -9 15 2 13 -15 7 -8 -8 -10 -3 -10 -4 -11 0 -9 -10 -6 rrcurveto
            -15 -9 -13 7 -16 -6 -6 -2 2 -10 -6 0 -19 1 -10 5 -17 8 -15 7 -5 8 -14 9 -32 21 -19 10 -31 21 -5 3 0 6 -5 1 rrcurveto
            -4 1 -1 -5 -3 -2 -10 -8 -8 -10 -12 -6 -27 -14 -13 -14 -39 0 rrcurveto
            return
          </CharString>
          <CharString index="587">
            -20 0 -17 4 -21 0 -18 0 -21 -2 0 -18 rrcurveto
            return
          </CharString>
          <CharString index="588">
            3 0 3 -1 3 0 14 0 11 6 16 1 28 2 16 -2 28 4 14 2 7 3 13 5 10 4 4 7 10 1 rrcurveto
            1 hlineto
            19 0 4 -29 2 -15 2 -11 2 -7 -4 -10 -8 -21 -13 -8 -7 -21 -1 -4 -1 -4 0 -4 0 -6 1 -6 0 -6 rrcurveto
            0 -24 -19 -6 0 -20 rrcurveto
            return
          </CharString>
          <CharString index="589">
            0 8 2 9 0 10 0 3 0 3 -1 3 -5 29 -9 16 -4 29 -2 14 0 11 0 11 0 11 0 11 2 14 6 62 -1 36 17 60 rrcurveto
            return
          </CharString>
          <CharString index="590">
            4 15 12 25 11 0 3 0 2 -1 2 -3 26 -33 -7 -31 3 -42 2 -22 1 -18 0 -17 0 -29 -2 -28 -3 -36 -3 -44 -10 -36 -18 -32 rrcurveto
            -6 -10 -4 -20 -7 0 -9 0 -2 16 0 6 rrcurveto
            return
          </CharString>
          <CharString index="591">
            -14 -40 -2 -33 0 -34 0 -20 1 -20 0 -23 rrcurveto
            return
          </CharString>
          <CharString index="592">
            0 -9 -1 -9 0 -10 -1 -31 -2 -23 0 -25 0 -19 1 -20 4 -24 7 -43 -6 -40 37 -23 4 -2 3 -1 3 0 25 0 16 52 37 0 rrcurveto
            3 0 3 0 4 -1 66 -16 33 -24 67 -14 5 -1 6 -1 4 0 16 0 13 5 16 0 5 0 4 0 5 -1 rrcurveto
            return
          </CharString>
          <CharString index="593">
            13 0 9 8 13 0 rrcurveto
            4 hlineto
            12 -1 2 -14 12 -1 rrcurveto
            return
          </CharString>
          <CharString index="594">
            21 0 20 2 26 8 26 8 11 14 19 20 rrcurveto
            return
          </CharString>
          <CharString index="595">
            5 5 -8 6 3 7 6 16 13 5 3 17 0 3 1 2 0 3 rrcurveto
            return
          </CharString>
          <CharString index="596">
            0 15 -8 12 0 15 0 3 0 4 1 3 2 11 15 -1 5 10 5 11 -9 9 6 10 24 42 30 14 20 44 4 8 2 8 0 7 rrcurveto
            0 10 -4 9 -6 10 -10 17 -21 -6 -13 15 -11 13 6 14 -9 15 -6 10 -20 -1 0 10 0 29 44 2 28 0 34 0 27 -7 41 -1 rrcurveto
            return
          </CharString>
          <CharString index="597">
            28 -1 19 -3 22 0 10 0 10 1 11 1 20 2 18 1 10 17 6 10 5 12 0 11 0 10 -4 9 -9 6 -64 39 -46 8 -74 9 rrcurveto
            -14 2 -12 0 -12 0 -51 0 -39 -12 -57 0 rrcurveto
            -7 hlineto
            return
          </CharString>
          <CharString index="598">
            -69 1 -38 13 -69 2 rrcurveto
            -24 hlineto
            -18 0 -15 -1 -19 -9 -67 -31 -31 -29 -64 -38 -13 -8 -7 -12 -15 0 rrcurveto
            -3 hlineto
            -21 3 -4 18 -19 9 rrcurveto
            return
          </CharString>
          <CharString index="599">
            -11 5 -9 7 -11 0 -3 0 -3 -1 -3 -1 -31 -11 -27 -6 -10 -31 rrcurveto
            return
          </CharString>
          <CharString index="600">
            -146 vlineto
            0 -41 -1 -27 -12 -21 -13 -23 -6 -6 -15 -5 -8 -3 -6 -6 0 -11 rrcurveto
            -7 9 -1 7 vhcurveto
            5 hlineto
            26 5 43 36 15 40 9 24 4 21 0 37 rrcurveto
            138 vlineto
            0 52 4 33 1 14 0 2 -4 1 -4 0 -3 0 -2 -1 -1 0 -23 -12 -23 -20 -33 -7 -8 -2 1 -18 8 -2 rrcurveto
            21 -5 9 -18 0 -21 rrcurveto
            return
          </CharString>
          <CharString index="601">
            -19 -27 -20 -30 -42 -17 -2 -1 -1 -2 0 -3 0 -7 6 -10 4 -1 21 -2 12 6 0 -19 rrcurveto
            -254 vlineto
            -52 40 -45 52 vhcurveto
            52 0 38 33 9 15 4 6 -4 20 -8 -6 -16 -12 -10 -11 -44 0 rrcurveto
            -36 -3 36 40 hvcurveto
            217 vlineto
            0 8 -1 6 0 4 rrcurveto
            0 9 5 0 32 1 rrcurveto
            return
          </CharString>
          <CharString index="602">
            -24 0 -11 2 -28 0 -5 0 -2 -5 0 -5 0 -7 4 -9 3 -1 27 -8 3 1 13 -14 8 -9 1 -23 0 -20 rrcurveto
            -261 vlineto
            0 -42 -23 -11 -32 -9 rrcurveto
            -3 -1 -8 -7 -8 1 -8 3 hvcurveto
            0 68 6 34 vhcurveto
            69 0 -13 -5 38 0 3 0 1 6 0 6 0 8 -2 9 -2 1 -31 7 -31 13 -2 42 -1 39 -1 25 0 42 0 12 7 5 9 0 rrcurveto
            17 2 14 0 14 0 rrcurveto
            18 hlineto
            23 0 18 -2 9 -26 1 -5 10 -11 10 0 5 0 1 6 0 6 -1 20 -1 17 0 17 0 13 0 13 2 15 0 6 -6 5 -3 0 rrcurveto
            -4 0 -12 -8 -2 -4 -6 -16 -17 -11 -19 0 -16 0 -35 -2 -29 0 -7 0 0 8 0 8 0 41 1 56 5 35 rrcurveto
            return
          </CharString>
</ttFont>
